{
.appVersion = "939";
DisplayStrings = (
"/En-cy/Te-cy/Enghe-cy",
"/Iishorttail-cy/Emtail-cy",
"/Dje-cy/Ghemiddlehook-cy H",
"/Ghestroke-cy",
"O/Izhitsa-cy",
"O/Cheabkhasian-cy EHD",
"/Haabkhasian-cy  ODSTD",
"/O-cy A/Fita-cy/Obarred-cy",
"/Cheabkhasian-cy/Schwa-cy",
"/Schwa-cy",
"/Dzeabkhasian-cy",
"/Ze-cy/Schwa-cy/Zedieresis-cy/Dzeabkhasian-cy",
"/Zhe-cy D/Yusbig-cy",
"/Iishort-cy/Iishorttail-cy/Entail-cy",
"/Iishorttail-cy/Entail-cy",
"/Eldescender-cy/Iishorttail-cy/Kadescender-cy/Entail-cy",
"P/Ertick-cy",
"/Reversedze-cy",
"/Ghestroke-cy/Gestrokehook-cy",
"/EnLeftHook-cy/Ghestroke-cy/Gestrokehook-cy",
"/Hardsign-cy/Yat-cy/Semisoftsign-cy",
"/Yat-cy/Ertick-cy",
"/Pe-cy/Ghemiddlehook-cy/Pemiddlehook-cy",
"/Hahook-cy/Hastroke-cy X",
"C/Cheabkhasian-cy/Schwa-cy/Dzeabkhasian-cy E3",
"/Cheabkhasian-cy/Cheabkhasian-cy/Chedescenderabkhasian-cy",
"/Eldescender-cy/Ie-cy/Io-cy/Cheabkhasian-cy/Chedescenderabkhasian-cy",
"/Schwadieresis-cy",
"/Yusbig-cy",
"/Zhe-cy/Yusbig-cy",
"/Entail-cy/Emtail-cy",
"/A-cy \U00A8\U00A8/Adieresis-cy",
"/Adieresis-cy",
"/Odieresis-cy",
"/Ereversed-cy/Edieresis-cy",
"/Udieresis-cy",
"/Chedieresis-cy/Yeru-cy/Yerudieresis-cy",
"/breve/Ushort-cy",
"/Iishorttail-cy",
"/Tse-cy",
"/Esdescender-cy",
"/Esdescender-cy/Shhadescender-cy",
"/Ustraitstroke-cy/Cheverticalstroke-cy/Semisoftsign-cy",
"/Kaverticalstroke-cy",
"/Ghestroke-cy T/Kastroke-cy/Kabashkir-cy",
"/Kastroke-cy",
"/Yi-cy",
"/Tse-cy/Dje-cy/Eltail-cy/Tetse-cy",
"/Tse-cy/Dje-cy/Eltail-cy/Entail-cy/Tetse-cy",
"/Tetse-cy",
"/Dje-cy/Yusbig-cy",
"/Ertick-cy  P",

glyphs = (
{
glyphname = A;
lastChange = "2014-10-16 13:20:11 +0000";
layers = (
{
anchors = (
{
name = ogonek;
position = "{584, 0}";
},
{
name = top;
position = "{302, 740}";
}
);
layerId = "E21536AE-9819-4FE7-8A20-8865FE3C0515";
paths = (
{
closed = 1;
nodes = (
"280 690 LINE SMOOTH",
"274 690 OFFCURVE",
"269 687 OFFCURVE",
"267 681 CURVE SMOOTH",
"19 0 LINE",
"46 0 LINE",
"267 612 LINE SMOOTH",
"274 631 OFFCURVE",
"280 649 OFFCURVE",
"287 668 CURVE",
"316 668 LINE",
"323 649 OFFCURVE",
"329 631 OFFCURVE",
"336 612 CURVE SMOOTH",
"557 0 LINE",
"584 0 LINE",
"336 681 LINE SMOOTH",
"334 687 OFFCURVE",
"329 690 OFFCURVE",
"323 690 CURVE SMOOTH"
);
},
{
closed = 1;
nodes = (
"126 274 LINE",
"126 252 LINE",
"476 252 LINE",
"476 274 LINE"
);
}
);
width = 603;
},
{
anchors = (
{
name = ogonek;
position = "{692, 0}";
},
{
name = top;
position = "{343, 735}";
}
);
layerId = "924B7471-43FB-4CAD-AF7E-45215B64D997";
paths = (
{
closed = 1;
nodes = (
"243 690 LINE SMOOTH",
"208 690 OFFCURVE",
"179 668 OFFCURVE",
"170 634 CURVE SMOOTH",
"-9 0 LINE",
"212 0 LINE",
"316 449 LINE SMOOTH",
"321 474 OFFCURVE",
"325 503 OFFCURVE",
"328 528 CURVE",
"355 528 LINE",
"357 503 OFFCURVE",
"362 474 OFFCURVE",
"367 449 CURVE SMOOTH",
"471 0 LINE",
"692 0 LINE",
"513 634 LINE SMOOTH",
"504 668 OFFCURVE",
"475 690 OFFCURVE",
"440 690 CURVE SMOOTH"
);
},
{
closed = 1;
nodes = (
"158 301 LINE",
"158 149 LINE",
"525 149 LINE",
"525 301 LINE"
);
}
);
width = 683;
},
{
anchors = (
{
name = ogonek;
position = "{622, 0}";
},
{
name = top;
position = "{315, 732}";
}
);
layerId = "77EC9CE6-E33A-4866-9665-0506F15B57B2";
paths = (
{
closed = 1;
nodes = (
"259 690 LINE SMOOTH",
"240 690 OFFCURVE",
"224 679 OFFCURVE",
"219 660 CURVE SMOOTH",
"7 0 LINE",
"121 0 LINE",
"285 549 LINE SMOOTH",
"290 567 OFFCURVE",
"296 587 OFFCURVE",
"301 605 CURVE",
"328 605 LINE",
"332 587 OFFCURVE",
"339 567 OFFCURVE",
"344 549 CURVE SMOOTH",
"508 0 LINE",
"622 0 LINE",
"410 660 LINE SMOOTH",
"405 679 OFFCURVE",
"389 690 OFFCURVE",
"370 690 CURVE SMOOTH"
);
},
{
closed = 1;
nodes = (
"139 298 LINE",
"139 202 LINE",
"489 202 LINE",
"489 298 LINE"
);
}
);
width = 629;
}
);
leftKerningGroup = A;
rightKerningGroup = A;
unicode = 0041;
},
{
glyphname = AE;
lastChange = "2014-10-16 13:20:11 +0000";
layers = (
{
anchors = (
{
name = top;
position = "{636, 690}";
}
);
layerId = "E21536AE-9819-4FE7-8A20-8865FE3C0515";
paths = (
{
closed = 1;
nodes = (
"510 690 OFFCURVE",
"459 679 OFFCURVE",
"410 605 CURVE SMOOTH",
"11 0 LINE",
"41 0 LINE",
"430 592 LINE SMOOTH",
"456 632 OFFCURVE",
"484 655 OFFCURVE",
"506 664 CURVE",
"512 664 LINE",
"490 654 OFFCURVE",
"471 618 OFFCURVE",
"471 587 CURVE SMOOTH",
"471 102 LINE SMOOTH",
"471 43 OFFCURVE",
"514 0 OFFCURVE",
"573 0 CURVE SMOOTH",
"665 0 OFFCURVE",
"755 0 OFFCURVE",
"847 4 CURVE",
"847 22 LINE",
"578 22 LINE SMOOTH",
"530 22 OFFCURVE",
"496 56 OFFCURVE",
"496 104 CURVE SMOOTH",
"496 586 LINE SMOOTH",
"496 636 OFFCURVE",
"528 668 OFFCURVE",
"578 668 CURVE SMOOTH",
"847 668 LINE",
"847 686 LINE",
"774 689 OFFCURVE",
"699 690 OFFCURVE",
"575 690 CURVE SMOOTH"
);
},
{
closed = 1;
nodes = (
"219 294 LINE",
"206 272 LINE",
"483 272 LINE",
"483 294 LINE"
);
},
{
closed = 1;
nodes = (
"488 359 LINE",
"804 360 LINE",
"804 380 LINE",
"488 381 LINE"
);
}
);
width = 906;
},
{
layerId = "924B7471-43FB-4CAD-AF7E-45215B64D997";
paths = (
{
closed = 1;
nodes = (
"338 692 OFFCURVE",
"272 646 OFFCURVE",
"222 534 CURVE SMOOTH",
"-19 0 LINE",
"202 0 LINE",
"417 516 LINE SMOOTH",
"423 528 OFFCURVE",
"431 547 OFFCURVE",
"440 560 CURVE",
"454 560 LINE",
"445 542 OFFCURVE",
"439 519 OFFCURVE",
"439 498 CURVE SMOOTH",
"439 153 LINE SMOOTH",
"439 60 OFFCURVE",
"494 -4 OFFCURVE",
"585 -4 CURVE SMOOTH",
"699 -4 OFFCURVE",
"822 -4 OFFCURVE",
"926 9 CURVE",
"916 159 LINE",
"680 159 LINE SMOOTH",
"656 159 OFFCURVE",
"641 174 OFFCURVE",
"641 195 CURVE SMOOTH",
"641 495 LINE SMOOTH",
"641 516 OFFCURVE",
"657 531 OFFCURVE",
"680 531 CURVE SMOOTH",
"916 531 LINE",
"926 681 LINE",
"805 692 OFFCURVE",
"704 692 OFFCURVE",
"576 692 CURVE SMOOTH"
);
},
{
closed = 1;
nodes = (
"131 309 LINE",
"130 161 LINE",
"488 161 LINE",
"488 309 LINE"
);
},
{
closed = 1;
nodes = (
"447 286 LINE",
"882 286 LINE",
"882 420 LINE",
"447 420 LINE"
);
}
);
width = 954;
},
{
layerId = "77EC9CE6-E33A-4866-9665-0506F15B57B2";
paths = (
{
closed = 1;
nodes = (
"422 691 OFFCURVE",
"365 664 OFFCURVE",
"317 573 CURVE SMOOTH",
"-6 0 LINE",
"110 0 LINE",
"415 558 LINE SMOOTH",
"431 585 OFFCURVE",
"450 607 OFFCURVE",
"466 617 CURVE",
"475 617 LINE",
"460 604 OFFCURVE",
"447 574 OFFCURVE",
"447 547 CURVE SMOOTH",
"447 125 LINE SMOOTH",
"447 51 OFFCURVE",
"495 -2 OFFCURVE",
"567 -2 CURVE SMOOTH",
"668 -2 OFFCURVE",
"772 -2 OFFCURVE",
"868 6 CURVE",
"863 93 LINE",
"613 93 LINE SMOOTH",
"567 93 OFFCURVE",
"551 109 OFFCURVE",
"551 155 CURVE SMOOTH",
"551 531 LINE SMOOTH",
"551 571 OFFCURVE",
"576 596 OFFCURVE",
"613 596 CURVE SMOOTH",
"863 596 LINE",
"868 684 LINE",
"774 690 OFFCURVE",
"688 691 OFFCURVE",
"564 691 CURVE SMOOTH"
);
},
{
closed = 1;
nodes = (
"173 300 LINE",
"166 208 LINE",
"475 208 LINE",
"475 300 LINE"
);
},
{
closed = 1;
nodes = (
"459 317 LINE",
"825 317 LINE",
"825 408 LINE",
"459 408 LINE"
);
}
);
width = 916;
}
);
leftKerningGroup = AE;
rightKerningGroup = AE;
rightMetricsKey = E;
unicode = 00C6;
},
{
glyphname = B;
lastChange = "2014-10-16 13:20:11 +0000";
layers = (
{
layerId = "E21536AE-9819-4FE7-8A20-8865FE3C0515";
paths = (
{
closed = 1;
nodes = (
"207 698 OFFCURVE",
"165 697 OFFCURVE",
"103 690 CURVE",
"117 672 LINE",
"141 674 OFFCURVE",
"209 675 OFFCURVE",
"297 675 CURVE SMOOTH",
"441 675 OFFCURVE",
"493 646 OFFCURVE",
"493 518 CURVE SMOOTH",
"493 398 OFFCURVE",
"446 369 OFFCURVE",
"317 368 CURVE SMOOTH",
"116 368 LINE",
"116 347 LINE",
"317 347 LINE SMOOTH",
"461 345 OFFCURVE",
"513 309 OFFCURVE",
"513 172 CURVE SMOOTH",
"513 44 OFFCURVE",
"464 15 OFFCURVE",
"327 15 CURVE SMOOTH",
"225 15 OFFCURVE",
"145 16 OFFCURVE",
"117 18 CURVE",
"103 0 LINE",
"174 -7 OFFCURVE",
"223 -8 OFFCURVE",
"327 -8 CURVE SMOOTH",
"483 -8 OFFCURVE",
"539 30 OFFCURVE",
"539 172 CURVE SMOOTH",
"539 282 OFFCURVE",
"505 347 OFFCURVE",
"402 356 CURVE",
"402 360 LINE",
"484 368 OFFCURVE",
"519 419 OFFCURVE",
"519 518 CURVE SMOOTH",
"519 660 OFFCURVE",
"460 698 OFFCURVE",
"297 698 CURVE SMOOTH"
);
},
{
closed = 1;
nodes = (
"103 690 LINE",
"103 0 LINE",
"128 0 LINE",
"128 690 LINE"
);
}
);
width = 612;
},
{
layerId = "924B7471-43FB-4CAD-AF7E-45215B64D997";
paths = (
{
closed = 1;
nodes = (
"218 698 OFFCURVE",
"141 697 OFFCURVE",
"52 690 CURVE",
"68 548 LINE",
"143 554 OFFCURVE",
"213 551 OFFCURVE",
"339 551 CURVE SMOOTH",
"391 551 OFFCURVE",
"403 540 OFFCURVE",
"403 487 CURVE SMOOTH",
"403 433 OFFCURVE",
"391 421 OFFCURVE",
"341 421 CURVE SMOOTH",
"67 421 LINE",
"67 294 LINE",
"343 294 LINE SMOOTH",
"404 294 OFFCURVE",
"417 280 OFFCURVE",
"417 216 CURVE SMOOTH",
"417 153 OFFCURVE",
"404 139 OFFCURVE",
"344 139 CURVE SMOOTH",
"210 139 OFFCURVE",
"102 140 OFFCURVE",
"68 142 CURVE",
"52 0 LINE",
"150 -7 OFFCURVE",
"234 -8 OFFCURVE",
"383 -8 CURVE SMOOTH",
"556 -8 OFFCURVE",
"633 30 OFFCURVE",
"633 172 CURVE SMOOTH",
"633 282 OFFCURVE",
"594 346 OFFCURVE",
"484 355 CURVE",
"484 361 LINE",
"575 369 OFFCURVE",
"610 419 OFFCURVE",
"610 518 CURVE SMOOTH",
"610 660 OFFCURVE",
"542 698 OFFCURVE",
"350 698 CURVE SMOOTH"
);
},
{
closed = 1;
nodes = (
"52 690 LINE",
"52 0 LINE",
"264 0 LINE",
"264 690 LINE"
);
}
);
width = 660;
},
{
layerId = "77EC9CE6-E33A-4866-9665-0506F15B57B2";
paths = (
{
closed = 1;
nodes = (
"210 698 OFFCURVE",
"153 697 OFFCURVE",
"81 690 CURVE",
"95 601 LINE",
"141 605 OFFCURVE",
"209 604 OFFCURVE",
"311 604 CURVE SMOOTH",
"409 604 OFFCURVE",
"442 585 OFFCURVE",
"442 504 CURVE SMOOTH",
"442 421 OFFCURVE",
"412 400 OFFCURVE",
"323 400 CURVE SMOOTH",
"94 400 LINE",
"94 315 LINE",
"324 315 LINE SMOOTH",
"425 314 OFFCURVE",
"458 288 OFFCURVE",
"458 192 CURVE SMOOTH",
"458 106 OFFCURVE",
"427 86 OFFCURVE",
"329 86 CURVE SMOOTH",
"216 86 OFFCURVE",
"125 87 OFFCURVE",
"95 89 CURVE",
"81 0 LINE",
"162 -7 OFFCURVE",
"225 -8 OFFCURVE",
"347 -8 CURVE SMOOTH",
"506 -8 OFFCURVE",
"570 30 OFFCURVE",
"570 172 CURVE SMOOTH",
"570 282 OFFCURVE",
"535 347 OFFCURVE",
"432 356 CURVE",
"432 360 LINE",
"515 368 OFFCURVE",
"549 419 OFFCURVE",
"549 518 CURVE SMOOTH",
"549 660 OFFCURVE",
"488 698 OFFCURVE",
"316 698 CURVE SMOOTH"
);
},
{
closed = 1;
nodes = (
"81 690 LINE",
"81 0 LINE",
"190 0 LINE",
"190 690 LINE"
);
}
);
width = 623;
}
);
leftKerningGroup = B;
rightKerningGroup = B;
unicode = 0042;
},
{
glyphname = C;
lastChange = "2014-10-16 13:20:11 +0000";
layers = (
{
anchors = (
{
name = bottom;
position = "{331, -12}";
},
{
name = top;
position = "{322, 740}";
}
);
guideLines = (
{
angle = -70;
position = "{350, 278}";
},
{
angle = 70;
position = "{344, 401}";
},
{
angle = 90;
position = "{438, 354}";
}
);
layerId = "E21536AE-9819-4FE7-8A20-8865FE3C0515";
paths = (
{
closed = 1;
nodes = (
"142 702 OFFCURVE",
"76 608 OFFCURVE",
"76 345 CURVE SMOOTH",
"76 82 OFFCURVE",
"142 -12 OFFCURVE",
"331 -12 CURVE SMOOTH",
"415 -12 OFFCURVE",
"466 -6 OFFCURVE",
"519 6 CURVE",
"513 24 LINE",
"461 15 OFFCURVE",
"411 11 OFFCURVE",
"331 11 CURVE SMOOTH",
"161 11 OFFCURVE",
"102 97 OFFCURVE",
"102 345 CURVE SMOOTH",
"102 593 OFFCURVE",
"161 679 OFFCURVE",
"331 679 CURVE SMOOTH",
"406 679 OFFCURVE",
"443 676 OFFCURVE",
"499 667 CURVE",
"505 685 LINE",
"453 697 OFFCURVE",
"410 702 OFFCURVE",
"331 702 CURVE SMOOTH"
);
}
);
width = 561;
},
{
anchors = (
{
name = bottom;
position = "{323, -32}";
},
{
name = top;
position = "{344, 735}";
}
);
layerId = "924B7471-43FB-4CAD-AF7E-45215B64D997";
paths = (
{
closed = 1;
nodes = (
"116 702 OFFCURVE",
"32 608 OFFCURVE",
"32 345 CURVE SMOOTH",
"32 82 OFFCURVE",
"116 -12 OFFCURVE",
"345 -12 CURVE SMOOTH",
"453 -12 OFFCURVE",
"517 -3 OFFCURVE",
"587 21 CURVE",
"571 179 LINE",
"504 172 OFFCURVE",
"445 171 OFFCURVE",
"345 171 CURVE SMOOTH",
"277 171 OFFCURVE",
"260 205 OFFCURVE",
"260 345 CURVE SMOOTH",
"260 485 OFFCURVE",
"277 519 OFFCURVE",
"345 519 CURVE SMOOTH",
"440 519 OFFCURVE",
"486 518 OFFCURVE",
"556 517 CURVE",
"572 675 LINE",
"503 694 OFFCURVE",
"453 702 OFFCURVE",
"345 702 CURVE SMOOTH"
);
}
);
width = 605;
},
{
anchors = (
{
name = bottom;
position = "{322, -12}";
},
{
name = top;
position = "{320, 732}";
}
);
layerId = "77EC9CE6-E33A-4866-9665-0506F15B57B2";
paths = (
{
closed = 1;
nodes = (
"129 702 OFFCURVE",
"56 608 OFFCURVE",
"56 345 CURVE SMOOTH",
"56 82 OFFCURVE",
"129 -12 OFFCURVE",
"332 -12 CURVE SMOOTH",
"425 -12 OFFCURVE",
"480 -5 OFFCURVE",
"540 13 CURVE",
"529 97 LINE",
"472 89 OFFCURVE",
"419 87 OFFCURVE",
"332 87 CURVE SMOOTH",
"211 87 OFFCURVE",
"173 149 OFFCURVE",
"173 345 CURVE SMOOTH",
"173 541 OFFCURVE",
"211 603 OFFCURVE",
"332 603 CURVE SMOOTH",
"414 603 OFFCURVE",
"454 601 OFFCURVE",
"515 596 CURVE",
"526 681 LINE",
"467 696 OFFCURVE",
"422 702 OFFCURVE",
"332 702 CURVE SMOOTH"
);
}
);
width = 574;
}
);
leftKerningGroup = C;
rightKerningGroup = C;
unicode = 0043;
},
{
glyphname = D;
lastChange = "2014-10-16 13:20:11 +0000";
layers = (
{
anchors = (
{
name = center;
position = "{121, 345}";
},
{
name = top;
position = "{324, 740}";
}
);
layerId = "E21536AE-9819-4FE7-8A20-8865FE3C0515";
paths = (
{
closed = 1;
nodes = (
"245 699 OFFCURVE",
"169 695 OFFCURVE",
"103 690 CURVE",
"113 672 LINE",
"178 674 OFFCURVE",
"246 676 OFFCURVE",
"332 676 CURVE SMOOTH",
"498 676 OFFCURVE",
"557 590 OFFCURVE",
"557 345 CURVE SMOOTH",
"557 100 OFFCURVE",
"498 14 OFFCURVE",
"332 14 CURVE SMOOTH",
"247 14 OFFCURVE",
"180 16 OFFCURVE",
"116 17 CURVE",
"103 0 LINE",
"170 -5 OFFCURVE",
"244 -9 OFFCURVE",
"332 -9 CURVE SMOOTH",
"517 -9 OFFCURVE",
"583 85 OFFCURVE",
"583 345 CURVE SMOOTH",
"583 605 OFFCURVE",
"517 699 OFFCURVE",
"332 699 CURVE SMOOTH"
);
},
{
closed = 1;
nodes = (
"103 690 LINE",
"103 0 LINE",
"128 0 LINE",
"128 690 LINE"
);
}
);
width = 659;
},
{
anchors = (
{
name = top;
position = "{348, 735}";
}
);
layerId = "924B7471-43FB-4CAD-AF7E-45215B64D997";
paths = (
{
closed = 1;
nodes = (
"229 700 OFFCURVE",
"140 695 OFFCURVE",
"52 690 CURVE",
"149 544 LINE",
"208 543 OFFCURVE",
"266 543 OFFCURVE",
"347 543 CURVE SMOOTH",
"421 543 OFFCURVE",
"440 505 OFFCURVE",
"440 345 CURVE SMOOTH",
"440 185 OFFCURVE",
"421 147 OFFCURVE",
"347 147 CURVE SMOOTH",
"260 147 OFFCURVE",
"186 149 OFFCURVE",
"140 154 CURVE",
"52 0 LINE",
"139 -6 OFFCURVE",
"232 -10 OFFCURVE",
"347 -10 CURVE SMOOTH",
"584 -10 OFFCURVE",
"669 65 OFFCURVE",
"669 345 CURVE SMOOTH",
"669 625 OFFCURVE",
"584 700 OFFCURVE",
"347 700 CURVE SMOOTH"
);
},
{
closed = 1;
nodes = (
"52 690 LINE",
"52 0 LINE",
"269 0 LINE",
"269 690 LINE"
);
}
);
width = 701;
},
{
anchors = (
{
name = top;
position = "{316, 732}";
}
);
layerId = "77EC9CE6-E33A-4866-9665-0506F15B57B2";
paths = (
{
closed = 1;
nodes = (
"235 699 OFFCURVE",
"155 695 OFFCURVE",
"81 690 CURVE",
"130 601 LINE",
"191 601 OFFCURVE",
"252 603 OFFCURVE",
"333 603 CURVE SMOOTH",
"453 603 OFFCURVE",
"492 540 OFFCURVE",
"492 345 CURVE SMOOTH",
"492 150 OFFCURVE",
"453 88 OFFCURVE",
"333 88 CURVE SMOOTH",
"250 88 OFFCURVE",
"181 90 OFFCURVE",
"128 92 CURVE",
"81 0 LINE",
"155 -5 OFFCURVE",
"236 -9 OFFCURVE",
"333 -9 CURVE SMOOTH",
"536 -9 OFFCURVE",
"609 76 OFFCURVE",
"609 345 CURVE SMOOTH",
"609 614 OFFCURVE",
"536 699 OFFCURVE",
"333 699 CURVE SMOOTH"
);
},
{
closed = 1;
nodes = (
"81 690 LINE",
"81 0 LINE",
"192 0 LINE",
"192 690 LINE"
);
}
);
width = 666;
}
);
leftKerningGroup = B;
rightKerningGroup = D;
unicode = 0044;
},
{
glyphname = Eth;
lastChange = "2014-10-16 13:20:11 +0000";
layers = (
{
components = (
{
name = D;
transform = "{1, 0, 0, 1, 3, 0}";
}
);
layerId = "E21536AE-9819-4FE7-8A20-8865FE3C0515";
paths = (
{
closed = 1;
nodes = (
"26 381 LINE",
"26 361 LINE",
"314 361 LINE",
"314 381 LINE"
);
}
);
width = 662;
},
{
components = (
{
name = D;
}
);
layerId = "924B7471-43FB-4CAD-AF7E-45215B64D997";
paths = (
{
closed = 1;
nodes = (
"7 409 LINE",
"7 305 LINE",
"368 305 LINE",
"368 409 LINE"
);
}
);
width = 701;
},
{
components = (
{
name = D;
transform = "{1, 0, 0, 1, 5, 0}";
}
);
layerId = "77EC9CE6-E33A-4866-9665-0506F15B57B2";
paths = (
{
closed = 1;
nodes = (
"21 395 LINE",
"21 335 LINE",
"337 335 LINE",
"337 395 LINE"
);
}
);
width = 671;
}
);
leftKerningGroup = B;
rightKerningGroup = D;
rightMetricsKey = D;
unicode = 00D0;
},
{
glyphname = E;
lastChange = "2016-11-16 16:01:37 +0000";
layers = (
{
anchors = (
{
name = bottom;
position = "{297, 0}";
},
{
name = ogonek;
position = "{493, 4}";
},
{
name = top;
position = "{310, 765}";
}
);
guideLines = (
{
position = "{170, 586}";
}
);
layerId = "E21536AE-9819-4FE7-8A20-8865FE3C0515";
paths = (
{
closed = 1;
nodes = (
"140 690 OFFCURVE",
"97 647 OFFCURVE",
"97 588 CURVE SMOOTH",
"97 102 LINE SMOOTH",
"97 43 OFFCURVE",
"140 0 OFFCURVE",
"199 0 CURVE SMOOTH",
"297 0 OFFCURVE",
"395 0 OFFCURVE",
"493 4 CURVE",
"491 22 LINE",
"204 22 LINE SMOOTH",
"156 22 OFFCURVE",
"122 56 OFFCURVE",
"122 104 CURVE SMOOTH",
"122 586 LINE SMOOTH",
"122 634 OFFCURVE",
"156 668 OFFCURVE",
"204 668 CURVE SMOOTH",
"491 668 LINE",
"493 686 LINE",
"395 690 OFFCURVE",
"297 690 OFFCURVE",
"199 690 CURVE SMOOTH"
);
},
{
closed = 1;
nodes = (
"114 359 LINE",
"450 360 LINE",
"450 380 LINE",
"114 381 LINE"
);
}
);
width = 551;
},
{
anchors = (
{
name = bottom;
position = "{317, 0}";
},
{
name = ogonek;
position = "{568, 9}";
},
{
name = top;
position = "{323, 735}";
}
);
guideLines = (
{
position = "{146, 538}";
}
);
layerId = "924B7471-43FB-4CAD-AF7E-45215B64D997";
paths = (
{
closed = 1;
nodes = (
"114 694 OFFCURVE",
"47 630 OFFCURVE",
"47 537 CURVE SMOOTH",
"47 153 LINE SMOOTH",
"47 60 OFFCURVE",
"114 -4 OFFCURVE",
"209 -4 CURVE SMOOTH",
"328 -4 OFFCURVE",
"468 -4 OFFCURVE",
"568 9 CURVE",
"558 162 LINE",
"305 162 LINE SMOOTH",
"280 162 OFFCURVE",
"264 177 OFFCURVE",
"264 198 CURVE SMOOTH",
"264 492 LINE SMOOTH",
"264 513 OFFCURVE",
"280 528 OFFCURVE",
"305 528 CURVE SMOOTH",
"558 528 LINE",
"568 681 LINE",
"468 694 OFFCURVE",
"328 694 OFFCURVE",
"209 694 CURVE SMOOTH"
);
},
{
closed = 1;
nodes = (
"65 281 LINE",
"522 281 LINE",
"522 425 LINE",
"65 425 LINE"
);
}
);
width = 596;
},
{
anchors = (
{
name = bottom;
position = "{301, 0}";
},
{
name = ogonek;
position = "{516, 6}";
},
{
name = top;
position = "{310, 732}";
}
);
guideLines = (
{
position = "{143, 538}";
}
);
layerId = "77EC9CE6-E33A-4866-9665-0506F15B57B2";
paths = (
{
closed = 1;
nodes = (
"131 692 OFFCURVE",
"76 644 OFFCURVE",
"75 565 CURVE SMOOTH",
"75 125 LINE SMOOTH",
"76 46 OFFCURVE",
"130 -2 OFFCURVE",
"220 -2 CURVE SMOOTH",
"319 -2 OFFCURVE",
"426 -2 OFFCURVE",
"516 6 CURVE",
"511 92 LINE",
"238 92 LINE SMOOTH",
"200 92 OFFCURVE",
"187 107 OFFCURVE",
"187 153 CURVE SMOOTH",
"187 536 LINE SMOOTH",
"187 582 OFFCURVE",
"200 597 OFFCURVE",
"238 597 CURVE SMOOTH",
"511 597 LINE",
"516 684 LINE",
"426 692 OFFCURVE",
"319 692 OFFCURVE",
"220 692 CURVE SMOOTH"
);
},
{
closed = 1;
nodes = (
"93 318 LINE",
"473 318 LINE",
"473 407 LINE",
"93 407 LINE"
);
}
);
width = 564;
}
);
leftKerningGroup = E;
rightKerningGroup = AE;
unicode = 0045;
},
{
glyphname = F;
lastChange = "2014-10-16 13:20:11 +0000";
layers = (
{
layerId = "E21536AE-9819-4FE7-8A20-8865FE3C0515";
paths = (
{
closed = 1;
nodes = (
"143 690 OFFCURVE",
"100 647 OFFCURVE",
"100 588 CURVE SMOOTH",
"100 0 LINE",
"125 0 LINE",
"125 586 LINE SMOOTH",
"125 634 OFFCURVE",
"159 668 OFFCURVE",
"207 668 CURVE SMOOTH",
"487 668 LINE",
"489 686 LINE",
"393 690 OFFCURVE",
"298 690 OFFCURVE",
"202 690 CURVE SMOOTH"
);
},
{
closed = 1;
nodes = (
"117 355 LINE",
"446 356 LINE",
"446 376 LINE",
"117 377 LINE"
);
}
);
width = 530;
},
{
layerId = "924B7471-43FB-4CAD-AF7E-45215B64D997";
paths = (
{
closed = 1;
nodes = (
"118 694 OFFCURVE",
"50 630 OFFCURVE",
"50 537 CURVE SMOOTH",
"50 0 LINE",
"267 0 LINE",
"267 492 LINE SMOOTH",
"267 513 OFFCURVE",
"283 528 OFFCURVE",
"310 528 CURVE SMOOTH",
"551 528 LINE",
"561 680 LINE",
"466 694 OFFCURVE",
"329 694 OFFCURVE",
"214 694 CURVE SMOOTH"
);
},
{
closed = 1;
nodes = (
"68 267 LINE",
"514 267 LINE",
"514 411 LINE",
"68 411 LINE"
);
}
);
width = 574;
},
{
background = {
paths = (
{
closed = 1;
nodes = (
"132 692 OFFCURVE",
"77 644 OFFCURVE",
"77 565 CURVE SMOOTH",
"77 125 LINE SMOOTH",
"77 46 OFFCURVE",
"131 -2 OFFCURVE",
"221 -2 CURVE SMOOTH",
"320 -2 OFFCURVE",
"427 -2 OFFCURVE",
"517 6 CURVE",
"512 99 LINE",
"239 99 LINE SMOOTH",
"201 99 OFFCURVE",
"188 114 OFFCURVE",
"188 160 CURVE SMOOTH",
"188 530 LINE SMOOTH",
"188 576 OFFCURVE",
"201 591 OFFCURVE",
"239 591 CURVE SMOOTH",
"512 591 LINE",
"517 684 LINE",
"427 692 OFFCURVE",
"320 692 OFFCURVE",
"221 692 CURVE SMOOTH"
);
},
{
closed = 1;
nodes = (
"94 317 LINE",
"474 322 LINE",
"474 403 LINE",
"94 408 LINE"
);
}
);
};
layerId = "77EC9CE6-E33A-4866-9665-0506F15B57B2";
paths = (
{
closed = 1;
nodes = (
"135 692 OFFCURVE",
"79 645 OFFCURVE",
"79 559 CURVE SMOOTH",
"79 0 LINE",
"191 0 LINE",
"191 536 LINE SMOOTH",
"191 582 OFFCURVE",
"206 597 OFFCURVE",
"252 597 CURVE SMOOTH",
"504 597 LINE",
"510 683 LINE",
"423 692 OFFCURVE",
"320 692 OFFCURVE",
"224 692 CURVE SMOOTH"
);
},
{
closed = 1;
nodes = (
"96 305 LINE",
"467 305 LINE",
"467 395 LINE",
"96 395 LINE"
);
}
);
width = 542;
}
);
leftKerningGroup = F;
rightKerningGroup = F;
unicode = 0046;
},
{
glyphname = G;
lastChange = "2014-10-16 13:20:11 +0000";
layers = (
{
anchors = (
{
name = bottom;
position = "{319, -12}";
},
{
name = top;
position = "{324, 740}";
}
);
background = {
paths = (
{
closed = 1;
nodes = (
"158 480 LINE",
"158 119 LINE",
"158 33 OFFCURVE",
"202 -12 OFFCURVE",
"287 -12 CURVE SMOOTH",
"359 -12 OFFCURVE",
"432 22 OFFCURVE",
"511 88 CURVE",
"511 111 LINE",
"421 45 OFFCURVE",
"362 11 OFFCURVE",
"292 11 CURVE SMOOTH",
"218 11 OFFCURVE",
"182 46 OFFCURVE",
"182 122 CURVE SMOOTH",
"182 480 LINE"
);
},
{
closed = 1;
nodes = (
"508 480 LINE",
"508 104 LINE",
"511 88 LINE",
"514 0 LINE",
"532 0 LINE",
"532 480 LINE"
);
}
);
};
layerId = "E21536AE-9819-4FE7-8A20-8865FE3C0515";
paths = (
{
closed = 1;
nodes = (
"143 702 OFFCURVE",
"76 608 OFFCURVE",
"76 345 CURVE SMOOTH",
"76 95 OFFCURVE",
"140 -12 OFFCURVE",
"304 -12 CURVE SMOOTH",
"395 -12 OFFCURVE",
"470 34 OFFCURVE",
"524 96 CURVE",
"518 114 LINE",
"465 66 OFFCURVE",
"405 11 OFFCURVE",
"306 11 CURVE SMOOTH",
"158 11 OFFCURVE",
"102 111 OFFCURVE",
"102 345 CURVE SMOOTH",
"102 593 OFFCURVE",
"161 679 OFFCURVE",
"334 679 CURVE SMOOTH",
"418 679 OFFCURVE",
"461 676 OFFCURVE",
"524 667 CURVE",
"530 685 LINE",
"471 697 OFFCURVE",
"424 702 OFFCURVE",
"334 702 CURVE SMOOTH"
);
},
{
closed = 1;
nodes = (
"516 400 LINE",
"516 111 LINE",
"517 99 LINE",
"524 0 LINE",
"541 0 LINE",
"541 400 LINE"
);
}
);
width = 622;
},
{
anchors = (
{
name = top;
position = "{352, 735}";
}
);
background = {
paths = (
{
closed = 1;
nodes = (
"87 500 LINE",
"87 126 LINE SMOOTH",
"87 34 OFFCURVE",
"135 -14 OFFCURVE",
"228 -14 CURVE SMOOTH",
"298 -14 OFFCURVE",
"358 16 OFFCURVE",
"421 79 CURVE",
"410 182 LINE",
"370 165 OFFCURVE",
"350 162 OFFCURVE",
"329 162 CURVE SMOOTH",
"307 162 OFFCURVE",
"298 171 OFFCURVE",
"298 193 CURVE SMOOTH",
"298 500 LINE"
);
},
{
closed = 1;
nodes = (
"388 500 LINE",
"388 114 LINE",
"408 102 LINE",
"434 0 LINE",
"599 0 LINE",
"599 500 LINE"
);
}
);
};
layerId = "924B7471-43FB-4CAD-AF7E-45215B64D997";
paths = (
{
closed = 1;
nodes = (
"119 704 OFFCURVE",
"32 610 OFFCURVE",
"32 345 CURVE SMOOTH",
"32 84 OFFCURVE",
"102 -14 OFFCURVE",
"261 -14 CURVE SMOOTH",
"371 -14 OFFCURVE",
"443 50 OFFCURVE",
"467 91 CURVE",
"446 182 LINE",
"427 177 OFFCURVE",
"391 171 OFFCURVE",
"348 171 CURVE SMOOTH",
"280 171 OFFCURVE",
"260 205 OFFCURVE",
"260 345 CURVE SMOOTH",
"260 487 OFFCURVE",
"281 521 OFFCURVE",
"358 521 CURVE SMOOTH",
"451 521 OFFCURVE",
"510 520 OFFCURVE",
"586 519 CURVE",
"602 675 LINE",
"529 696 OFFCURVE",
"467 704 OFFCURVE",
"357 704 CURVE SMOOTH"
);
},
{
closed = 1;
nodes = (
"423 397 LINE",
"423 144 LINE",
"443 107 LINE",
"471 0 LINE",
"631 0 LINE",
"631 397 LINE"
);
}
);
width = 668;
},
{
associatedMasterId = "E21536AE-9819-4FE7-8A20-8865FE3C0515";
layerId = "42121556-F37F-4E7F-84A6-79BE221BD2A3";
name = "Light May 2 13, 12:48";
paths = (
{
closed = 1;
nodes = (
"503 24 LINE",
"451 15 OFFCURVE",
"401 11 OFFCURVE",
"321 11 CURVE SMOOTH",
"151 11 OFFCURVE",
"92 99 OFFCURVE",
"92 345 CURVE SMOOTH",
"92 591 OFFCURVE",
"151 679 OFFCURVE",
"321 679 CURVE SMOOTH",
"396 679 OFFCURVE",
"433 676 OFFCURVE",
"489 667 CURVE",
"495 685 LINE",
"443 697 OFFCURVE",
"400 702 OFFCURVE",
"321 702 CURVE SMOOTH",
"132 702 OFFCURVE",
"66 608 OFFCURVE",
"66 345 CURVE SMOOTH",
"66 82 OFFCURVE",
"132 -12 OFFCURVE",
"321 -12 CURVE SMOOTH",
"405 -12 OFFCURVE",
"456 -6 OFFCURVE",
"509 6 CURVE"
);
},
{
closed = 1;
nodes = (
"502 0 LINE",
"527 0 LINE",
"527 300 LINE",
"502 300 LINE"
);
}
);
width = 600;
},
{
anchors = (
{
name = top;
position = "{329, 732}";
}
);
background = {
paths = (
{
closed = 1;
nodes = (
"128 489 LINE",
"128 122 LINE SMOOTH",
"128 33 OFFCURVE",
"173 -13 OFFCURVE",
"262 -13 CURVE SMOOTH",
"336 -13 OFFCURVE",
"405 16 OFFCURVE",
"480 74 CURVE",
"465 146 LINE",
"394 103 OFFCURVE",
"348 79 OFFCURVE",
"300 79 CURVE SMOOTH",
"251 79 OFFCURVE",
"235 97 OFFCURVE",
"235 154 CURVE SMOOTH",
"235 489 LINE"
);
},
{
closed = 1;
nodes = (
"454 489 LINE",
"454 108 LINE",
"464 94 LINE",
"478 0 LINE",
"561 0 LINE",
"561 489 LINE"
);
}
);
};
layerId = "77EC9CE6-E33A-4866-9665-0506F15B57B2";
paths = (
{
closed = 1;
nodes = (
"135 703 OFFCURVE",
"57 626 OFFCURVE",
"57 348 CURVE SMOOTH",
"57 101 OFFCURVE",
"119 -13 OFFCURVE",
"271 -13 CURVE SMOOTH",
"381 -13 OFFCURVE",
"457 47 OFFCURVE",
"489 82 CURVE",
"474 149 LINE",
"423 115 OFFCURVE",
"371 83 OFFCURVE",
"303 83 CURVE SMOOTH",
"206 83 OFFCURVE",
"174 148 OFFCURVE",
"174 340 CURVE SMOOTH",
"174 578 OFFCURVE",
"223 604 OFFCURVE",
"363 604 CURVE SMOOTH",
"402 604 OFFCURVE",
"474 602 OFFCURVE",
"537 597 CURVE",
"547 681 LINE",
"487 697 OFFCURVE",
"418 703 OFFCURVE",
"356 703 CURVE SMOOTH"
);
},
{
closed = 1;
nodes = (
"459 398 LINE",
"459 126 LINE",
"469 103 LINE",
"485 0 LINE",
"567 0 LINE",
"567 398 LINE"
);
}
);
width = 630;
}
);
leftKerningGroup = C;
rightKerningGroup = G;
unicode = 0047;
},
{
glyphname = H;
lastChange = "2014-10-16 13:20:11 +0000";
layers = (
{
anchors = (
{
name = center;
position = "{329, 345}";
},
{
name = top;
position = "{329, 690}";
}
);
layerId = "E21536AE-9819-4FE7-8A20-8865FE3C0515";
paths = (
{
closed = 1;
nodes = (
"103 690 LINE",
"103 0 LINE",
"128 0 LINE",
"128 690 LINE"
);
},
{
closed = 1;
nodes = (
"120 381 LINE",
"120 359 LINE",
"540 359 LINE",
"540 381 LINE"
);
},
{
closed = 1;
nodes = (
"529 690 LINE",
"529 0 LINE",
"554 0 LINE",
"554 690 LINE"
);
}
);
width = 657;
},
{
layerId = "924B7471-43FB-4CAD-AF7E-45215B64D997";
paths = (
{
closed = 1;
nodes = (
"53 690 LINE",
"53 0 LINE",
"270 0 LINE",
"270 690 LINE"
);
},
{
closed = 1;
nodes = (
"262 442 LINE",
"262 290 LINE",
"455 290 LINE",
"455 442 LINE"
);
},
{
closed = 1;
nodes = (
"444 690 LINE",
"444 0 LINE",
"661 0 LINE",
"661 690 LINE"
);
}
);
width = 714;
},
{
layerId = "77EC9CE6-E33A-4866-9665-0506F15B57B2";
paths = (
{
closed = 1;
nodes = (
"81 690 LINE",
"81 0 LINE",
"192 0 LINE",
"192 690 LINE"
);
},
{
closed = 1;
nodes = (
"184 416 LINE",
"184 320 LINE",
"490 320 LINE",
"490 416 LINE"
);
},
{
closed = 1;
nodes = (
"480 690 LINE",
"480 0 LINE",
"591 0 LINE",
"591 690 LINE"
);
}
);
width = 672;
}
);
leftKerningGroup = B;
rightKerningGroup = H;
unicode = 0048;
},
{
glyphname = Hbar;
lastChange = "2014-10-16 13:20:11 +0000";
layers = (
{
components = (
{
name = H;
transform = "{1, 0, 0, 1, 4, 0}";
}
);
layerId = "E21536AE-9819-4FE7-8A20-8865FE3C0515";
paths = (
{
closed = 1;
nodes = (
"27 545 LINE",
"27 525 LINE",
"638 525 LINE",
"638 545 LINE"
);
}
);
width = 665;
},
{
components = (
{
name = H;
}
);
layerId = "924B7471-43FB-4CAD-AF7E-45215B64D997";
paths = (
{
closed = 1;
nodes = (
"4 601 LINE",
"4 507 LINE",
"712 507 LINE",
"712 601 LINE"
);
}
);
width = 714;
},
{
components = (
{
name = H;
transform = "{1, 0, 0, 1, 4, 0}";
}
);
layerId = "77EC9CE6-E33A-4866-9665-0506F15B57B2";
paths = (
{
closed = 1;
nodes = (
"18 574 LINE",
"18 517 LINE",
"661 517 LINE",
"661 574 LINE"
);
}
);
width = 680;
}
);
leftKerningGroup = B;
rightKerningGroup = H;
unicode = 0126;
},
{
glyphname = I;
lastChange = "2014-10-16 13:20:11 +0000";
layers = (
{
anchors = (
{
name = ogonek;
position = "{128, 0}";
},
{
name = top;
position = "{115, 740}";
}
);
layerId = "E21536AE-9819-4FE7-8A20-8865FE3C0515";
paths = (
{
closed = 1;
nodes = (
"103 690 LINE",
"103 0 LINE",
"128 0 LINE",
"128 690 LINE"
);
}
);
width = 231;
},
{
anchors = (
{
name = ogonek;
position = "{240, 0}";
},
{
name = top;
position = "{161, 735}";
}
);
layerId = "924B7471-43FB-4CAD-AF7E-45215B64D997";
paths = (
{
closed = 1;
nodes = (
"53 690 LINE",
"53 0 LINE",
"268 0 LINE",
"268 690 LINE"
);
}
);
width = 321;
},
{
anchors = (
{
name = ogonek;
position = "{179, 0}";
},
{
name = top;
position = "{137, 732}";
}
);
layerId = "77EC9CE6-E33A-4866-9665-0506F15B57B2";
paths = (
{
closed = 1;
nodes = (
"81 690 LINE",
"81 0 LINE",
"192 0 LINE",
"192 690 LINE"
);
}
);
width = 273;
}
);
leftKerningGroup = B;
rightKerningGroup = H;
unicode = 0049;
},
{
glyphname = J;
lastChange = "2014-10-16 13:20:11 +0000";
layers = (
{
anchors = (
{
name = top;
position = "{174, 690}";
}
);
layerId = "E21536AE-9819-4FE7-8A20-8865FE3C0515";
paths = (
{
closed = 1;
nodes = (
"199 690 LINE",
"199 116 LINE SMOOTH",
"199 49 OFFCURVE",
"166 16 OFFCURVE",
"99 16 CURVE SMOOTH",
"41 16 LINE",
"38 0 LINE",
"56 -3 OFFCURVE",
"84 -6 OFFCURVE",
"102 -6 CURVE SMOOTH",
"184 -7 OFFCURVE",
"224 35 OFFCURVE",
"224 115 CURVE SMOOTH",
"224 690 LINE"
);
}
);
width = 324;
},
{
layerId = "924B7471-43FB-4CAD-AF7E-45215B64D997";
paths = (
{
closed = 1;
nodes = (
"139 690 LINE",
"139 183 LINE SMOOTH",
"139 158 OFFCURVE",
"120 148 OFFCURVE",
"80 148 CURVE SMOOTH",
"33 148 LINE",
"10 12 LINE",
"44 -6 OFFCURVE",
"127 -14 OFFCURVE",
"171 -14 CURVE SMOOTH",
"284 -14 OFFCURVE",
"354 37 OFFCURVE",
"354 127 CURVE SMOOTH",
"354 690 LINE"
);
}
);
width = 404;
},
{
layerId = "77EC9CE6-E33A-4866-9665-0506F15B57B2";
paths = (
{
closed = 1;
nodes = (
"157 690 LINE",
"157 151 LINE SMOOTH",
"157 108 OFFCURVE",
"134 85 OFFCURVE",
"86 85 CURVE SMOOTH",
"39 85 LINE",
"27 5 LINE",
"51 -4 OFFCURVE",
"101 -10 OFFCURVE",
"130 -10 CURVE SMOOTH",
"218 -10 OFFCURVE",
"268 48 OFFCURVE",
"268 156 CURVE SMOOTH",
"268 690 LINE"
);
}
);
width = 346;
}
);
leftKerningGroup = J;
rightKerningGroup = IJ;
unicode = 004A;
},
{
glyphname = K;
lastChange = "2014-10-16 13:20:11 +0000";
layers = (
{
anchors = (
{
name = bottom;
position = "{285, 0}";
},
{
name = top;
position = "{285, 690}";
}
);
guideLines = (
{
angle = 270;
position = "{528, 359}";
}
);
layerId = "E21536AE-9819-4FE7-8A20-8865FE3C0515";
paths = (
{
closed = 1;
nodes = (
"482 690 LINE",
"231 360 LINE",
"499 0 LINE",
"529 0 LINE",
"281 336 LINE SMOOTH",
"273 346 OFFCURVE",
"264 354 OFFCURVE",
"259 359 CURVE",
"259 361 LINE",
"264 365 OFFCURVE",
"273 374 OFFCURVE",
"281 385 CURVE SMOOTH",
"512 690 LINE"
);
},
{
closed = 1;
nodes = (
"103 690 LINE",
"103 0 LINE",
"127 0 LINE",
"127 263 LINE",
"127 296 OFFCURVE",
"127 325 OFFCURVE",
"124 361 CURVE",
"126 396 OFFCURVE",
"127 419 OFFCURVE",
"127 454 CURVE SMOOTH",
"127 690 LINE"
);
},
{
closed = 1;
nodes = (
"112 371 LINE",
"112 349 LINE",
"257 349 LINE",
"257 371 LINE"
);
}
);
width = 562;
},
{
layerId = "924B7471-43FB-4CAD-AF7E-45215B64D997";
paths = (
{
closed = 1;
nodes = (
"442 690 LINE",
"261 361 LINE",
"444 0 LINE",
"685 0 LINE",
"524 287 LINE SMOOTH",
"508 317 OFFCURVE",
"474 347 OFFCURVE",
"455 355 CURVE",
"455 359 LINE",
"474 367 OFFCURVE",
"499 389 OFFCURVE",
"516 420 CURVE SMOOTH",
"675 690 LINE"
);
},
{
closed = 1;
nodes = (
"53 690 LINE",
"53 0 LINE",
"270 0 LINE",
"270 225 LINE SMOOTH",
"270 265 OFFCURVE",
"255 319 OFFCURVE",
"239 362 CURVE",
"260 408 OFFCURVE",
"270 465 OFFCURVE",
"270 516 CURVE SMOOTH",
"270 690 LINE"
);
},
{
closed = 1;
nodes = (
"208 428 LINE",
"208 288 LINE",
"324 288 LINE",
"324 428 LINE"
);
}
);
width = 676;
},
{
layerId = "77EC9CE6-E33A-4866-9665-0506F15B57B2";
paths = (
{
closed = 1;
nodes = (
"454 690 LINE",
"227 361 LINE",
"464 0 LINE",
"588 0 LINE",
"392 300 LINE SMOOTH",
"380 319 OFFCURVE",
"363 338 OFFCURVE",
"341 357 CURVE",
"341 360 LINE",
"362 380 OFFCURVE",
"372 391 OFFCURVE",
"385 411 CURVE SMOOTH",
"575 690 LINE"
);
},
{
closed = 1;
nodes = (
"81 690 LINE",
"81 0 LINE",
"192 0 LINE",
"192 246 LINE SMOOTH",
"192 282 OFFCURVE",
"185 322 OFFCURVE",
"176 361 CURVE",
"187 401 OFFCURVE",
"192 440 OFFCURVE",
"192 482 CURVE SMOOTH",
"192 690 LINE"
);
},
{
closed = 1;
nodes = (
"155 404 LINE",
"155 315 LINE",
"283 315 LINE",
"283 404 LINE"
);
}
);
width = 602;
}
);
leftKerningGroup = B;
rightKerningGroup = K;
unicode = 004B;
},
{
glyphname = L;
lastChange = "2014-10-16 13:20:11 +0000";
layers = (
{
anchors = (
{
name = top;
position = "{113, 740}";
}
);
layerId = "E21536AE-9819-4FE7-8A20-8865FE3C0515";
paths = (
{
closed = 1;
nodes = (
"100 690 LINE",
"100 102 LINE SMOOTH",
"100 43 OFFCURVE",
"143 0 OFFCURVE",
"202 0 CURVE SMOOTH",
"294 0 OFFCURVE",
"387 0 OFFCURVE",
"479 4 CURVE",
"479 22 LINE",
"207 22 LINE SMOOTH",
"159 22 OFFCURVE",
"125 56 OFFCURVE",
"125 104 CURVE SMOOTH",
"125 690 LINE"
);
}
);
width = 507;
},
{
anchors = (
{
name = top;
position = "{164, 735}";
}
);
background = {
paths = (
{
closed = 1;
nodes = (
"107 694 OFFCURVE",
"43 630 OFFCURVE",
"43 537 CURVE SMOOTH",
"43 153 LINE SMOOTH",
"43 60 OFFCURVE",
"107 -4 OFFCURVE",
"196 -4 CURVE SMOOTH",
"310 -4 OFFCURVE",
"445 -4 OFFCURVE",
"539 9 CURVE",
"529 162 LINE",
"297 162 LINE SMOOTH",
"276 162 OFFCURVE",
"261 177 OFFCURVE",
"261 198 CURVE SMOOTH",
"261 492 LINE SMOOTH",
"261 513 OFFCURVE",
"276 528 OFFCURVE",
"297 528 CURVE SMOOTH",
"529 528 LINE",
"539 681 LINE",
"445 694 OFFCURVE",
"310 694 OFFCURVE",
"196 694 CURVE SMOOTH"
);
},
{
closed = 1;
nodes = (
"60 280 LINE",
"496 290 LINE",
"496 416 LINE",
"60 426 LINE"
);
}
);
};
layerId = "924B7471-43FB-4CAD-AF7E-45215B64D997";
paths = (
{
closed = 1;
nodes = (
"50 690 LINE",
"50 153 LINE SMOOTH",
"50 60 OFFCURVE",
"114 -4 OFFCURVE",
"214 -4 CURVE SMOOTH",
"327 -4 OFFCURVE",
"448 -4 OFFCURVE",
"551 10 CURVE",
"541 172 LINE",
"309 172 LINE SMOOTH",
"283 172 OFFCURVE",
"267 187 OFFCURVE",
"267 208 CURVE SMOOTH",
"267 690 LINE"
);
}
);
width = 557;
},
{
anchors = (
{
name = top;
position = "{137, 732}";
}
);
layerId = "77EC9CE6-E33A-4866-9665-0506F15B57B2";
paths = (
{
closed = 1;
nodes = (
"79 690 LINE",
"79 139 LINE SMOOTH",
"79 58 OFFCURVE",
"115 -2 OFFCURVE",
"233 -2 CURVE SMOOTH",
"322 -2 OFFCURVE",
"412 -1 OFFCURVE",
"497 7 CURVE",
"492 93 LINE",
"251 93 LINE SMOOTH",
"205 93 OFFCURVE",
"190 108 OFFCURVE",
"190 154 CURVE SMOOTH",
"190 690 LINE"
);
}
);
width = 516;
}
);
leftKerningGroup = L;
rightKerningGroup = L;
unicode = 004C;
},
{
glyphname = Lslash;
lastChange = "2014-10-16 13:20:11 +0000";
layers = (
{
components = (
{
name = L;
transform = "{1, 0, 0, 1, 4, 0}";
}
);
layerId = "E21536AE-9819-4FE7-8A20-8865FE3C0515";
paths = (
{
closed = 1;
nodes = (
"27 344 LINE",
"27 323 LINE",
"258 425 LINE",
"258 446 LINE"
);
}
);
width = 511;
},
{
components = (
{
name = L;
}
);
layerId = "924B7471-43FB-4CAD-AF7E-45215B64D997";
paths = (
{
closed = 1;
nodes = (
"7 373 LINE",
"7 269 LINE",
"371 409 LINE",
"371 513 LINE"
);
}
);
width = 557;
},
{
components = (
{
name = L;
transform = "{1, 0, 0, 1, 7, 0}";
}
);
layerId = "77EC9CE6-E33A-4866-9665-0506F15B57B2";
paths = (
{
closed = 1;
nodes = (
"18 366 LINE",
"18 299 LINE",
"308 418 LINE",
"308 485 LINE"
);
}
);
width = 523;
}
);
leftKerningGroup = L;
rightKerningGroup = L;
unicode = 0141;
},
{
glyphname = M;
lastChange = "2014-10-16 13:20:11 +0000";
layers = (
{
layerId = "E21536AE-9819-4FE7-8A20-8865FE3C0515";
paths = (
{
closed = 1;
nodes = (
"679 690 LINE SMOOTH",
"673 690 OFFCURVE",
"668 687 OFFCURVE",
"666 681 CURVE",
"476 178 LINE SMOOTH",
"464 146 OFFCURVE",
"452 114 OFFCURVE",
"440 82 CURVE",
"414 82 LINE",
"402 113 OFFCURVE",
"391 145 OFFCURVE",
"379 176 CURVE SMOOTH",
"188 681 LINE",
"186 687 OFFCURVE",
"181 690 OFFCURVE",
"175 690 CURVE SMOOTH",
"133 690 LINE SMOOTH",
"124 690 OFFCURVE",
"118 684 OFFCURVE",
"118 675 CURVE SMOOTH",
"88 0 LINE",
"113 0 LINE",
"143 668 LINE",
"167 668 LINE",
"393 69 LINE SMOOTH",
"395 63 OFFCURVE",
"400 60 OFFCURVE",
"406 60 CURVE SMOOTH",
"448 60 LINE SMOOTH",
"454 60 OFFCURVE",
"459 63 OFFCURVE",
"461 69 CURVE SMOOTH",
"687 668 LINE",
"711 668 LINE",
"741 0 LINE",
"766 0 LINE",
"736 675 LINE SMOOTH",
"736 684 OFFCURVE",
"730 690 OFFCURVE",
"721 690 CURVE SMOOTH"
);
}
);
width = 854;
},
{
guideLines = (
{
position = "{348, 437}";
}
);
layerId = "924B7471-43FB-4CAD-AF7E-45215B64D997";
paths = (
{
closed = 1;
nodes = (
"621 690 LINE SMOOTH",
"575 690 OFFCURVE",
"546 668 OFFCURVE",
"538 623 CURVE SMOOTH",
"491 349 LINE SMOOTH",
"486 315 OFFCURVE",
"483 280 OFFCURVE",
"479 246 CURVE",
"470 246 LINE",
"467 280 OFFCURVE",
"464 315 OFFCURVE",
"459 349 CURVE SMOOTH",
"409 623 LINE SMOOTH",
"401 668 OFFCURVE",
"372 690 OFFCURVE",
"327 690 CURVE SMOOTH",
"140 690 LINE SMOOTH",
"90 690 OFFCURVE",
"66 664 OFFCURVE",
"64 615 CURVE SMOOTH",
"40 0 LINE",
"235 0 LINE",
"252 528 LINE",
"267 528 LINE",
"336 176 LINE SMOOTH",
"344 132 OFFCURVE",
"373 110 OFFCURVE",
"419 110 CURVE SMOOTH",
"531 110 LINE SMOOTH",
"577 110 OFFCURVE",
"606 132 OFFCURVE",
"613 176 CURVE SMOOTH",
"681 528 LINE",
"696 528 LINE",
"717 0 LINE",
"912 0 LINE",
"888 615 LINE SMOOTH",
"886 664 OFFCURVE",
"862 690 OFFCURVE",
"812 690 CURVE SMOOTH"
);
}
);
width = 952;
},
{
associatedMasterId = "E21536AE-9819-4FE7-8A20-8865FE3C0515";
layerId = "C3E98198-7922-4914-BFCF-75057255BF04";
name = "Light May 2 13, 21:35";
paths = (
{
closed = 1;
nodes = (
"658 690 LINE",
"429 82 LINE",
"403 82 LINE",
"174 690 LINE",
"107 690 LINE",
"107 0 LINE",
"132 0 LINE",
"132 668 LINE",
"156 668 LINE",
"385 60 LINE",
"447 60 LINE",
"676 668 LINE",
"700 668 LINE",
"700 0 LINE",
"725 0 LINE",
"725 690 LINE"
);
}
);
width = 832;
},
{
associatedMasterId = "924B7471-43FB-4CAD-AF7E-45215B64D997";
guideLines = (
{
position = "{325, 393}";
}
);
layerId = "36147422-56F6-464E-B299-FFE7F09CDFD6";
name = "Bold May 2 13, 22:06";
paths = (
{
closed = 1;
nodes = (
"580 690 LINE SMOOTH",
"541 690 OFFCURVE",
"510 664 OFFCURVE",
"504 624 CURVE SMOOTH",
"468 395 LINE SMOOTH",
"464 369 OFFCURVE",
"457 308 OFFCURVE",
"453 259 CURVE",
"439 259 LINE",
"433 307 OFFCURVE",
"428 370 OFFCURVE",
"424 395 CURVE SMOOTH",
"388 624 LINE SMOOTH",
"382 664 OFFCURVE",
"351 690 OFFCURVE",
"312 690 CURVE SMOOTH",
"130 690 LINE SMOOTH",
"82 690 OFFCURVE",
"48 656 OFFCURVE",
"48 608 CURVE SMOOTH",
"48 0 LINE",
"246 0 LINE",
"246 395 LINE SMOOTH",
"246 432 OFFCURVE",
"240 474 OFFCURVE",
"236 508 CURVE",
"254 508 LINE",
"313 164 LINE SMOOTH",
"320 125 OFFCURVE",
"350 100 OFFCURVE",
"389 100 CURVE SMOOTH",
"503 100 LINE SMOOTH",
"542 100 OFFCURVE",
"573 125 OFFCURVE",
"580 164 CURVE SMOOTH",
"639 508 LINE",
"657 508 LINE",
"653 474 OFFCURVE",
"647 432 OFFCURVE",
"647 393 CURVE SMOOTH",
"647 0 LINE",
"844 0 LINE",
"844 608 LINE SMOOTH",
"844 656 OFFCURVE",
"810 690 OFFCURVE",
"762 690 CURVE SMOOTH"
);
}
);
width = 892;
},
{
associatedMasterId = "924B7471-43FB-4CAD-AF7E-45215B64D997";
guideLines = (
{
position = "{336, 437}";
}
);
layerId = "F95D8720-C212-4334-9C20-D346B4790BA5";
name = "Bold May 2 13, 22:40";
paths = (
{
closed = 1;
nodes = (
"590 690 LINE SMOOTH",
"544 690 OFFCURVE",
"517 668 OFFCURVE",
"508 623 CURVE SMOOTH",
"455 336 LINE",
"447 336 LINE",
"392 623 LINE SMOOTH",
"383 668 OFFCURVE",
"356 690 OFFCURVE",
"311 690 CURVE SMOOTH",
"128 690 LINE SMOOTH",
"79 690 OFFCURVE",
"53 664 OFFCURVE",
"53 615 CURVE SMOOTH",
"53 0 LINE",
"251 0 LINE",
"251 528 LINE",
"257 528 LINE",
"323 226 LINE SMOOTH",
"333 182 OFFCURVE",
"360 160 OFFCURVE",
"406 160 CURVE SMOOTH",
"495 160 LINE SMOOTH",
"541 160 OFFCURVE",
"568 182 OFFCURVE",
"577 226 CURVE SMOOTH",
"642 528 LINE",
"648 528 LINE",
"652 0 LINE",
"850 0 LINE",
"850 615 LINE SMOOTH",
"850 664 OFFCURVE",
"824 690 OFFCURVE",
"775 690 CURVE SMOOTH"
);
}
);
width = 902;
},
{
guideLines = (
{
position = "{349, 437}";
}
);
layerId = "77EC9CE6-E33A-4866-9665-0506F15B57B2";
paths = (
{
closed = 1;
nodes = (
"626 690 LINE SMOOTH",
"600 690 OFFCURVE",
"585 677 OFFCURVE",
"578 652 CURVE SMOOTH",
"472 264 LINE SMOOTH",
"463 231 OFFCURVE",
"457 202 OFFCURVE",
"450 170 CURVE",
"434 170 LINE",
"427 202 OFFCURVE",
"421 231 OFFCURVE",
"412 263 CURVE SMOOTH",
"306 652 LINE SMOOTH",
"299 677 OFFCURVE",
"285 690 OFFCURVE",
"260 690 CURVE SMOOTH",
"139 690 LINE SMOOTH",
"110 690 OFFCURVE",
"95 674 OFFCURVE",
"94 645 CURVE SMOOTH",
"68 0 LINE",
"179 0 LINE",
"201 598 LINE",
"219 598 LINE",
"347 123 LINE SMOOTH",
"354 98 OFFCURVE",
"370 85 OFFCURVE",
"396 85 CURVE SMOOTH",
"489 85 LINE SMOOTH",
"515 85 OFFCURVE",
"530 98 OFFCURVE",
"537 123 CURVE SMOOTH",
"664 598 LINE",
"683 598 LINE",
"707 0 LINE",
"818 0 LINE",
"790 645 LINE SMOOTH",
"789 674 OFFCURVE",
"774 690 OFFCURVE",
"745 690 CURVE SMOOTH"
);
}
);
width = 885;
}
);
leftKerningGroup = M;
rightKerningGroup = M;
unicode = 004D;
},
{
glyphname = N;
lastChange = "2014-10-16 13:20:11 +0000";
layers = (
{
anchors = (
{
name = bottom;
position = "{344, 0}";
},
{
name = top;
position = "{358, 740}";
}
);
layerId = "E21536AE-9819-4FE7-8A20-8865FE3C0515";
paths = (
{
closed = 1;
nodes = (
"560 690 LINE",
"560 112 LINE",
"560 82 OFFCURVE",
"560 52 OFFCURVE",
"560 22 CURVE",
"532 22 LINE",
"517 49 OFFCURVE",
"503 76 OFFCURVE",
"488 103 CURVE",
"175 679 LINE SMOOTH",
"171 687 OFFCURVE",
"165 690 OFFCURVE",
"157 690 CURVE SMOOTH",
"118 690 LINE SMOOTH",
"108 690 OFFCURVE",
"103 685 OFFCURVE",
"103 675 CURVE SMOOTH",
"103 0 LINE",
"128 0 LINE",
"128 599 LINE",
"128 622 OFFCURVE",
"128 645 OFFCURVE",
"128 668 CURVE",
"153 668 LINE",
"165 645 OFFCURVE",
"178 623 OFFCURVE",
"190 600 CURVE",
"510 11 LINE SMOOTH",
"514 3 OFFCURVE",
"520 0 OFFCURVE",
"528 0 CURVE SMOOTH",
"570 0 LINE SMOOTH",
"580 0 OFFCURVE",
"585 5 OFFCURVE",
"585 15 CURVE SMOOTH",
"585 690 LINE"
);
}
);
width = 688;
},
{
associatedMasterId = "924B7471-43FB-4CAD-AF7E-45215B64D997";
layerId = "DB171904-BAD1-4A31-B3F5-93A52DCF5D7D";
name = "Bold May 2 13, 22:48";
paths = (
{
closed = 1;
nodes = (
"479 690 LINE",
"480 288 LINE",
"474 288 LINE",
"463 326 OFFCURVE",
"440 370 OFFCURVE",
"431 401 CURVE SMOOTH",
"361 627 LINE SMOOTH",
"347 674 OFFCURVE",
"322 690 OFFCURVE",
"277 690 CURVE SMOOTH",
"128 690 LINE SMOOTH",
"79 690 OFFCURVE",
"53 664 OFFCURVE",
"53 615 CURVE SMOOTH",
"53 0 LINE",
"257 0 LINE",
"257 402 LINE",
"263 402 LINE",
"274 361 OFFCURVE",
"291 325 OFFCURVE",
"299 300 CURVE SMOOTH",
"372 63 LINE SMOOTH",
"386 17 OFFCURVE",
"411 0 OFFCURVE",
"456 0 CURVE SMOOTH",
"608 0 LINE SMOOTH",
"657 0 OFFCURVE",
"683 26 OFFCURVE",
"683 75 CURVE SMOOTH",
"683 690 LINE"
);
}
);
width = 736;
},
{
anchors = (
{
name = top;
position = "{377, 735}";
}
);
layerId = "924B7471-43FB-4CAD-AF7E-45215B64D997";
paths = (
{
closed = 1;
nodes = (
"488 690 LINE",
"489 408 LINE SMOOTH",
"489 366 OFFCURVE",
"493 325 OFFCURVE",
"498 283 CURVE",
"491 283 LINE",
"475 327 OFFCURVE",
"457 368 OFFCURVE",
"438 401 CURVE SMOOTH",
"294 627 LINE SMOOTH",
"270 668 OFFCURVE",
"255 690 OFFCURVE",
"210 690 CURVE SMOOTH",
"127 690 LINE SMOOTH",
"78 690 OFFCURVE",
"52 664 OFFCURVE",
"52 615 CURVE SMOOTH",
"52 0 LINE",
"252 0 LINE",
"252 292 LINE SMOOTH",
"252 332 OFFCURVE",
"248 376 OFFCURVE",
"242 418 CURVE",
"249 418 LINE",
"261 376 OFFCURVE",
"276 334 OFFCURVE",
"295 300 CURVE SMOOTH",
"445 63 LINE SMOOTH",
"468 22 OFFCURVE",
"484 0 OFFCURVE",
"529 0 CURVE SMOOTH",
"612 0 LINE SMOOTH",
"661 0 OFFCURVE",
"687 26 OFFCURVE",
"687 75 CURVE SMOOTH",
"687 690 LINE"
);
}
);
width = 738;
},
{
associatedMasterId = "924B7471-43FB-4CAD-AF7E-45215B64D997";
layerId = "C488EA76-6F66-483C-AA76-D07CAEAF6A60";
name = "Bold May 2 13, 22:48";
paths = (
{
closed = 1;
nodes = (
"479 690 LINE",
"480 288 LINE",
"474 288 LINE",
"463 326 OFFCURVE",
"446 373 OFFCURVE",
"431 401 CURVE SMOOTH",
"311 627 LINE SMOOTH",
"289 669 OFFCURVE",
"272 690 OFFCURVE",
"227 690 CURVE SMOOTH",
"128 690 LINE SMOOTH",
"79 690 OFFCURVE",
"53 664 OFFCURVE",
"53 615 CURVE SMOOTH",
"53 0 LINE",
"257 0 LINE",
"257 402 LINE",
"263 402 LINE",
"274 361 OFFCURVE",
"287 324 OFFCURVE",
"299 300 CURVE SMOOTH",
"422 63 LINE SMOOTH",
"444 21 OFFCURVE",
"461 0 OFFCURVE",
"506 0 CURVE SMOOTH",
"608 0 LINE SMOOTH",
"657 0 OFFCURVE",
"683 26 OFFCURVE",
"683 75 CURVE SMOOTH",
"683 690 LINE"
);
}
);
width = 736;
},
{
anchors = (
{
name = top;
position = "{362, 732}";
}
);
layerId = "77EC9CE6-E33A-4866-9665-0506F15B57B2";
paths = (
{
closed = 1;
nodes = (
"520 690 LINE",
"520 219 LINE SMOOTH",
"520 182 OFFCURVE",
"522 146 OFFCURVE",
"525 109 CURVE",
"512 109 LINE",
"497 145 OFFCURVE",
"477 187 OFFCURVE",
"464 216 CURVE SMOOTH",
"270 656 LINE SMOOTH",
"260 679 OFFCURVE",
"247 690 OFFCURVE",
"223 690 CURVE SMOOTH",
"123 690 LINE SMOOTH",
"96 690 OFFCURVE",
"81 676 OFFCURVE",
"81 648 CURVE SMOOTH",
"81 0 LINE",
"192 0 LINE",
"192 486 LINE SMOOTH",
"192 519 OFFCURVE",
"191 553 OFFCURVE",
"187 586 CURVE",
"199 586 LINE",
"206 556 OFFCURVE",
"228 513 OFFCURVE",
"240 486 CURVE SMOOTH",
"440 34 LINE SMOOTH",
"450 11 OFFCURVE",
"463 0 OFFCURVE",
"487 0 CURVE SMOOTH",
"589 0 LINE SMOOTH",
"616 0 OFFCURVE",
"630 14 OFFCURVE",
"630 42 CURVE SMOOTH",
"630 690 LINE"
);
}
);
width = 711;
}
);
leftKerningGroup = N;
rightKerningGroup = N;
unicode = 004E;
},
{
glyphname = Eng;
lastChange = "2014-10-16 13:20:11 +0000";
layers = (
{
layerId = "E21536AE-9819-4FE7-8A20-8865FE3C0515";
paths = (
{
closed = 1;
nodes = (
"560 690 LINE",
"560 112 LINE SMOOTH",
"560 82 OFFCURVE",
"560 52 OFFCURVE",
"560 22 CURVE",
"532 22 LINE",
"517 49 OFFCURVE",
"503 76 OFFCURVE",
"488 103 CURVE SMOOTH",
"175 679 LINE SMOOTH",
"171 687 OFFCURVE",
"165 690 OFFCURVE",
"157 690 CURVE SMOOTH",
"118 690 LINE SMOOTH",
"108 690 OFFCURVE",
"103 685 OFFCURVE",
"103 675 CURVE SMOOTH",
"103 0 LINE",
"128 0 LINE",
"128 598 LINE SMOOTH",
"128 621 OFFCURVE",
"128 645 OFFCURVE",
"128 668 CURVE",
"153 668 LINE",
"165 645 OFFCURVE",
"178 623 OFFCURVE",
"190 600 CURVE SMOOTH",
"510 11 LINE SMOOTH",
"514 3 OFFCURVE",
"520 0 OFFCURVE",
"528 0 CURVE SMOOTH",
"560 0 LINE",
"560 -100 LINE SMOOTH",
"560 -167 OFFCURVE",
"527 -200 OFFCURVE",
"460 -200 CURVE SMOOTH",
"402 -200 LINE",
"399 -216 LINE",
"417 -219 OFFCURVE",
"445 -222 OFFCURVE",
"463 -222 CURVE SMOOTH",
"545 -223 OFFCURVE",
"585 -181 OFFCURVE",
"585 -101 CURVE SMOOTH",
"585 690 LINE"
);
}
);
width = 688;
},
{
background = {
paths = (
{
closed = 1;
nodes = (
"464 690 LINE",
"465 283 LINE",
"460 283 LINE",
"450 331 OFFCURVE",
"437 368 OFFCURVE",
"418 401 CURVE SMOOTH",
"288 627 LINE SMOOTH",
"264 668 OFFCURVE",
"249 690 OFFCURVE",
"204 690 CURVE SMOOTH",
"128 690 LINE SMOOTH",
"79 690 OFFCURVE",
"53 664 OFFCURVE",
"53 615 CURVE SMOOTH",
"53 0 LINE",
"252 0 LINE",
"252 418 LINE",
"258 418 LINE",
"264 378 OFFCURVE",
"275 332 OFFCURVE",
"293 300 CURVE SMOOTH",
"428 63 LINE SMOOTH",
"452 22 OFFCURVE",
"467 0 OFFCURVE",
"512 0 CURVE SMOOTH",
"588 0 LINE SMOOTH",
"637 0 OFFCURVE",
"663 26 OFFCURVE",
"663 75 CURVE SMOOTH",
"663 690 LINE"
);
}
);
};
layerId = "924B7471-43FB-4CAD-AF7E-45215B64D997";
paths = (
{
closed = 1;
nodes = (
"487 690 LINE",
"487 406 LINE SMOOTH",
"487 365 OFFCURVE",
"491 324 OFFCURVE",
"497 283 CURVE",
"490 283 LINE",
"474 331 OFFCURVE",
"454 374 OFFCURVE",
"438 401 CURVE SMOOTH",
"294 627 LINE SMOOTH",
"271 668 OFFCURVE",
"254 690 OFFCURVE",
"209 690 CURVE SMOOTH",
"127 690 LINE SMOOTH",
"78 690 OFFCURVE",
"52 664 OFFCURVE",
"52 615 CURVE SMOOTH",
"52 0 LINE",
"251 0 LINE",
"251 302 LINE SMOOTH",
"251 341 OFFCURVE",
"247 379 OFFCURVE",
"242 418 CURVE",
"248 418 LINE",
"261 378 OFFCURVE",
"275 334 OFFCURVE",
"295 300 CURVE SMOOTH",
"450 63 LINE SMOOTH",
"466 36 OFFCURVE",
"485 9 OFFCURVE",
"495 9 CURVE SMOOTH",
"500 9 LINE",
"500 -15 LINE SMOOTH",
"500 -34 OFFCURVE",
"484 -42 OFFCURVE",
"457 -42 CURVE SMOOTH",
"421 -42 LINE",
"398 -178 LINE",
"438 -196 OFFCURVE",
"503 -204 OFFCURVE",
"542 -204 CURVE SMOOTH",
"629 -204 OFFCURVE",
"687 -141 OFFCURVE",
"687 -33 CURVE SMOOTH",
"687 690 LINE"
);
}
);
width = 740;
},
{
background = {
paths = (
{
closed = 1;
nodes = (
"520 690 LINE",
"520 129 LINE",
"507 129 LINE",
"495 165 OFFCURVE",
"479 207 OFFCURVE",
"464 236 CURVE SMOOTH",
"250 656 LINE SMOOTH",
"238 679 OFFCURVE",
"227 690 OFFCURVE",
"203 690 CURVE SMOOTH",
"123 690 LINE SMOOTH",
"96 690 OFFCURVE",
"81 676 OFFCURVE",
"81 648 CURVE SMOOTH",
"81 0 LINE",
"192 0 LINE",
"192 566 LINE",
"204 566 LINE",
"211 536 OFFCURVE",
"226 493 OFFCURVE",
"240 466 CURVE SMOOTH",
"460 34 LINE SMOOTH",
"472 11 OFFCURVE",
"483 0 OFFCURVE",
"507 0 CURVE SMOOTH",
"589 0 LINE SMOOTH",
"616 0 OFFCURVE",
"630 14 OFFCURVE",
"630 42 CURVE SMOOTH",
"630 690 LINE"
);
}
);
};
layerId = "77EC9CE6-E33A-4866-9665-0506F15B57B2";
paths = (
{
closed = 1;
nodes = (
"519 690 LINE",
"519 236 LINE SMOOTH",
"519 200 OFFCURVE",
"521 165 OFFCURVE",
"524 129 CURVE",
"511 129 LINE",
"496 165 OFFCURVE",
"477 209 OFFCURVE",
"463 236 CURVE SMOOTH",
"249 656 LINE SMOOTH",
"237 679 OFFCURVE",
"226 690 OFFCURVE",
"201 690 CURVE SMOOTH",
"123 690 LINE SMOOTH",
"95 690 OFFCURVE",
"81 676 OFFCURVE",
"81 648 CURVE SMOOTH",
"81 0 LINE",
"192 0 LINE",
"192 465 LINE SMOOTH",
"192 499 OFFCURVE",
"192 532 OFFCURVE",
"187 566 CURVE",
"197 566 LINE",
"209 534 OFFCURVE",
"226 491 OFFCURVE",
"239 466 CURVE SMOOTH",
"460 30 LINE SMOOTH",
"468 15 OFFCURVE",
"476 0 OFFCURVE",
"490 0 CURVE SMOOTH",
"526 0 LINE",
"526 -62 LINE SMOOTH",
"526 -108 OFFCURVE",
"501 -129 OFFCURVE",
"451 -129 CURVE SMOOTH",
"405 -129 LINE",
"393 -199 LINE",
"420 -209 OFFCURVE",
"464 -214 OFFCURVE",
"491 -214 CURVE SMOOTH",
"574 -215 OFFCURVE",
"630 -163 OFFCURVE",
"630 -71 CURVE SMOOTH",
"630 690 LINE"
);
}
);
width = 711;
}
);
leftKerningGroup = N;
rightKerningGroup = N;
unicode = 014A;
},
{
glyphname = O;
lastChange = "2014-10-16 13:20:11 +0000";
layers = (
{
anchors = (
{
name = top;
position = "{332, 740}";
}
);
layerId = "E21536AE-9819-4FE7-8A20-8865FE3C0515";
paths = (
{
closed = 1;
nodes = (
"142 702 OFFCURVE",
"76 608 OFFCURVE",
"76 345 CURVE SMOOTH",
"76 82 OFFCURVE",
"142 -12 OFFCURVE",
"331 -12 CURVE SMOOTH",
"520 -12 OFFCURVE",
"586 82 OFFCURVE",
"586 345 CURVE SMOOTH",
"586 608 OFFCURVE",
"520 702 OFFCURVE",
"331 702 CURVE SMOOTH"
);
},
{
closed = 1;
nodes = (
"501 679 OFFCURVE",
"560 593 OFFCURVE",
"560 345 CURVE SMOOTH",
"560 97 OFFCURVE",
"501 11 OFFCURVE",
"331 11 CURVE SMOOTH",
"161 11 OFFCURVE",
"102 97 OFFCURVE",
"102 345 CURVE SMOOTH",
"102 593 OFFCURVE",
"161 679 OFFCURVE",
"331 679 CURVE SMOOTH"
);
}
);
width = 662;
},
{
anchors = (
{
name = top;
position = "{353, 735}";
}
);
layerId = "924B7471-43FB-4CAD-AF7E-45215B64D997";
paths = (
{
closed = 1;
nodes = (
"117 704 OFFCURVE",
"32 629 OFFCURVE",
"32 345 CURVE SMOOTH",
"32 61 OFFCURVE",
"117 -14 OFFCURVE",
"353 -14 CURVE SMOOTH",
"590 -14 OFFCURVE",
"675 61 OFFCURVE",
"675 345 CURVE SMOOTH",
"675 629 OFFCURVE",
"590 704 OFFCURVE",
"353 704 CURVE SMOOTH"
);
},
{
closed = 1;
nodes = (
"427 543 OFFCURVE",
"446 505 OFFCURVE",
"446 345 CURVE SMOOTH",
"446 185 OFFCURVE",
"427 147 OFFCURVE",
"353 147 CURVE SMOOTH",
"279 147 OFFCURVE",
"260 185 OFFCURVE",
"260 345 CURVE SMOOTH",
"260 505 OFFCURVE",
"279 543 OFFCURVE",
"353 543 CURVE SMOOTH"
);
}
);
width = 707;
},
{
anchors = (
{
name = top;
position = "{334, 732}";
}
);
layerId = "77EC9CE6-E33A-4866-9665-0506F15B57B2";
paths = (
{
closed = 1;
nodes = (
"129 703 OFFCURVE",
"56 617 OFFCURVE",
"56 345 CURVE SMOOTH",
"56 73 OFFCURVE",
"129 -13 OFFCURVE",
"335 -13 CURVE SMOOTH",
"541 -13 OFFCURVE",
"614 73 OFFCURVE",
"614 345 CURVE SMOOTH",
"614 617 OFFCURVE",
"541 703 OFFCURVE",
"335 703 CURVE SMOOTH"
);
},
{
closed = 1;
nodes = (
"458 604 OFFCURVE",
"497 542 OFFCURVE",
"497 345 CURVE SMOOTH",
"497 148 OFFCURVE",
"458 86 OFFCURVE",
"335 86 CURVE SMOOTH",
"212 86 OFFCURVE",
"173 148 OFFCURVE",
"173 345 CURVE SMOOTH",
"173 542 OFFCURVE",
"212 604 OFFCURVE",
"335 604 CURVE SMOOTH"
);
}
);
width = 670;
}
);
leftKerningGroup = C;
rightKerningGroup = O;
unicode = 004F;
},
{
glyphname = Oslash;
lastChange = "2014-10-16 13:20:11 +0000";
layers = (
{
anchors = (
{
name = top;
position = "{300, 690}";
}
);
components = (
{
name = O;
}
);
layerId = "E21536AE-9819-4FE7-8A20-8865FE3C0515";
paths = (
{
closed = 1;
nodes = (
"128 -41 LINE",
"149 -51 LINE",
"516 731 LINE",
"495 741 LINE"
);
}
);
width = 662;
},
{
components = (
{
name = O;
}
);
layerId = "924B7471-43FB-4CAD-AF7E-45215B64D997";
paths = (
{
closed = 1;
nodes = (
"133 -44 LINE",
"191 -71 LINE",
"565 730 LINE",
"507 757 LINE"
);
}
);
width = 707;
},
{
components = (
{
name = O;
}
);
layerId = "77EC9CE6-E33A-4866-9665-0506F15B57B2";
paths = (
{
closed = 1;
nodes = (
"122 -37 LINE",
"177 -60 LINE",
"547 731 LINE",
"492 753 LINE"
);
}
);
width = 670;
},
{
associatedMasterId = "924B7471-43FB-4CAD-AF7E-45215B64D997";
components = (
{
name = O;
}
);
layerId = "5A8B318B-6261-44EA-B33A-008A4B28E7B1";
name = "Bold [144}";
paths = (
{
closed = 1;
nodes = (
"151 125 LINE",
"72 -41 LINE",
"233 -118 LINE",
"312 49 LINE"
);
},
{
closed = 1;
nodes = (
"566 586 LINE",
"632 730 LINE",
"471 806 LINE",
"405 662 LINE"
);
}
);
width = 707;
},
{
associatedMasterId = "77EC9CE6-E33A-4866-9665-0506F15B57B2";
components = (
{
name = O;
}
);
layerId = "D38B9EE3-3D4B-4115-8901-8456D4598A17";
name = "Regular [144}";
paths = (
{
closed = 1;
nodes = (
"169 105 LINE",
"90 -61 LINE",
"175 -104 LINE",
"254 63 LINE"
);
},
{
closed = 1;
nodes = (
"508 600 LINE",
"574 744 LINE",
"489 786 LINE",
"423 642 LINE"
);
}
);
width = 670;
}
);
leftKerningGroup = C;
rightKerningGroup = O;
unicode = 00D8;
},
{
glyphname = OE;
lastChange = "2014-10-16 13:20:11 +0000";
layers = (
{
guideLines = (
{
angle = -70;
position = "{320, 278}";
},
{
angle = 70;
position = "{314, 401}";
}
);
layerId = "E21536AE-9819-4FE7-8A20-8865FE3C0515";
paths = (
{
closed = 1;
nodes = (
"142 702 OFFCURVE",
"76 608 OFFCURVE",
"76 345 CURVE SMOOTH",
"76 82 OFFCURVE",
"142 -12 OFFCURVE",
"331 -12 CURVE SMOOTH",
"405 -12 OFFCURVE",
"442 -2 OFFCURVE",
"503 26 CURVE",
"493 46 LINE",
"434 21 OFFCURVE",
"402 11 OFFCURVE",
"331 11 CURVE SMOOTH",
"161 11 OFFCURVE",
"102 97 OFFCURVE",
"102 345 CURVE SMOOTH",
"102 596 OFFCURVE",
"161 679 OFFCURVE",
"331 679 CURVE SMOOTH",
"400 679 OFFCURVE",
"433 669 OFFCURVE",
"490 645 CURVE",
"498 666 LINE",
"436 693 OFFCURVE",
"402 702 OFFCURVE",
"331 702 CURVE SMOOTH"
);
},
{
closed = 1;
nodes = (
"498 690 OFFCURVE",
"455 647 OFFCURVE",
"455 588 CURVE SMOOTH",
"455 102 LINE SMOOTH",
"455 43 OFFCURVE",
"498 0 OFFCURVE",
"557 0 CURVE SMOOTH",
"649 0 OFFCURVE",
"739 0 OFFCURVE",
"831 4 CURVE",
"831 22 LINE",
"562 22 LINE SMOOTH",
"514 22 OFFCURVE",
"480 56 OFFCURVE",
"480 104 CURVE SMOOTH",
"480 586 LINE SMOOTH",
"480 634 OFFCURVE",
"514 668 OFFCURVE",
"562 668 CURVE SMOOTH",
"831 668 LINE",
"831 686 LINE",
"739 690 OFFCURVE",
"649 690 OFFCURVE",
"557 690 CURVE SMOOTH"
);
},
{
closed = 1;
nodes = (
"472 359 LINE",
"788 360 LINE",
"788 380 LINE",
"472 381 LINE"
);
}
);
width = 889;
},
{
guideLines = (
{
angle = -70;
position = "{371, 278}";
},
{
angle = 70;
position = "{365, 401}";
}
);
layerId = "924B7471-43FB-4CAD-AF7E-45215B64D997";
paths = (
{
closed = 1;
nodes = (
"117 704 OFFCURVE",
"33 629 OFFCURVE",
"33 345 CURVE SMOOTH",
"33 61 OFFCURVE",
"117 -14 OFFCURVE",
"349 -14 CURVE SMOOTH",
"423 -14 OFFCURVE",
"483 -1 OFFCURVE",
"537 29 CURVE",
"462 164 LINE",
"438 152 OFFCURVE",
"404 147 OFFCURVE",
"349 147 CURVE SMOOTH",
"279 147 OFFCURVE",
"262 185 OFFCURVE",
"262 345 CURVE SMOOTH",
"262 505 OFFCURVE",
"279 543 OFFCURVE",
"349 543 CURVE SMOOTH",
"401 543 OFFCURVE",
"435 539 OFFCURVE",
"459 530 CURVE",
"543 672 LINE",
"487 694 OFFCURVE",
"425 704 OFFCURVE",
"349 704 CURVE SMOOTH"
);
},
{
closed = 1;
nodes = (
"512 694 OFFCURVE",
"446 630 OFFCURVE",
"446 537 CURVE SMOOTH",
"446 153 LINE SMOOTH",
"446 60 OFFCURVE",
"511 -4 OFFCURVE",
"602 -4 CURVE SMOOTH",
"719 -4 OFFCURVE",
"857 -4 OFFCURVE",
"954 9 CURVE",
"944 162 LINE",
"703 162 LINE SMOOTH",
"679 162 OFFCURVE",
"664 177 OFFCURVE",
"664 198 CURVE SMOOTH",
"664 492 LINE SMOOTH",
"664 513 OFFCURVE",
"679 528 OFFCURVE",
"703 528 CURVE SMOOTH",
"944 528 LINE",
"954 681 LINE",
"857 694 OFFCURVE",
"720 694 OFFCURVE",
"603 694 CURVE SMOOTH"
);
},
{
closed = 1;
nodes = (
"463 286 LINE",
"910 286 LINE",
"910 420 LINE",
"463 420 LINE"
);
}
);
width = 982;
},
{
background = {
paths = (
{
closed = 1;
nodes = (
"495 692 OFFCURVE",
"440 644 OFFCURVE",
"440 565 CURVE SMOOTH",
"440 125 LINE SMOOTH",
"440 46 OFFCURVE",
"494 -2 OFFCURVE",
"584 -2 CURVE SMOOTH",
"683 -2 OFFCURVE",
"790 -2 OFFCURVE",
"881 6 CURVE",
"875 92 LINE",
"602 92 LINE SMOOTH",
"564 92 OFFCURVE",
"551 107 OFFCURVE",
"551 153 CURVE SMOOTH",
"551 536 LINE SMOOTH",
"551 582 OFFCURVE",
"564 597 OFFCURVE",
"602 597 CURVE SMOOTH",
"875 597 LINE",
"881 684 LINE",
"790 692 OFFCURVE",
"683 692 OFFCURVE",
"584 692 CURVE SMOOTH"
);
},
{
closed = 1;
nodes = (
"457 317 LINE",
"837 322 LINE",
"837 403 LINE",
"457 408 LINE"
);
}
);
};
guideLines = (
{
angle = -70;
position = "{375, 278}";
},
{
angle = 70;
position = "{369, 401}";
}
);
layerId = "77EC9CE6-E33A-4866-9665-0506F15B57B2";
paths = (
{
closed = 1;
nodes = (
"129 703 OFFCURVE",
"56 617 OFFCURVE",
"56 345 CURVE SMOOTH",
"56 73 OFFCURVE",
"129 -13 OFFCURVE",
"335 -13 CURVE SMOOTH",
"413 -13 OFFCURVE",
"454 -2 OFFCURVE",
"511 26 CURVE",
"472 105 LINE",
"429 93 OFFCURVE",
"403 86 OFFCURVE",
"335 86 CURVE SMOOTH",
"212 86 OFFCURVE",
"173 148 OFFCURVE",
"173 345 CURVE SMOOTH",
"173 544 OFFCURVE",
"212 604 OFFCURVE",
"335 604 CURVE SMOOTH",
"400 604 OFFCURVE",
"428 596 OFFCURVE",
"469 588 CURVE",
"511 670 LINE",
"453 693 OFFCURVE",
"412 703 OFFCURVE",
"335 703 CURVE SMOOTH"
);
},
{
closed = 1;
nodes = (
"501 692 OFFCURVE",
"444 635 OFFCURVE",
"444 551 CURVE SMOOTH",
"444 139 LINE SMOOTH",
"444 55 OFFCURVE",
"497 -2 OFFCURVE",
"569 -2 CURVE SMOOTH",
"671 -2 OFFCURVE",
"781 -2 OFFCURVE",
"874 6 CURVE",
"869 92 LINE",
"617 92 LINE SMOOTH",
"571 92 OFFCURVE",
"556 107 OFFCURVE",
"556 153 CURVE SMOOTH",
"556 536 LINE SMOOTH",
"556 582 OFFCURVE",
"571 597 OFFCURVE",
"617 597 CURVE SMOOTH",
"869 597 LINE",
"874 684 LINE",
"784 692 OFFCURVE",
"678 692 OFFCURVE",
"579 692 CURVE SMOOTH"
);
},
{
closed = 1;
nodes = (
"461 317 LINE",
"831 317 LINE",
"831 408 LINE",
"461 408 LINE"
);
}
);
width = 922;
}
);
leftKerningGroup = C;
leftMetricsKey = O;
rightKerningGroup = AE;
rightMetricsKey = E;
unicode = 0152;
},
{
glyphname = P;
lastChange = "2014-10-16 13:20:11 +0000";
layers = (
{
layerId = "E21536AE-9819-4FE7-8A20-8865FE3C0515";
paths = (
{
closed = 1;
nodes = (
"221 698 OFFCURVE",
"173 697 OFFCURVE",
"103 690 CURVE",
"117 672 LINE",
"144 674 OFFCURVE",
"223 675 OFFCURVE",
"324 675 CURVE SMOOTH",
"451 675 OFFCURVE",
"497 638 OFFCURVE",
"497 495 CURVE SMOOTH",
"497 352 OFFCURVE",
"451 317 OFFCURVE",
"324 315 CURVE SMOOTH",
"255 315 OFFCURVE",
"181 315 OFFCURVE",
"116 315 CURVE",
"113 297 LINE",
"135 295 OFFCURVE",
"218 292 OFFCURVE",
"324 292 CURVE SMOOTH",
"470 292 OFFCURVE",
"523 335 OFFCURVE",
"523 495 CURVE SMOOTH",
"523 653 OFFCURVE",
"470 698 OFFCURVE",
"324 698 CURVE SMOOTH"
);
},
{
closed = 1;
nodes = (
"103 690 LINE",
"103 0 LINE",
"128 0 LINE",
"128 690 LINE"
);
}
);
width = 581;
},
{
layerId = "924B7471-43FB-4CAD-AF7E-45215B64D997";
paths = (
{
closed = 1;
nodes = (
"206 700 OFFCURVE",
"144 699 OFFCURVE",
"52 690 CURVE",
"67 542 LINE",
"101 546 OFFCURVE",
"203 547 OFFCURVE",
"339 547 CURVE SMOOTH",
"398 547 OFFCURVE",
"413 531 OFFCURVE",
"413 465 CURVE SMOOTH",
"413 401 OFFCURVE",
"398 385 OFFCURVE",
"339 385 CURVE SMOOTH",
"248 385 OFFCURVE",
"153 385 OFFCURVE",
"66 385 CURVE",
"63 287 LINE",
"95 265 OFFCURVE",
"240 232 OFFCURVE",
"374 232 CURVE SMOOTH",
"563 232 OFFCURVE",
"630 283 OFFCURVE",
"630 465 CURVE SMOOTH",
"630 649 OFFCURVE",
"563 700 OFFCURVE",
"344 700 CURVE SMOOTH"
);
},
{
closed = 1;
nodes = (
"52 690 LINE",
"52 0 LINE",
"269 0 LINE",
"269 690 LINE"
);
}
);
width = 646;
},
{
layerId = "77EC9CE6-E33A-4866-9665-0506F15B57B2";
paths = (
{
closed = 1;
nodes = (
"210 699 OFFCURVE",
"158 698 OFFCURVE",
"81 690 CURVE",
"95 600 LINE",
"124 603 OFFCURVE",
"210 604 OFFCURVE",
"322 604 CURVE SMOOTH",
"413 604 OFFCURVE",
"442 578 OFFCURVE",
"442 479 CURVE SMOOTH",
"442 379 OFFCURVE",
"413 354 OFFCURVE",
"322 353 CURVE SMOOTH",
"246 353 OFFCURVE",
"166 353 OFFCURVE",
"94 353 CURVE",
"91 286 LINE",
"117 275 OFFCURVE",
"224 258 OFFCURVE",
"338 258 CURVE SMOOTH",
"497 258 OFFCURVE",
"554 305 OFFCURVE",
"554 479 CURVE SMOOTH",
"554 651 OFFCURVE",
"497 699 OFFCURVE",
"324 699 CURVE SMOOTH"
);
},
{
closed = 1;
nodes = (
"81 690 LINE",
"81 0 LINE",
"192 0 LINE",
"192 690 LINE"
);
}
);
width = 594;
}
);
leftKerningGroup = B;
rightKerningGroup = P;
unicode = 0050;
},
{
glyphname = Thorn;
lastChange = "2014-10-16 13:20:11 +0000";
layers = (
{
layerId = "E21536AE-9819-4FE7-8A20-8865FE3C0515";
paths = (
{
closed = 1;
nodes = (
"221 555 OFFCURVE",
"173 554 OFFCURVE",
"103 547 CURVE",
"117 529 LINE",
"144 531 OFFCURVE",
"223 532 OFFCURVE",
"324 532 CURVE SMOOTH",
"451 532 OFFCURVE",
"497 495 OFFCURVE",
"497 352 CURVE SMOOTH",
"497 209 OFFCURVE",
"451 174 OFFCURVE",
"324 172 CURVE SMOOTH",
"255 172 OFFCURVE",
"181 172 OFFCURVE",
"116 172 CURVE",
"113 154 LINE",
"135 152 OFFCURVE",
"218 149 OFFCURVE",
"324 149 CURVE SMOOTH",
"470 149 OFFCURVE",
"523 192 OFFCURVE",
"523 352 CURVE SMOOTH",
"523 510 OFFCURVE",
"470 555 OFFCURVE",
"324 555 CURVE SMOOTH"
);
},
{
closed = 1;
nodes = (
"103 690 LINE",
"103 0 LINE",
"128 0 LINE",
"128 690 LINE"
);
}
);
width = 583;
},
{
layerId = "924B7471-43FB-4CAD-AF7E-45215B64D997";
paths = (
{
closed = 1;
nodes = (
"203 578 OFFCURVE",
"142 577 OFFCURVE",
"53 568 CURVE",
"68 420 LINE",
"101 424 OFFCURVE",
"200 425 OFFCURVE",
"332 425 CURVE SMOOTH",
"386 425 OFFCURVE",
"399 409 OFFCURVE",
"399 343 CURVE SMOOTH",
"399 279 OFFCURVE",
"386 263 OFFCURVE",
"332 263 CURVE SMOOTH",
"243 263 OFFCURVE",
"151 263 OFFCURVE",
"67 263 CURVE",
"64 165 LINE",
"95 143 OFFCURVE",
"237 110 OFFCURVE",
"367 110 CURVE SMOOTH",
"551 110 OFFCURVE",
"616 161 OFFCURVE",
"616 343 CURVE SMOOTH",
"616 527 OFFCURVE",
"551 578 OFFCURVE",
"337 578 CURVE SMOOTH"
);
},
{
closed = 1;
nodes = (
"53 690 LINE",
"53 0 LINE",
"270 0 LINE",
"270 690 LINE"
);
}
);
width = 633;
},
{
layerId = "77EC9CE6-E33A-4866-9665-0506F15B57B2";
paths = (
{
closed = 1;
nodes = (
"210 572 OFFCURVE",
"158 571 OFFCURVE",
"81 563 CURVE",
"95 473 LINE",
"124 476 OFFCURVE",
"210 477 OFFCURVE",
"322 477 CURVE SMOOTH",
"413 477 OFFCURVE",
"442 452 OFFCURVE",
"442.079 347.974 CURVE SMOOTH",
"442 245 OFFCURVE",
"413 221 OFFCURVE",
"322 220 CURVE SMOOTH",
"246 220 OFFCURVE",
"166 220 OFFCURVE",
"94 220 CURVE",
"91 152 LINE",
"117 141 OFFCURVE",
"224 125 OFFCURVE",
"338 125 CURVE SMOOTH",
"497 125 OFFCURVE",
"554 171 OFFCURVE",
"553.974 347.974 CURVE SMOOTH",
"554 524 OFFCURVE",
"497 572 OFFCURVE",
"325 572 CURVE SMOOTH"
);
},
{
closed = 1;
nodes = (
"81.184 690 LINE",
"81.184 0 LINE",
"192.526 0 LINE",
"192.526 690 LINE"
);
}
);
width = 596;
}
);
leftKerningGroup = B;
rightKerningGroup = Thorn;
unicode = 00DE;
},
{
glyphname = Q;
lastChange = "2014-10-16 13:20:11 +0000";
layers = (
{
layerId = "E21536AE-9819-4FE7-8A20-8865FE3C0515";
paths = (
{
closed = 1;
nodes = (
"142 702 OFFCURVE",
"76 608 OFFCURVE",
"76 345 CURVE SMOOTH",
"76 82 OFFCURVE",
"142 -12 OFFCURVE",
"331 -12 CURVE SMOOTH",
"520 -12 OFFCURVE",
"586 82 OFFCURVE",
"586 345 CURVE SMOOTH",
"586 608 OFFCURVE",
"520 702 OFFCURVE",
"331 702 CURVE SMOOTH"
);
},
{
closed = 1;
nodes = (
"286 -65 LINE",
"345 -114 OFFCURVE",
"427 -149 OFFCURVE",
"515 -161 CURVE",
"522 -136 LINE",
"429 -121 OFFCURVE",
"360 -95 OFFCURVE",
"298 -51 CURVE"
);
},
{
closed = 1;
nodes = (
"501 679 OFFCURVE",
"560 593 OFFCURVE",
"560 345 CURVE SMOOTH",
"560 97 OFFCURVE",
"501 11 OFFCURVE",
"331 11 CURVE SMOOTH",
"161 11 OFFCURVE",
"102 97 OFFCURVE",
"102 345 CURVE SMOOTH",
"102 593 OFFCURVE",
"161 679 OFFCURVE",
"331 679 CURVE SMOOTH"
);
}
);
width = 662;
},
{
layerId = "924B7471-43FB-4CAD-AF7E-45215B64D997";
paths = (
{
closed = 1;
nodes = (
"117 704 OFFCURVE",
"32 629 OFFCURVE",
"32 345 CURVE SMOOTH",
"32 61 OFFCURVE",
"117 -14 OFFCURVE",
"353 -14 CURVE SMOOTH",
"590 -14 OFFCURVE",
"675 61 OFFCURVE",
"675 345 CURVE SMOOTH",
"675 629 OFFCURVE",
"590 704 OFFCURVE",
"353 704 CURVE SMOOTH"
);
},
{
closed = 1;
nodes = (
"248 -129 LINE",
"326 -185 OFFCURVE",
"434 -236 OFFCURVE",
"570 -275 CURVE",
"623 -100 LINE",
"496 -81 OFFCURVE",
"394 -63 OFFCURVE",
"294 -26 CURVE"
);
},
{
closed = 1;
nodes = (
"427 543 OFFCURVE",
"446 505 OFFCURVE",
"446 345 CURVE SMOOTH",
"446 185 OFFCURVE",
"427 147 OFFCURVE",
"353 147 CURVE SMOOTH",
"279 147 OFFCURVE",
"260 185 OFFCURVE",
"260 345 CURVE SMOOTH",
"260 505 OFFCURVE",
"279 543 OFFCURVE",
"353 543 CURVE SMOOTH"
);
}
);
width = 707;
},
{
layerId = "77EC9CE6-E33A-4866-9665-0506F15B57B2";
paths = (
{
closed = 1;
nodes = (
"130 703 OFFCURVE",
"57 617 OFFCURVE",
"57 345 CURVE SMOOTH",
"57 73 OFFCURVE",
"130 -13 OFFCURVE",
"336 -13 CURVE SMOOTH",
"542 -13 OFFCURVE",
"615 73 OFFCURVE",
"615 345 CURVE SMOOTH",
"615 617 OFFCURVE",
"542 703 OFFCURVE",
"336 703 CURVE SMOOTH"
);
},
{
closed = 1;
nodes = (
"263 -108 LINE",
"339 -148 OFFCURVE",
"427 -191 OFFCURVE",
"537 -216 CURVE",
"573 -105 LINE",
"471 -91 OFFCURVE",
"377 -70 OFFCURVE",
"292 -40 CURVE"
);
},
{
closed = 1;
nodes = (
"459 604 OFFCURVE",
"498 542 OFFCURVE",
"498 345 CURVE SMOOTH",
"498 148 OFFCURVE",
"459 86 OFFCURVE",
"336 86 CURVE SMOOTH",
"213 86 OFFCURVE",
"174 148 OFFCURVE",
"174 345 CURVE SMOOTH",
"174 542 OFFCURVE",
"213 604 OFFCURVE",
"336 604 CURVE SMOOTH"
);
}
);
width = 672;
}
);
leftKerningGroup = C;
rightKerningGroup = O;
unicode = 0051;
},
{
glyphname = R;
lastChange = "2014-10-16 13:20:11 +0000";
layers = (
{
anchors = (
{
name = bottom;
position = "{302, 0}";
},
{
name = top;
position = "{303, 740}";
}
);
layerId = "E21536AE-9819-4FE7-8A20-8865FE3C0515";
paths = (
{
closed = 1;
nodes = (
"221 698 OFFCURVE",
"173 697 OFFCURVE",
"103 690 CURVE",
"117 672 LINE",
"144 674 OFFCURVE",
"223 675 OFFCURVE",
"324 675 CURVE SMOOTH",
"451 675 OFFCURVE",
"497 640 OFFCURVE",
"497 504 CURVE SMOOTH",
"497 370 OFFCURVE",
"451 335 OFFCURVE",
"324 333 CURVE SMOOTH",
"116 333 LINE",
"113 315 LINE",
"135 313 OFFCURVE",
"218 310 OFFCURVE",
"333 310 CURVE SMOOTH",
"386 310 OFFCURVE",
"423 285 OFFCURVE",
"446 218 CURVE SMOOTH",
"520 0 LINE",
"548 0 LINE",
"472 221 LINE SMOOTH",
"456 267 OFFCURVE",
"431 305 OFFCURVE",
"396 316 CURVE",
"396 320 LINE",
"484 333 OFFCURVE",
"523 379 OFFCURVE",
"523 504 CURVE SMOOTH",
"523 657 OFFCURVE",
"470 698 OFFCURVE",
"324 698 CURVE SMOOTH"
);
},
{
closed = 1;
nodes = (
"103 690 LINE",
"103 0 LINE",
"128 0 LINE",
"128 690 LINE"
);
}
);
width = 607;
},
{
anchors = (
{
name = top;
position = "{339, 735}";
}
);
layerId = "924B7471-43FB-4CAD-AF7E-45215B64D997";
paths = (
{
closed = 1;
nodes = (
"207 700 OFFCURVE",
"144 699 OFFCURVE",
"52 690 CURVE",
"68 542 LINE",
"102 546 OFFCURVE",
"201 547 OFFCURVE",
"340 547 CURVE SMOOTH",
"402 547 OFFCURVE",
"418 533 OFFCURVE",
"418 476 CURVE SMOOTH",
"418 419 OFFCURVE",
"402 405 OFFCURVE",
"340 405 CURVE SMOOTH",
"66 405 LINE",
"63 257 LINE",
"128 253 OFFCURVE",
"182 253 OFFCURVE",
"332 252 CURVE SMOOTH",
"369 252 OFFCURVE",
"383 243 OFFCURVE",
"391 205 CURVE SMOOTH",
"436 0 LINE",
"663 0 LINE",
"609 212 LINE SMOOTH",
"592 296 OFFCURVE",
"534 315 OFFCURVE",
"496 320 CURVE",
"496 326 LINE",
"603 337 OFFCURVE",
"636 407 OFFCURVE",
"636 490 CURVE SMOOTH",
"636 651 OFFCURVE",
"548 700 OFFCURVE",
"345 700 CURVE SMOOTH"
);
},
{
closed = 1;
nodes = (
"52 690 LINE",
"52 0 LINE",
"265 0 LINE",
"265 690 LINE"
);
}
);
width = 676;
},
{
associatedMasterId = "E21536AE-9819-4FE7-8A20-8865FE3C0515";
layerId = "7086147B-0083-4503-B15D-D4FDC38FA77F";
name = "Light May 2 13, 16:37";
paths = (
{
closed = 1;
nodes = (
"107 690 LINE",
"107 0 LINE",
"132 0 LINE",
"132 690 LINE"
);
},
{
closed = 1;
nodes = (
"121 672 LINE",
"149 674 OFFCURVE",
"232 675 OFFCURVE",
"338 675 CURVE SMOOTH",
"465 675 OFFCURVE",
"511 640 OFFCURVE",
"511 504 CURVE SMOOTH",
"511 370 OFFCURVE",
"465 335 OFFCURVE",
"338 333 CURVE SMOOTH",
"266 333 OFFCURVE",
"188 333 OFFCURVE",
"120 333 CURVE",
"117 315 LINE",
"140 313 OFFCURVE",
"227 310 OFFCURVE",
"338 310 CURVE SMOOTH",
"484 310 OFFCURVE",
"537 356 OFFCURVE",
"537 504 CURVE SMOOTH",
"537 657 OFFCURVE",
"484 698 OFFCURVE",
"338 698 CURVE SMOOTH",
"230 698 OFFCURVE",
"180 697 OFFCURVE",
"107 690 CURVE"
);
},
{
closed = 1;
nodes = (
"486 221 LINE SMOOTH",
"456 307 OFFCURVE",
"404 333 OFFCURVE",
"338 333 CURVE",
"347 310 LINE",
"400 310 OFFCURVE",
"437 285 OFFCURVE",
"460 218 CURVE SMOOTH",
"534 0 LINE",
"562 0 LINE"
);
}
);
width = 616;
},
{
anchors = (
{
name = top;
position = "{303, 732}";
}
);
layerId = "77EC9CE6-E33A-4866-9665-0506F15B57B2";
paths = (
{
closed = 1;
nodes = (
"211 699 OFFCURVE",
"158 698 OFFCURVE",
"81 690 CURVE",
"95 602 LINE",
"124 602 OFFCURVE",
"209 604 OFFCURVE",
"323 604 CURVE SMOOTH",
"415 604 OFFCURVE",
"445 580 OFFCURVE",
"445 491 CURVE SMOOTH",
"445 402 OFFCURVE",
"415 376 OFFCURVE",
"323 375 CURVE SMOOTH",
"94 375 LINE",
"91 282 LINE",
"132 281 OFFCURVE",
"198 280 OFFCURVE",
"324 280 CURVE SMOOTH",
"367 280 OFFCURVE",
"392 262 OFFCURVE",
"407 215 CURVE SMOOTH",
"464 0 LINE",
"582 0 LINE",
"519 217 LINE SMOOTH",
"504 280 OFFCURVE",
"464 309 OFFCURVE",
"430 318 CURVE",
"430 323 LINE",
"523 335 OFFCURVE",
"557 392 OFFCURVE",
"557 498 CURVE SMOOTH",
"557 654 OFFCURVE",
"490 699 OFFCURVE",
"325 699 CURVE SMOOTH"
);
},
{
closed = 1;
nodes = (
"81 690 LINE",
"81 0 LINE",
"191 0 LINE",
"191 690 LINE"
);
}
);
width = 622;
}
);
leftKerningGroup = B;
rightKerningGroup = R;
unicode = 0052;
},
{
glyphname = S;
lastChange = "2014-10-16 13:20:11 +0000";
layers = (
{
anchors = (
{
name = bottom;
position = "{282, -11}";
},
{
name = top;
position = "{280, 740}";
}
);
layerId = "E21536AE-9819-4FE7-8A20-8865FE3C0515";
paths = (
{
closed = 1;
nodes = (
"134 703 OFFCURVE",
"66 690 OFFCURVE",
"66 524 CURVE SMOOTH",
"66 412 OFFCURVE",
"103 358 OFFCURVE",
"200 347 CURVE SMOOTH",
"353 326 LINE SMOOTH",
"436 315 OFFCURVE",
"467 278 OFFCURVE",
"467 169 CURVE SMOOTH",
"467 32 OFFCURVE",
"416 14 OFFCURVE",
"283 12 CURVE SMOOTH",
"207 11 OFFCURVE",
"156 13 OFFCURVE",
"81 19 CURVE",
"78 0 LINE",
"163 -10 OFFCURVE",
"227 -11 OFFCURVE",
"282 -11 CURVE SMOOTH",
"417 -11 OFFCURVE",
"492 5 OFFCURVE",
"492 169 CURVE SMOOTH",
"492 290 OFFCURVE",
"454 338 OFFCURVE",
"353 350 CURVE SMOOTH",
"200 371 LINE SMOOTH",
"121 382 OFFCURVE",
"91 423 OFFCURVE",
"91 524 CURVE SMOOTH",
"91 675 OFFCURVE",
"146 678 OFFCURVE",
"274 678 CURVE SMOOTH",
"336 678 OFFCURVE",
"398 674 OFFCURVE",
"458 670 CURVE",
"461 689 LINE",
"401 696 OFFCURVE",
"337 700 OFFCURVE",
"274 701 CURVE SMOOTH"
);
}
);
width = 554;
},
{
anchors = (
{
name = bottom;
position = "{305, -34}";
},
{
name = top;
position = "{314, 735}";
}
);
layerId = "924B7471-43FB-4CAD-AF7E-45215B64D997";
paths = (
{
closed = 1;
nodes = (
"106 704 OFFCURVE",
"30 658 OFFCURVE",
"30 501 CURVE SMOOTH",
"30 400 OFFCURVE",
"72 343 OFFCURVE",
"184 293 CURVE SMOOTH",
"321 233 LINE SMOOTH",
"358 219 OFFCURVE",
"368 210 OFFCURVE",
"368 191 CURVE SMOOTH",
"368 172 OFFCURVE",
"355 167 OFFCURVE",
"300 167 CURVE SMOOTH",
"263 167 OFFCURVE",
"168 169 OFFCURVE",
"49 172 CURVE",
"36 20 LINE",
"156 -11 OFFCURVE",
"256 -14 OFFCURVE",
"303 -14 CURVE SMOOTH",
"518 -14 OFFCURVE",
"585 42 OFFCURVE",
"585 197 CURVE SMOOTH",
"585 298 OFFCURVE",
"545 357 OFFCURVE",
"430 407 CURVE SMOOTH",
"305 459 LINE SMOOTH",
"258 477 OFFCURVE",
"245 487 OFFCURVE",
"245 506 CURVE SMOOTH",
"245 527 OFFCURVE",
"259 532 OFFCURVE",
"309 532 CURVE SMOOTH",
"395 532 OFFCURVE",
"492 531 OFFCURVE",
"552 530 CURVE",
"565 669 LINE",
"482 698 OFFCURVE",
"386 704 OFFCURVE",
"314 704 CURVE SMOOTH"
);
}
);
width = 610;
},
{
anchors = (
{
name = bottom;
position = "{284, -12}";
},
{
name = top;
position = "{278, 732}";
}
);
layerId = "77EC9CE6-E33A-4866-9665-0506F15B57B2";
paths = (
{
closed = 1;
nodes = (
"122 702 OFFCURVE",
"51 678 OFFCURVE",
"51 519 CURVE SMOOTH",
"51 416 OFFCURVE",
"87 351 OFFCURVE",
"188 321 CURVE SMOOTH",
"327 279 LINE SMOOTH",
"379 263 OFFCURVE",
"404 250 OFFCURVE",
"404 181 CURVE SMOOTH",
"404 102 OFFCURVE",
"377 87 OFFCURVE",
"281 87 CURVE SMOOTH",
"232 87 OFFCURVE",
"200 88 OFFCURVE",
"67 91 CURVE",
"60 9 LINE",
"157 -10 OFFCURVE",
"236 -12 OFFCURVE",
"278 -12 CURVE SMOOTH",
"449 -12 OFFCURVE",
"517 21 OFFCURVE",
"517 179 CURVE SMOOTH",
"517 280 OFFCURVE",
"485 346 OFFCURVE",
"377 378 CURVE SMOOTH",
"243 418 LINE SMOOTH",
"188 434 OFFCURVE",
"163 449 OFFCURVE",
"163 516 CURVE SMOOTH",
"163 599 OFFCURVE",
"197 603 OFFCURVE",
"286 603 CURVE SMOOTH",
"351 603 OFFCURVE",
"428 601 OFFCURVE",
"485 599 CURVE",
"492 680 LINE",
"420 698 OFFCURVE",
"346 702 OFFCURVE",
"281 702 CURVE SMOOTH"
);
}
);
width = 564;
}
);
leftKerningGroup = S;
rightKerningGroup = S;
unicode = 0053;
},
{
glyphname = T;
lastChange = "2014-10-16 13:20:11 +0000";
layers = (
{
anchors = (
{
name = bottom;
position = "{282, 0}";
},
{
name = center;
position = "{282, 345}";
},
{
name = top;
position = "{283, 740}";
}
);
layerId = "E21536AE-9819-4FE7-8A20-8865FE3C0515";
paths = (
{
closed = 1;
nodes = (
"269 690 LINE",
"269 0 LINE",
"294 0 LINE",
"294 690 LINE"
);
},
{
closed = 1;
nodes = (
"27 690 LINE",
"27 668 LINE",
"537 668 LINE",
"537 690 LINE"
);
}
);
width = 564;
},
{
anchors = (
{
name = bottom;
position = "{303, -20}";
},
{
name = top;
position = "{311, 735}";
}
);
layerId = "924B7471-43FB-4CAD-AF7E-45215B64D997";
paths = (
{
closed = 1;
nodes = (
"203 690 LINE",
"203 0 LINE",
"420 0 LINE",
"420 690 LINE"
);
},
{
closed = 1;
nodes = (
"10 690 LINE",
"10 528 LINE",
"613 528 LINE",
"613 690 LINE"
);
}
);
width = 623;
},
{
anchors = (
{
name = bottom;
position = "{289, 0}";
},
{
name = top;
position = "{293, 732}";
}
);
layerId = "77EC9CE6-E33A-4866-9665-0506F15B57B2";
paths = (
{
closed = 1;
nodes = (
"237 690 LINE",
"237 0 LINE",
"349 0 LINE",
"349 690 LINE"
);
},
{
closed = 1;
nodes = (
"23 690 LINE",
"23 591 LINE",
"564 591 LINE",
"564 690 LINE"
);
}
);
width = 587;
}
);
leftKerningGroup = T;
rightKerningGroup = T;
unicode = 0054;
},
{
glyphname = Tbar;
lastChange = "2014-10-16 13:20:11 +0000";
layers = (
{
components = (
{
name = T;
}
);
layerId = "E21536AE-9819-4FE7-8A20-8865FE3C0515";
paths = (
{
closed = 1;
nodes = (
"114 425 LINE",
"114 405 LINE",
"443 405 LINE",
"443 425 LINE"
);
}
);
width = 564;
},
{
components = (
{
name = T;
transform = "{1, 0, 0, 1, 2, 0}";
}
);
layerId = "924B7471-43FB-4CAD-AF7E-45215B64D997";
paths = (
{
closed = 1;
nodes = (
"88 401 LINE",
"88 307 LINE",
"537 307 LINE",
"537 401 LINE"
);
}
);
width = 627;
},
{
components = (
{
name = T;
}
);
layerId = "77EC9CE6-E33A-4866-9665-0506F15B57B2";
paths = (
{
closed = 1;
nodes = (
"101 419 LINE",
"101 359 LINE",
"485 359 LINE",
"485 419 LINE"
);
}
);
width = 587;
}
);
leftKerningGroup = T;
rightKerningGroup = T;
unicode = 0166;
},
{
glyphname = U;
lastChange = "2014-10-16 13:20:11 +0000";
layers = (
{
anchors = (
{
name = ogonek;
position = "{374, -9}";
},
{
name = top;
position = "{335, 740}";
}
);
layerId = "E21536AE-9819-4FE7-8A20-8865FE3C0515";
paths = (
{
closed = 1;
nodes = (
"544 690 LINE",
"544 255 LINE SMOOTH",
"544 76 OFFCURVE",
"487 11 OFFCURVE",
"334 11 CURVE SMOOTH",
"180 11 OFFCURVE",
"123 76 OFFCURVE",
"123 255 CURVE SMOOTH",
"123 690 LINE",
"98 690 LINE",
"98 255 LINE SMOOTH",
"98 63 OFFCURVE",
"161 -12 OFFCURVE",
"334 -12 CURVE SMOOTH",
"506 -12 OFFCURVE",
"569 63 OFFCURVE",
"569 255 CURVE SMOOTH",
"569 690 LINE"
);
}
);
width = 667;
},
{
anchors = (
{
name = ogonek;
position = "{400, -9}";
},
{
name = top;
position = "{353, 735}";
}
);
layerId = "924B7471-43FB-4CAD-AF7E-45215B64D997";
paths = (
{
closed = 1;
nodes = (
"441 690 LINE",
"441 285 LINE SMOOTH",
"441 174 OFFCURVE",
"422 147 OFFCURVE",
"353 147 CURVE SMOOTH",
"283 147 OFFCURVE",
"264 174 OFFCURVE",
"264 285 CURVE SMOOTH",
"264 690 LINE",
"47 690 LINE",
"47 285 LINE SMOOTH",
"47 65 OFFCURVE",
"131 -14 OFFCURVE",
"364 -14 CURVE SMOOTH",
"580 -14 OFFCURVE",
"658 65 OFFCURVE",
"658 285 CURVE SMOOTH",
"658 690 LINE"
);
}
);
width = 705;
},
{
anchors = (
{
name = ogonek;
position = "{374, -9}";
},
{
name = top;
position = "{334, 732}";
}
);
layerId = "77EC9CE6-E33A-4866-9665-0506F15B57B2";
paths = (
{
closed = 1;
nodes = (
"478 690 LINE",
"478 268 LINE SMOOTH",
"478 131 OFFCURVE",
"440 86 OFFCURVE",
"333 86 CURVE SMOOTH",
"224 86 OFFCURVE",
"187 131 OFFCURVE",
"187 268 CURVE SMOOTH",
"187 690 LINE",
"76 690 LINE",
"76 268 LINE SMOOTH",
"76 64 OFFCURVE",
"146 -13 OFFCURVE",
"338 -13 CURVE SMOOTH",
"522 -13 OFFCURVE",
"590 64 OFFCURVE",
"590 268 CURVE SMOOTH",
"590 690 LINE"
);
}
);
width = 666;
}
);
leftKerningGroup = U;
rightKerningGroup = U;
unicode = 0055;
},
{
glyphname = V;
lastChange = "2014-10-16 13:20:11 +0000";
layers = (
{
layerId = "E21536AE-9819-4FE7-8A20-8865FE3C0515";
paths = (
{
closed = 1;
nodes = (
"539 690 LINE",
"335 97 LINE SMOOTH",
"326 72 OFFCURVE",
"318 47 OFFCURVE",
"310 22 CURVE",
"282 22 LINE",
"274 47 OFFCURVE",
"266 71 OFFCURVE",
"257 96 CURVE SMOOTH",
"53 690 LINE",
"26 690 LINE",
"262 9 LINE SMOOTH",
"264 4 OFFCURVE",
"269 0 OFFCURVE",
"275 0 CURVE SMOOTH",
"317 0 LINE SMOOTH",
"323 0 OFFCURVE",
"328 4 OFFCURVE",
"330 9 CURVE SMOOTH",
"566 690 LINE"
);
}
);
width = 592;
},
{
layerId = "924B7471-43FB-4CAD-AF7E-45215B64D997";
paths = (
{
closed = 1;
nodes = (
"449 690 LINE",
"360 241 LINE SMOOTH",
"355 216 OFFCURVE",
"350 187 OFFCURVE",
"347 162 CURVE",
"323 162 LINE",
"319 187 OFFCURVE",
"315 216 OFFCURVE",
"310 241 CURVE SMOOTH",
"221 690 LINE",
"-2 690 LINE",
"166 58 LINE SMOOTH",
"174 23 OFFCURVE",
"203 0 OFFCURVE",
"240 0 CURVE SMOOTH",
"430 0 LINE SMOOTH",
"467 0 OFFCURVE",
"496 23 OFFCURVE",
"504 58 CURVE SMOOTH",
"672 690 LINE"
);
}
);
width = 670;
},
{
layerId = "77EC9CE6-E33A-4866-9665-0506F15B57B2";
paths = (
{
closed = 1;
nodes = (
"487 690 LINE",
"340 161 LINE SMOOTH",
"333 136 OFFCURVE",
"326 110 OFFCURVE",
"321 85 CURVE",
"295 85 LINE",
"289 110 OFFCURVE",
"283 136 OFFCURVE",
"276 161 CURVE SMOOTH",
"128 690 LINE",
"13 690 LINE",
"213 31 LINE SMOOTH",
"218 13 OFFCURVE",
"234 0 OFFCURVE",
"254 0 CURVE SMOOTH",
"361 0 LINE SMOOTH",
"381 0 OFFCURVE",
"397 13 OFFCURVE",
"402 31 CURVE SMOOTH",
"602 690 LINE"
);
}
);
width = 615;
}
);
leftKerningGroup = V;
rightKerningGroup = V;
unicode = 0056;
},
{
glyphname = W;
lastChange = "2014-10-16 13:20:11 +0000";
layers = (
{
anchors = (
{
name = top;
position = "{466, 740}";
}
);
guideLines = (
{
position = "{467, 587}";
}
);
layerId = "E21536AE-9819-4FE7-8A20-8865FE3C0515";
paths = (
{
closed = 1;
nodes = (
"871 690 LINE",
"711 90 LINE SMOOTH",
"705 67 OFFCURVE",
"699 45 OFFCURVE",
"693 22 CURVE",
"665 22 LINE",
"659 45 OFFCURVE",
"654 68 OFFCURVE",
"648 91 CURVE SMOOTH",
"498 679 LINE SMOOTH",
"496 686 OFFCURVE",
"491 690 OFFCURVE",
"484 690 CURVE SMOOTH",
"446 690 LINE SMOOTH",
"439 690 OFFCURVE",
"434 686 OFFCURVE",
"432 679 CURVE SMOOTH",
"282 90 LINE SMOOTH",
"276 67 OFFCURVE",
"271 45 OFFCURVE",
"265 22 CURVE",
"237 22 LINE",
"231 45 OFFCURVE",
"225 68 OFFCURVE",
"219 91 CURVE SMOOTH",
"59 690 LINE",
"33 690 LINE",
"216 10 LINE SMOOTH",
"218 4 OFFCURVE",
"223 0 OFFCURVE",
"230 0 CURVE SMOOTH",
"272 0 LINE SMOOTH",
"279 0 OFFCURVE",
"284 4 OFFCURVE",
"286 11 CURVE SMOOTH",
"433 591 LINE SMOOTH",
"440 617 OFFCURVE",
"446 642 OFFCURVE",
"453 668 CURVE",
"477 668 LINE",
"484 642 OFFCURVE",
"490 617 OFFCURVE",
"497 591 CURVE SMOOTH",
"644 11 LINE SMOOTH",
"646 4 OFFCURVE",
"651 0 OFFCURVE",
"658 0 CURVE SMOOTH",
"700 0 LINE SMOOTH",
"707 0 OFFCURVE",
"712 4 OFFCURVE",
"714 10 CURVE SMOOTH",
"897 690 LINE"
);
}
);
width = 930;
},
{
anchors = (
{
name = top;
position = "{502, 735}";
}
);
guideLines = (
{
position = "{440, 447}";
}
);
layerId = "924B7471-43FB-4CAD-AF7E-45215B64D997";
paths = (
{
closed = 1;
nodes = (
"769 690 LINE",
"735 265 LINE SMOOTH",
"733 231 OFFCURVE",
"730 189 OFFCURVE",
"730 152 CURVE",
"714 152 LINE",
"709 188 OFFCURVE",
"703 230 OFFCURVE",
"699 266 CURVE SMOOTH",
"652 626 LINE SMOOTH",
"647 664 OFFCURVE",
"618 690 OFFCURVE",
"579 690 CURVE SMOOTH",
"424 690 LINE SMOOTH",
"385 690 OFFCURVE",
"355 664 OFFCURVE",
"351 626 CURVE SMOOTH",
"305 268 LINE SMOOTH",
"301 232 OFFCURVE",
"294 187 OFFCURVE",
"289 152 CURVE",
"273 152 LINE",
"273 196 OFFCURVE",
"271 233 OFFCURVE",
"269 267 CURVE SMOOTH",
"234 690 LINE",
"20 690 LINE",
"106 58 LINE SMOOTH",
"111 23 OFFCURVE",
"143 0 OFFCURVE",
"180 0 CURVE SMOOTH",
"365 0 LINE SMOOTH",
"402 0 OFFCURVE",
"435 23 OFFCURVE",
"439 58 CURVE SMOOTH",
"485 438 LINE SMOOTH",
"489 471 OFFCURVE",
"491 506 OFFCURVE",
"493 540 CURVE",
"510 540 LINE",
"512 507 OFFCURVE",
"514 472 OFFCURVE",
"518 439 CURVE SMOOTH",
"565 58 LINE SMOOTH",
"569 23 OFFCURVE",
"602 0 OFFCURVE",
"639 0 CURVE SMOOTH",
"823 0 LINE SMOOTH",
"860 0 OFFCURVE",
"892 23 OFFCURVE",
"897 58 CURVE SMOOTH",
"983 690 LINE"
);
}
);
width = 1003;
},
{
anchors = (
{
name = top;
position = "{478, 731}";
}
);
guideLines = (
{
position = "{447, 447}";
}
);
layerId = "77EC9CE6-E33A-4866-9665-0506F15B57B2";
paths = (
{
closed = 1;
nodes = (
"807 690 LINE",
"717 173 LINE SMOOTH",
"712 145 OFFCURVE",
"709 113 OFFCURVE",
"705 84 CURVE",
"682 84 LINE",
"679 113 OFFCURVE",
"674 144 OFFCURVE",
"668 174 CURVE SMOOTH",
"577 654 LINE SMOOTH",
"573 675 OFFCURVE",
"557 690 OFFCURVE",
"536 690 CURVE SMOOTH",
"419 690 LINE SMOOTH",
"396 690 OFFCURVE",
"381 675 OFFCURVE",
"377 654 CURVE SMOOTH",
"286 175 LINE SMOOTH",
"280 146 OFFCURVE",
"275 117 OFFCURVE",
"271 84 CURVE",
"249 84 LINE",
"245 117 OFFCURVE",
"242 147 OFFCURVE",
"237 175 CURVE SMOOTH",
"148 690 LINE",
"30 690 LINE",
"154 32 LINE SMOOTH",
"158 13 OFFCURVE",
"175 0 OFFCURVE",
"196 0 CURVE SMOOTH",
"318 0 LINE SMOOTH",
"339 0 OFFCURVE",
"357 13 OFFCURVE",
"361 33 CURVE SMOOTH",
"453 529 LINE SMOOTH",
"458 554 OFFCURVE",
"462 581 OFFCURVE",
"467 607 CURVE",
"487 607 LINE",
"491 581 OFFCURVE",
"496 555 OFFCURVE",
"501 529 CURVE SMOOTH",
"594 33 LINE SMOOTH",
"598 13 OFFCURVE",
"615 0 OFFCURVE",
"636 0 CURVE SMOOTH",
"758 0 LINE SMOOTH",
"779 0 OFFCURVE",
"795 13 OFFCURVE",
"800 32 CURVE SMOOTH",
"924 690 LINE"
);
}
);
width = 954;
}
);
leftKerningGroup = W;
rightKerningGroup = W;
unicode = 0057;
},
{
glyphname = X;
lastChange = "2014-10-16 13:20:11 +0000";
layers = (
{
layerId = "E21536AE-9819-4FE7-8A20-8865FE3C0515";
paths = (
{
closed = 1;
nodes = (
"512 690 LINE",
"306 360 LINE",
"525 0 LINE",
"555 0 LINE",
"336 360 LINE",
"542 690 LINE"
);
},
{
closed = 1;
nodes = (
"51 690 LINE",
"257 360 LINE",
"38 0 LINE",
"68 0 LINE",
"287 360 LINE",
"81 690 LINE"
);
},
{
closed = 1;
nodes = (
"275 372 LINE",
"275 350 LINE",
"327 350 LINE",
"327 372 LINE"
);
}
);
width = 593;
},
{
layerId = "924B7471-43FB-4CAD-AF7E-45215B64D997";
paths = (
{
closed = 1;
nodes = (
"454 690 LINE",
"311 352 LINE",
"467 0 LINE",
"682 0 LINE",
"511 352 LINE",
"668 690 LINE"
);
},
{
closed = 1;
nodes = (
"9 690 LINE",
"166 352 LINE",
"-5 0 LINE",
"210 0 LINE",
"366 352 LINE",
"223 690 LINE"
);
},
{
closed = 1;
nodes = (
"226 414 LINE",
"226 294 LINE",
"434 294 LINE",
"434 414 LINE"
);
}
);
width = 677;
},
{
layerId = "77EC9CE6-E33A-4866-9665-0506F15B57B2";
paths = (
{
closed = 1;
nodes = (
"465 690 LINE",
"299 356 LINE",
"477 0 LINE",
"598 0 LINE",
"412 356 LINE",
"585 690 LINE"
);
},
{
closed = 1;
nodes = (
"33 690 LINE",
"205 356 LINE",
"20 0 LINE",
"140 0 LINE",
"318 356 LINE",
"152 690 LINE"
);
},
{
closed = 1;
nodes = (
"243 400 LINE",
"243 315 LINE",
"370 315 LINE",
"370 400 LINE"
);
}
);
width = 618;
}
);
leftKerningGroup = X;
rightKerningGroup = X;
unicode = 0058;
},
{
glyphname = Y;
lastChange = "2014-10-16 13:20:11 +0000";
layers = (
{
anchors = (
{
name = top;
position = "{271, 740}";
}
);
guideLines = (
{
angle = 90;
position = "{271, 289}";
}
);
layerId = "E21536AE-9819-4FE7-8A20-8865FE3C0515";
paths = (
{
closed = 1;
nodes = (
"490 690 LINE",
"310 356 LINE SMOOTH",
"299 335 OFFCURVE",
"285 311 OFFCURVE",
"273 289 CURVE",
"268 289 LINE",
"255 311 OFFCURVE",
"242 335 OFFCURVE",
"230 357 CURVE SMOOTH",
"50 690 LINE",
"22 690 LINE",
"262 250 LINE",
"279 250 LINE",
"518 690 LINE"
);
},
{
closed = 1;
nodes = (
"258 281 LINE",
"258 0 LINE",
"283 0 LINE",
"283 281 LINE"
);
}
);
width = 541;
},
{
anchors = (
{
name = top;
position = "{327, 735}";
}
);
layerId = "924B7471-43FB-4CAD-AF7E-45215B64D997";
paths = (
{
closed = 1;
nodes = (
"441 690 LINE",
"355 474 LINE SMOOTH",
"344 444 OFFCURVE",
"339 407 OFFCURVE",
"334 376 CURVE",
"321 376 LINE",
"316 407 OFFCURVE",
"312 443 OFFCURVE",
"300 473 CURVE SMOOTH",
"213 690 LINE",
"-10 690 LINE",
"223 205 LINE",
"431 205 LINE",
"664 690 LINE"
);
},
{
closed = 1;
nodes = (
"219 328 LINE",
"219 0 LINE",
"436 0 LINE",
"436 328 LINE"
);
}
);
width = 654;
},
{
anchors = (
{
name = top;
position = "{289, 732}";
}
);
layerId = "77EC9CE6-E33A-4866-9665-0506F15B57B2";
paths = (
{
closed = 1;
nodes = (
"455 690 LINE",
"323 414 LINE SMOOTH",
"311 389 OFFCURVE",
"302 359 OFFCURVE",
"294 333 CURVE",
"286 333 LINE",
"278 359 OFFCURVE",
"269 389 OFFCURVE",
"257 414 CURVE SMOOTH",
"125 690 LINE",
"7 690 LINE",
"239 228 LINE",
"341 228 LINE",
"571 690 LINE"
);
},
{
closed = 1;
nodes = (
"234 302 LINE",
"234 0 LINE",
"345 0 LINE",
"345 302 LINE"
);
}
);
width = 579;
}
);
leftKerningGroup = Y;
rightKerningGroup = Y;
unicode = 0059;
},
{
glyphname = Z;
lastChange = "2014-10-16 13:20:11 +0000";
layers = (
{
anchors = (
{
name = top;
position = "{279, 740}";
}
);
layerId = "E21536AE-9819-4FE7-8A20-8865FE3C0515";
paths = (
{
closed = 1;
nodes = (
"52 23 LINE",
"80 22 LINE",
"502 667 LINE",
"474 668 LINE"
);
},
{
closed = 1;
nodes = (
"52 23 LINE",
"52 0 LINE",
"507 0 LINE",
"507 23 LINE"
);
},
{
closed = 1;
nodes = (
"55 690 LINE",
"55 667 LINE",
"502 667 LINE",
"502 690 LINE"
);
}
);
width = 558;
},
{
anchors = (
{
name = top;
position = "{309, 735}";
}
);
layerId = "924B7471-43FB-4CAD-AF7E-45215B64D997";
paths = (
{
closed = 1;
nodes = (
"29 152 LINE",
"268 151 LINE",
"567 538 LINE",
"328 539 LINE"
);
},
{
closed = 1;
nodes = (
"29 152 LINE",
"29 0 LINE",
"577 0 LINE",
"577 152 LINE"
);
},
{
closed = 1;
nodes = (
"39 690 LINE",
"39 538 LINE",
"567 538 LINE",
"567 690 LINE"
);
}
);
width = 605;
},
{
anchors = (
{
name = top;
position = "{288, 732}";
}
);
layerId = "77EC9CE6-E33A-4866-9665-0506F15B57B2";
paths = (
{
closed = 1;
nodes = (
"47 94 LINE",
"169 93 LINE",
"516 596 LINE",
"395 597 LINE"
);
},
{
closed = 1;
nodes = (
"47 94 LINE",
"47 0 LINE",
"523 0 LINE",
"523 94 LINE"
);
},
{
closed = 1;
nodes = (
"53 690 LINE",
"53 596 LINE",
"516 596 LINE",
"516 690 LINE"
);
}
);
width = 569;
}
);
leftKerningGroup = Z;
rightKerningGroup = Z;
unicode = 005A;
},
{
glyphname = a;
lastChange = "2014-10-16 13:20:11 +0000";
layers = (
{
anchors = (
{
name = ogonek;
position = "{447, 0}";
},
{
name = top;
position = "{267, 558}";
}
);
layerId = "E21536AE-9819-4FE7-8A20-8865FE3C0515";
paths = (
{
closed = 1;
nodes = (
"214 492 OFFCURVE",
"149 480 OFFCURVE",
"85 471 CURVE",
"88 453 LINE",
"159 462 OFFCURVE",
"241 469 OFFCURVE",
"313 469 CURVE SMOOTH",
"398 469 OFFCURVE",
"423 419 OFFCURVE",
"423 358 CURVE SMOOTH",
"423 112 LINE",
"423 106 LINE",
"429 0 LINE",
"447 0 LINE",
"447 358 LINE SMOOTH",
"447 454 OFFCURVE",
"396 492 OFFCURVE",
"314 492 CURVE SMOOTH"
);
},
{
closed = 1;
nodes = (
"181 290 LINE SMOOTH",
"108 290 OFFCURVE",
"66 249 OFFCURVE",
"66 177 CURVE SMOOTH",
"66 115 LINE SMOOTH",
"66 37 OFFCURVE",
"112 -6 OFFCURVE",
"191 -6 CURVE SMOOTH",
"286 -6 OFFCURVE",
"390 55 OFFCURVE",
"428 97 CURVE",
"428 122 LINE",
"374 67 OFFCURVE",
"269 16 OFFCURVE",
"191 18 CURVE SMOOTH",
"125 19 OFFCURVE",
"91 52 OFFCURVE",
"91 115 CURVE SMOOTH",
"91 177 LINE SMOOTH",
"91 234 OFFCURVE",
"122 265 OFFCURVE",
"181 266 CURVE SMOOTH",
"426 270 LINE",
"427 290 LINE"
);
}
);
width = 538;
},
{
anchors = (
{
name = ogonek;
position = "{552, 0}";
},
{
name = top;
position = "{303, 547}";
}
);
layerId = "924B7471-43FB-4CAD-AF7E-45215B64D997";
paths = (
{
closed = 1;
nodes = (
"257 514 OFFCURVE",
"124 503 OFFCURVE",
"48 489 CURVE",
"67 356 LINE",
"152 360 OFFCURVE",
"231 361 OFFCURVE",
"283 361 CURVE SMOOTH",
"327 361 OFFCURVE",
"341 346 OFFCURVE",
"342 311 CURVE SMOOTH",
"342 127 LINE",
"356 107 LINE",
"385 0 LINE",
"552 0 LINE",
"552 310 LINE SMOOTH",
"552 466 OFFCURVE",
"474 514 OFFCURVE",
"333 514 CURVE SMOOTH"
);
},
{
closed = 1;
nodes = (
"186 307 LINE SMOOTH",
"84 307 OFFCURVE",
"21 258 OFFCURVE",
"21 178 CURVE SMOOTH",
"21 128 LINE SMOOTH",
"21 34 OFFCURVE",
"100 -14 OFFCURVE",
"193 -14 CURVE SMOOTH",
"332 -14 OFFCURVE",
"389 97 OFFCURVE",
"408 142 CURVE",
"408 206 LINE",
"374 168 OFFCURVE",
"314 128 OFFCURVE",
"267 128 CURVE SMOOTH",
"239 128 OFFCURVE",
"225 141 OFFCURVE",
"225 159 CURVE SMOOTH",
"225 175 LINE SMOOTH",
"225 193 OFFCURVE",
"238 206 OFFCURVE",
"263 206 CURVE SMOOTH",
"470 206 LINE",
"471 307 LINE"
);
}
);
width = 590;
},
{
associatedMasterId = "924B7471-43FB-4CAD-AF7E-45215B64D997";
layerId = "1D374528-B093-42C8-A3C7-EE07CD041260";
name = "(null) Apr 26 13, 12:09";
paths = (
{
closed = 1;
nodes = (
"216 181 LINE SMOOTH",
"216 197 OFFCURVE",
"214 223 OFFCURVE",
"246 226 CURVE SMOOTH",
"298 231 LINE",
"298 171 LINE",
"298 171 OFFCURVE",
"299 138 OFFCURVE",
"258 138 CURVE SMOOTH",
"239 138 OFFCURVE",
"216 134 OFFCURVE",
"216 175 CURVE SMOOTH"
);
},
{
closed = 1;
nodes = (
"22 143 LINE SMOOTH",
"22 87 OFFCURVE",
"60 -1 OFFCURVE",
"186 -6 CURVE SMOOTH",
"259 -9 OFFCURVE",
"289 33 OFFCURVE",
"298 54 CURVE",
"336 0 LINE",
"492 0 LINE",
"492 357 LINE",
"492 506 OFFCURVE",
"408 541 OFFCURVE",
"268 541 CURVE SMOOTH",
"169 541 OFFCURVE",
"109 534 OFFCURVE",
"40 501 CURVE",
"40 388 LINE",
"40 388 OFFCURVE",
"211 399 OFFCURVE",
"236 399 CURVE SMOOTH",
"276 399 OFFCURVE",
"298 400 OFFCURVE",
"298 347 CURVE",
"299 346 OFFCURVE",
"298 340 OFFCURVE",
"298 340 CURVE",
"298 339 OFFCURVE",
"196 340 OFFCURVE",
"196 340 CURVE SMOOTH",
"57 340 OFFCURVE",
"22 259 OFFCURVE",
"22 184 CURVE SMOOTH"
);
}
);
width = 600;
},
{
anchors = (
{
name = ogonek;
position = "{485, 0}";
},
{
name = top;
position = "{270, 553}";
}
);
layerId = "77EC9CE6-E33A-4866-9665-0506F15B57B2";
paths = (
{
closed = 1;
nodes = (
"243 502 OFFCURVE",
"137 491 OFFCURVE",
"68 479 CURVE",
"78 400 LINE",
"154 406 OFFCURVE",
"238 411 OFFCURVE",
"282 411 CURVE SMOOTH",
"356 411 OFFCURVE",
"376 397 OFFCURVE",
"377 337 CURVE SMOOTH",
"377 119 LINE",
"384 106 LINE",
"400 0 LINE",
"485 0 LINE",
"485 337 LINE SMOOTH",
"485 464 OFFCURVE",
"424 502 OFFCURVE",
"306 502 CURVE SMOOTH"
);
},
{
closed = 1;
nodes = (
"188 304 LINE SMOOTH",
"98 304 OFFCURVE",
"46 259 OFFCURVE",
"46 181 CURVE SMOOTH",
"46 131 LINE SMOOTH",
"46 40 OFFCURVE",
"109 -10 OFFCURVE",
"199 -10 CURVE SMOOTH",
"309 -10 OFFCURVE",
"385 64 OFFCURVE",
"410 101 CURVE",
"410 178 LINE",
"348 105 OFFCURVE",
"270 81 OFFCURVE",
"222 81 CURVE SMOOTH",
"175 81 OFFCURVE",
"155 99 OFFCURVE",
"155 145 CURVE SMOOTH",
"155 165 LINE SMOOTH",
"155 200 OFFCURVE",
"166 221 OFFCURVE",
"209 223 CURVE SMOOTH",
"437 223 LINE",
"438 304 LINE"
);
}
);
width = 553;
}
);
leftKerningGroup = a;
rightKerningGroup = a;
unicode = 0061;
},
{
glyphname = ae;
lastChange = "2014-10-16 13:20:11 +0000";
layers = (
{
anchors = (
{
name = top;
position = "{519, 480}";
}
);
layerId = "E21536AE-9819-4FE7-8A20-8865FE3C0515";
paths = (
{
closed = 1;
nodes = (
"481 492 OFFCURVE",
"423 426 OFFCURVE",
"423 242 CURVE SMOOTH",
"423 59 OFFCURVE",
"485 -12 OFFCURVE",
"637 -12 CURVE SMOOTH",
"689 -12 OFFCURVE",
"775 -4 OFFCURVE",
"807 6 CURVE",
"803 24 LINE",
"766 18 OFFCURVE",
"705 11 OFFCURVE",
"640 11 CURVE SMOOTH",
"506 11 OFFCURVE",
"448 70 OFFCURVE",
"448 243 CURVE SMOOTH",
"448 409 OFFCURVE",
"496 469 OFFCURVE",
"630 469 CURVE SMOOTH",
"737 469 OFFCURVE",
"791 431 OFFCURVE",
"793 354 CURVE SMOOTH",
"795 277 OFFCURVE",
"763 249 OFFCURVE",
"675 249 CURVE SMOOTH",
"437 249 LINE",
"437 227 LINE",
"675 227 LINE SMOOTH",
"780 227 OFFCURVE",
"820 261 OFFCURVE",
"818 356 CURVE SMOOTH",
"816 447 OFFCURVE",
"754 492 OFFCURVE",
"629 492 CURVE SMOOTH"
);
},
{
closed = 1;
nodes = (
"181 290 LINE SMOOTH",
"108 290 OFFCURVE",
"66 249 OFFCURVE",
"66 177 CURVE SMOOTH",
"66 115 LINE SMOOTH",
"66 37 OFFCURVE",
"112 -6 OFFCURVE",
"191 -6 CURVE SMOOTH",
"294 -6 OFFCURVE",
"406 61 OFFCURVE",
"448 107 CURVE",
"448 132 LINE",
"390 72 OFFCURVE",
"275 16 OFFCURVE",
"191 18 CURVE SMOOTH",
"125 19 OFFCURVE",
"91 52 OFFCURVE",
"91 115 CURVE SMOOTH",
"91 177 LINE SMOOTH",
"91 234 OFFCURVE",
"122 265 OFFCURVE",
"181 266 CURVE SMOOTH",
"426 270 LINE",
"427 290 LINE"
);
},
{
closed = 1;
nodes = (
"214 492 OFFCURVE",
"149 480 OFFCURVE",
"85 471 CURVE",
"88 453 LINE",
"159 462 OFFCURVE",
"241 469 OFFCURVE",
"313 469 CURVE SMOOTH",
"398 469 OFFCURVE",
"423 419 OFFCURVE",
"423 358 CURVE SMOOTH",
"423 224 LINE",
"447 225 LINE",
"447 358 LINE SMOOTH",
"447 454 OFFCURVE",
"396 492 OFFCURVE",
"314 492 CURVE SMOOTH"
);
}
);
width = 880;
},
{
layerId = "924B7471-43FB-4CAD-AF7E-45215B64D997";
paths = (
{
closed = 1;
nodes = (
"406 514 OFFCURVE",
"331 443 OFFCURVE",
"331 246 CURVE SMOOTH",
"331 76 OFFCURVE",
"406 -12 OFFCURVE",
"611 -12 CURVE SMOOTH",
"700 -12 OFFCURVE",
"781 -2 OFFCURVE",
"851 34 CURVE",
"832 160 LINE",
"747 151 OFFCURVE",
"671 149 OFFCURVE",
"634 149 CURVE SMOOTH",
"554 149 OFFCURVE",
"542 177 OFFCURVE",
"542 269 CURVE SMOOTH",
"542 368 OFFCURVE",
"554 380 OFFCURVE",
"616 379 CURVE SMOOTH",
"650 379 OFFCURVE",
"664 373 OFFCURVE",
"664 341 CURVE SMOOTH",
"664 307 OFFCURVE",
"657 303 OFFCURVE",
"613 303 CURVE SMOOTH",
"413 303 LINE",
"413 204 LINE",
"672 204 LINE SMOOTH",
"819 204 OFFCURVE",
"866 243 OFFCURVE",
"865 336 CURVE SMOOTH",
"864 453 OFFCURVE",
"795 514 OFFCURVE",
"610 514 CURVE SMOOTH"
);
},
{
closed = 1;
nodes = (
"182 304 LINE SMOOTH",
"83 304 OFFCURVE",
"21 255 OFFCURVE",
"21 178 CURVE SMOOTH",
"21 128 LINE SMOOTH",
"21 34 OFFCURVE",
"98 -14 OFFCURVE",
"189 -14 CURVE SMOOTH",
"333 -14 OFFCURVE",
"389 90 OFFCURVE",
"408 132 CURVE",
"398 206 LINE",
"366 168 OFFCURVE",
"309 128 OFFCURVE",
"264 128 CURVE SMOOTH",
"238 128 OFFCURVE",
"225 141 OFFCURVE",
"225 159 CURVE SMOOTH",
"225 175 LINE SMOOTH",
"225 193 OFFCURVE",
"237 206 OFFCURVE",
"261 206 CURVE SMOOTH",
"461 204 LINE",
"462 304 LINE"
);
},
{
closed = 1;
nodes = (
"253 514 OFFCURVE",
"121 503 OFFCURVE",
"47 489 CURVE",
"66 356 LINE",
"149 360 OFFCURVE",
"226 361 OFFCURVE",
"277 361 CURVE SMOOTH",
"317 361 OFFCURVE",
"331 346 OFFCURVE",
"331 311 CURVE SMOOTH",
"331 224 LINE",
"542 224 LINE",
"542 310 LINE SMOOTH",
"542 466 OFFCURVE",
"466 514 OFFCURVE",
"327 514 CURVE SMOOTH"
);
}
);
width = 886;
},
{
layerId = "77EC9CE6-E33A-4866-9665-0506F15B57B2";
paths = (
{
closed = 1;
nodes = (
"446 502 OFFCURVE",
"376 440 OFFCURVE",
"376 246 CURVE SMOOTH",
"376 57 OFFCURVE",
"442 -12 OFFCURVE",
"615 -12 CURVE SMOOTH",
"673 -12 OFFCURVE",
"761 -4 OFFCURVE",
"811 19 CURVE",
"801 90 LINE",
"746 83 OFFCURVE",
"677 78 OFFCURVE",
"629 78 CURVE SMOOTH",
"525 78 OFFCURVE",
"488 102 OFFCURVE",
"488 252 CURVE SMOOTH",
"488 380 OFFCURVE",
"515 412 OFFCURVE",
"611 412 CURVE SMOOTH",
"691 412 OFFCURVE",
"715 390 OFFCURVE",
"715 335 CURVE SMOOTH",
"715 310 OFFCURVE",
"710 275 OFFCURVE",
"672 275 CURVE SMOOTH",
"415 275 LINE",
"415 193 LINE",
"702 193 LINE SMOOTH",
"784 193 OFFCURVE",
"823 246 OFFCURVE",
"823 334 CURVE SMOOTH",
"823 444 OFFCURVE",
"761 502 OFFCURVE",
"606 502 CURVE SMOOTH"
);
},
{
closed = 1;
nodes = (
"188 304 LINE SMOOTH",
"98 304 OFFCURVE",
"46 259 OFFCURVE",
"46 181 CURVE SMOOTH",
"46 131 LINE SMOOTH",
"46 40 OFFCURVE",
"109 -10 OFFCURVE",
"199 -10 CURVE SMOOTH",
"309 -10 OFFCURVE",
"385 64 OFFCURVE",
"410 101 CURVE",
"410 178 LINE",
"348 105 OFFCURVE",
"270 81 OFFCURVE",
"222 81 CURVE SMOOTH",
"175 81 OFFCURVE",
"155 99 OFFCURVE",
"155 145 CURVE SMOOTH",
"155 165 LINE SMOOTH",
"155 200 OFFCURVE",
"166 221 OFFCURVE",
"209 223 CURVE SMOOTH",
"437 223 LINE",
"438 304 LINE"
);
},
{
closed = 1;
nodes = (
"243 502 OFFCURVE",
"137 491 OFFCURVE",
"68 479 CURVE",
"78 400 LINE",
"154 406 OFFCURVE",
"238 411 OFFCURVE",
"282 411 CURVE SMOOTH",
"356 411 OFFCURVE",
"377 397 OFFCURVE",
"377 337 CURVE SMOOTH",
"377 247 LINE",
"485 247 LINE",
"485 337 LINE SMOOTH",
"485 464 OFFCURVE",
"424 502 OFFCURVE",
"306 502 CURVE SMOOTH"
);
}
);
width = 868;
}
);
leftKerningGroup = a;
leftMetricsKey = a;
rightKerningGroup = ae;
rightMetricsKey = e;
unicode = 00E6;
},
{
glyphname = b;
lastChange = "2014-10-16 13:20:11 +0000";
layers = (
{
background = {
components = (
{
name = n;
}
);
};
layerId = "E21536AE-9819-4FE7-8A20-8865FE3C0515";
paths = (
{
closed = 1;
nodes = (
"248 492 OFFCURVE",
"184 453 OFFCURVE",
"113 390 CURVE",
"113 367 LINE",
"195 434 OFFCURVE",
"250 469 OFFCURVE",
"314 469 CURVE SMOOTH",
"421 469 OFFCURVE",
"463 408 OFFCURVE",
"463 240 CURVE SMOOTH",
"463 72 OFFCURVE",
"415 11 OFFCURVE",
"294 11 CURVE SMOOTH",
"236 11 OFFCURVE",
"183 17 OFFCURVE",
"113 37 CURVE",
"92 19 LINE",
"163 0 OFFCURVE",
"227 -12 OFFCURVE",
"294 -12 CURVE SMOOTH",
"434 -12 OFFCURVE",
"488 58 OFFCURVE",
"488 240 CURVE SMOOTH",
"488 422 OFFCURVE",
"440 492 OFFCURVE",
"314 492 CURVE SMOOTH"
);
},
{
closed = 1;
nodes = (
"92 700 LINE",
"92 19 LINE",
"116 19 LINE",
"116 374 LINE",
"113 390 LINE",
"117 421 OFFCURVE",
"116 444 OFFCURVE",
"116 483 CURVE SMOOTH",
"116 700 LINE"
);
}
);
width = 558;
},
{
background = {
components = (
{
name = n;
}
);
};
layerId = "924B7471-43FB-4CAD-AF7E-45215B64D997";
paths = (
{
closed = 1;
nodes = (
"326 514 OFFCURVE",
"258 465 OFFCURVE",
"217 418 CURVE",
"232 336 LINE",
"258 346 OFFCURVE",
"279 357 OFFCURVE",
"314 357 CURVE SMOOTH",
"362 357 OFFCURVE",
"375 340 OFFCURVE",
"375 255 CURVE SMOOTH",
"375 153 OFFCURVE",
"361 132 OFFCURVE",
"318 129 CURVE SMOOTH",
"290 127 OFFCURVE",
"229 134 OFFCURVE",
"210 143 CURVE",
"42 30 LINE",
"100 0 OFFCURVE",
"249 -12 OFFCURVE",
"322 -12 CURVE SMOOTH",
"550 -12 OFFCURVE",
"591 121 OFFCURVE",
"591 256 CURVE SMOOTH",
"591 439 OFFCURVE",
"542 514 OFFCURVE",
"402 514 CURVE SMOOTH"
);
},
{
closed = 1;
nodes = (
"42 700 LINE",
"42 30 LINE",
"252 20 LINE",
"252 406 LINE",
"231 418 LINE",
"248 461 OFFCURVE",
"255 513 OFFCURVE",
"254 561 CURVE SMOOTH",
"252 700 LINE"
);
}
);
width = 618;
},
{
background = {
paths = (
{
closed = 1;
nodes = (
"307 502 OFFCURVE",
"233 468 OFFCURVE",
"159 411 CURVE",
"164 336 LINE",
"243 376 OFFCURVE",
"294 403 OFFCURVE",
"349 403 CURVE SMOOTH",
"391 403 OFFCURVE",
"404 387 OFFCURVE",
"404 335 CURVE SMOOTH",
"404 0 LINE",
"512 0 LINE",
"512 367 LINE SMOOTH",
"512 456 OFFCURVE",
"466 502 OFFCURVE",
"377 502 CURVE SMOOTH"
);
},
{
closed = 1;
nodes = (
"68 489 LINE",
"68 0 LINE",
"175 0 LINE",
"175 380 LINE",
"168 395 LINE",
"160 489 LINE"
);
}
);
};
layerId = "77EC9CE6-E33A-4866-9665-0506F15B57B2";
paths = (
{
closed = 1;
nodes = (
"280 502 OFFCURVE",
"212 471 OFFCURVE",
"157 407 CURVE",
"165 337 LINE",
"220 379 OFFCURVE",
"259 409 OFFCURVE",
"309 409 CURVE SMOOTH",
"398 409 OFFCURVE",
"414 368 OFFCURVE",
"415 247 CURVE SMOOTH",
"414 120 OFFCURVE",
"383 79 OFFCURVE",
"300 78 CURVE SMOOTH",
"257 77 OFFCURVE",
"202 83 OFFCURVE",
"156 98 CURVE",
"70 24 LINE",
"133 0 OFFCURVE",
"234 -12 OFFCURVE",
"302 -12 CURVE SMOOTH",
"479 -12 OFFCURVE",
"526 86 OFFCURVE",
"526 247 CURVE SMOOTH",
"526 430 OFFCURVE",
"468 502 OFFCURVE",
"349 502 CURVE SMOOTH"
);
},
{
closed = 1;
nodes = (
"70 700 LINE",
"70 24 LINE",
"178 19 LINE",
"177 401 LINE",
"166 415 LINE",
"176 452 OFFCURVE",
"178 488 OFFCURVE",
"178 531 CURVE SMOOTH",
"178 700 LINE"
);
}
);
width = 575;
}
);
leftKerningGroup = b;
rightKerningGroup = b;
unicode = 0062;
},
{
glyphname = c;
lastChange = "2014-10-16 13:20:11 +0000";
layers = (
{
anchors = (
{
name = bottom;
position = "{286, -12}";
},
{
name = top;
position = "{273, 558}";
}
);
guideLines = (
{
angle = -70;
position = "{314, 195}";
},
{
angle = 70;
position = "{308, 271}";
},
{
angle = 90;
position = "{384, 224}";
}
);
layerId = "E21536AE-9819-4FE7-8A20-8865FE3C0515";
paths = (
{
closed = 1;
nodes = (
"129 492 OFFCURVE",
"69 425 OFFCURVE",
"69 240 CURVE SMOOTH",
"69 55 OFFCURVE",
"129 -12 OFFCURVE",
"289 -12 CURVE SMOOTH",
"337 -12 OFFCURVE",
"390 -5 OFFCURVE",
"434 5 CURVE",
"430 23 LINE",
"386 14 OFFCURVE",
"320 11 OFFCURVE",
"292 11 CURVE SMOOTH",
"147 11 OFFCURVE",
"94 63 OFFCURVE",
"94 240 CURVE SMOOTH",
"94 417 OFFCURVE",
"147 469 OFFCURVE",
"292 469 CURVE SMOOTH",
"324 469 OFFCURVE",
"382 466 OFFCURVE",
"417 457 CURVE",
"423 475 LINE",
"381 488 OFFCURVE",
"324 492 OFFCURVE",
"288 492 CURVE SMOOTH"
);
}
);
width = 478;
},
{
anchors = (
{
name = bottom;
position = "{276, -17}";
},
{
name = top;
position = "{292, 547}";
}
);
layerId = "924B7471-43FB-4CAD-AF7E-45215B64D997";
paths = (
{
closed = 1;
nodes = (
"97 514 OFFCURVE",
"26 444 OFFCURVE",
"26 251 CURVE SMOOTH",
"26 58 OFFCURVE",
"96 -12 OFFCURVE",
"292 -12 CURVE SMOOTH",
"369 -12 OFFCURVE",
"451 -1 OFFCURVE",
"510 30 CURVE",
"491 161 LINE",
"428 154 OFFCURVE",
"364 154 OFFCURVE",
"330 154 CURVE SMOOTH",
"266 154 OFFCURVE",
"246 173 OFFCURVE",
"246 251 CURVE SMOOTH",
"246 328 OFFCURVE",
"266 347 OFFCURVE",
"330 347 CURVE SMOOTH",
"372 347 OFFCURVE",
"418 347 OFFCURVE",
"482 347 CURVE",
"503 477 LINE",
"443 506 OFFCURVE",
"355 514 OFFCURVE",
"294 514 CURVE SMOOTH"
);
}
);
width = 528;
},
{
anchors = (
{
name = bottom;
position = "{275, -12}";
},
{
name = top;
position = "{266, 553}";
}
);
layerId = "77EC9CE6-E33A-4866-9665-0506F15B57B2";
paths = (
{
closed = 1;
nodes = (
"113 502 OFFCURVE",
"49 434 OFFCURVE",
"49 245 CURVE SMOOTH",
"49 56 OFFCURVE",
"112 -12 OFFCURVE",
"284 -12 CURVE SMOOTH",
"344 -12 OFFCURVE",
"408 -3 OFFCURVE",
"458 16 CURVE",
"448 88 LINE",
"396 80 OFFCURVE",
"333 78 OFFCURVE",
"303 78 CURVE SMOOTH",
"198 78 OFFCURVE",
"162 115 OFFCURVE",
"162 245 CURVE SMOOTH",
"162 374 OFFCURVE",
"198 411 OFFCURVE",
"303 411 CURVE SMOOTH",
"338 411 OFFCURVE",
"390 410 OFFCURVE",
"437 408 CURVE",
"450 476 LINE",
"400 496 OFFCURVE",
"331 502 OFFCURVE",
"285 502 CURVE SMOOTH"
);
}
);
width = 493;
}
);
leftKerningGroup = c;
rightKerningGroup = c;
unicode = 0063;
},
{
glyphname = d;
lastChange = "2014-10-16 13:20:11 +0000";
layers = (
{
background = {
components = (
{
name = u;
}
);
};
layerId = "E21536AE-9819-4FE7-8A20-8865FE3C0515";
paths = (
{
closed = 1;
nodes = (
"119 492 OFFCURVE",
"71 422 OFFCURVE",
"71 240 CURVE SMOOTH",
"71 58 OFFCURVE",
"119 -12 OFFCURVE",
"245 -12 CURVE SMOOTH",
"311 -12 OFFCURVE",
"373 21 OFFCURVE",
"444 84 CURVE",
"446 110 LINE",
"364 41 OFFCURVE",
"309 11 OFFCURVE",
"245 11 CURVE SMOOTH",
"138 11 OFFCURVE",
"96 72 OFFCURVE",
"96 240 CURVE SMOOTH",
"96 408 OFFCURVE",
"138 469 OFFCURVE",
"245 469 CURVE SMOOTH",
"309 469 OFFCURVE",
"364 452 OFFCURVE",
"446 419 CURVE",
"446 442 LINE",
"375 473 OFFCURVE",
"311 492 OFFCURVE",
"245 492 CURVE SMOOTH"
);
},
{
closed = 1;
nodes = (
"442 700 LINE",
"442 535 LINE",
"442 500 OFFCURVE",
"441 477 OFFCURVE",
"445 442 CURVE",
"442 426 LINE",
"442 88 LINE",
"444 84 LINE",
"448 0 LINE",
"466 0 LINE",
"466 700 LINE"
);
}
);
width = 561;
},
{
layerId = "924B7471-43FB-4CAD-AF7E-45215B64D997";
paths = (
{
closed = 1;
nodes = (
"94 514 OFFCURVE",
"28 461 OFFCURVE",
"28 256 CURVE SMOOTH",
"28 86 OFFCURVE",
"78 -12 OFFCURVE",
"209 -12 CURVE SMOOTH",
"316 -12 OFFCURVE",
"373 35 OFFCURVE",
"400 96 CURVE",
"387 182 LINE",
"361 167 OFFCURVE",
"343 156 OFFCURVE",
"299 156 CURVE SMOOTH",
"260 156 OFFCURVE",
"244 166 OFFCURVE",
"244 258 CURVE SMOOTH",
"244 365 OFFCURVE",
"260 377 OFFCURVE",
"302 377 CURVE SMOOTH",
"343 377 OFFCURVE",
"363 364 OFFCURVE",
"390 356 CURVE",
"405 438 LINE",
"364 494 OFFCURVE",
"294 514 OFFCURVE",
"218 514 CURVE SMOOTH"
);
},
{
closed = 1;
nodes = (
"367 700 LINE",
"367 581 LINE SMOOTH",
"367 533 OFFCURVE",
"370 481 OFFCURVE",
"373 438 CURVE",
"367 426 LINE",
"367 112 LINE",
"390 96 LINE",
"410 0 LINE",
"577 0 LINE",
"577 700 LINE"
);
}
);
width = 620;
},
{
background = {
components = (
{
name = u;
}
);
};
layerId = "77EC9CE6-E33A-4866-9665-0506F15B57B2";
paths = (
{
closed = 1;
nodes = (
"114 502 OFFCURVE",
"50 440 OFFCURVE",
"50 247 CURVE SMOOTH",
"50 81 OFFCURVE",
"98 -12 OFFCURVE",
"221 -12 CURVE SMOOTH",
"304 -12 OFFCURVE",
"375 31 OFFCURVE",
"422 74 CURVE",
"411 147 LINE",
"341 100 OFFCURVE",
"313 81 OFFCURVE",
"259 81 CURVE SMOOTH",
"190 81 OFFCURVE",
"161 113 OFFCURVE",
"161 248 CURVE SMOOTH",
"161 383 OFFCURVE",
"190 409 OFFCURVE",
"266 409 CURVE SMOOTH",
"316 409 OFFCURVE",
"355 398 OFFCURVE",
"410 386 CURVE",
"417 450 LINE",
"364 486 OFFCURVE",
"301 502 OFFCURVE",
"238 502 CURVE SMOOTH"
);
},
{
closed = 1;
nodes = (
"397 700 LINE",
"397 556 LINE SMOOTH",
"397 515 OFFCURVE",
"399 479 OFFCURVE",
"404 440 CURVE",
"397 426 LINE",
"397 94 LINE",
"409 85 LINE",
"420 0 LINE",
"505 0 LINE",
"505 700 LINE"
);
}
);
width = 577;
}
);
leftKerningGroup = d;
rightKerningGroup = H;
unicode = 0064;
},
{
glyphname = eth;
lastChange = "2014-10-16 13:20:11 +0000";
layers = (
{
layerId = "E21536AE-9819-4FE7-8A20-8865FE3C0515";
paths = (
{
closed = 1;
nodes = (
"116 680 LINE",
"218 680 OFFCURVE",
"443 652 OFFCURVE",
"443 286 CURVE SMOOTH",
"443 122 OFFCURVE",
"422 10 OFFCURVE",
"270 10 CURVE SMOOTH",
"153 10 OFFCURVE",
"95 67 OFFCURVE",
"95 220 CURVE SMOOTH",
"95 337 OFFCURVE",
"133 424 OFFCURVE",
"264 424 CURVE SMOOTH",
"327 424 OFFCURVE",
"378 411 OFFCURVE",
"450 363 CURVE",
"457 378 LINE",
"384 430 OFFCURVE",
"326 446 OFFCURVE",
"269 446 CURVE SMOOTH",
"122 446 OFFCURVE",
"70 358 OFFCURVE",
"70 221 CURVE SMOOTH",
"70 57 OFFCURVE",
"134 -12 OFFCURVE",
"270 -12 CURVE SMOOTH",
"452 -12 OFFCURVE",
"467 130 OFFCURVE",
"467 279 CURVE SMOOTH",
"467 655 OFFCURVE",
"247 700 OFFCURVE",
"122 698 CURVE"
);
},
{
closed = 1;
nodes = (
"223 566 LINE",
"234 549 LINE",
"425 681 LINE",
"414 698 LINE"
);
}
);
width = 548;
},
{
layerId = "924B7471-43FB-4CAD-AF7E-45215B64D997";
paths = (
{
closed = 1;
nodes = (
"129 568 LINE",
"332 583 OFFCURVE",
"356 500 OFFCURVE",
"356 290 CURVE SMOOTH",
"356 155 OFFCURVE",
"349 130 OFFCURVE",
"299 130 CURVE SMOOTH",
"256 130 OFFCURVE",
"247 147 OFFCURVE",
"247 218 CURVE SMOOTH",
"247 305 OFFCURVE",
"265 311 OFFCURVE",
"302 311 CURVE SMOOTH",
"353 311 OFFCURVE",
"397 303 OFFCURVE",
"423 292 CURVE",
"431 376 LINE",
"396 446 OFFCURVE",
"304 453 OFFCURVE",
"252 453 CURVE SMOOTH",
"87 453 OFFCURVE",
"27 378 OFFCURVE",
"27 214 CURVE SMOOTH",
"27 58 OFFCURVE",
"112 -14 OFFCURVE",
"297 -14 CURVE SMOOTH",
"489 -14 OFFCURVE",
"576 60 OFFCURVE",
"576 291 CURVE SMOOTH",
"576 533 OFFCURVE",
"447 719 OFFCURVE",
"146 698 CURVE"
);
},
{
closed = 1;
nodes = (
"190 524 LINE",
"244 463 LINE",
"485 673 LINE",
"432 734 LINE"
);
}
);
width = 604;
},
{
layerId = "77EC9CE6-E33A-4866-9665-0506F15B57B2";
paths = (
{
closed = 1;
nodes = (
"120 620 LINE",
"266 626 OFFCURVE",
"394 575 OFFCURVE",
"394 288 CURVE SMOOTH",
"394 147 OFFCURVE",
"380 77 OFFCURVE",
"278 77 CURVE SMOOTH",
"197 77 OFFCURVE",
"163 113 OFFCURVE",
"163 219 CURVE SMOOTH",
"163 312 OFFCURVE",
"190 359 OFFCURVE",
"276 359 CURVE SMOOTH",
"332 359 OFFCURVE",
"379 351 OFFCURVE",
"428 331 CURVE",
"435 377 LINE",
"381 437 OFFCURVE",
"309 449 OFFCURVE",
"256 449 CURVE SMOOTH",
"104 449 OFFCURVE",
"50 367 OFFCURVE",
"50 218 CURVE SMOOTH",
"50 57 OFFCURVE",
"122 -13 OFFCURVE",
"277 -13 CURVE SMOOTH",
"459 -13 OFFCURVE",
"506 99 OFFCURVE",
"506 284 CURVE SMOOTH",
"506 600 OFFCURVE",
"333 709 OFFCURVE",
"131 698 CURVE"
);
},
{
closed = 1;
nodes = (
"203 550 LINE",
"241 504 LINE",
"450 670 LINE",
"412 717 LINE"
);
}
);
width = 563;
},
{
associatedMasterId = "77EC9CE6-E33A-4866-9665-0506F15B57B2";
layerId = "48856D94-10E4-406A-A625-3B3530DDDE67";
name = "Regular [144]";
paths = (
{
closed = 1;
nodes = (
"116 620 LINE",
"262 626 OFFCURVE",
"390 575 OFFCURVE",
"389.921 287.789 CURVE SMOOTH",
"390 147 OFFCURVE",
"376 77 OFFCURVE",
"274 77 CURVE SMOOTH",
"193 77 OFFCURVE",
"159 113 OFFCURVE",
"158.684 219.105 CURVE SMOOTH",
"159 312 OFFCURVE",
"186 359 OFFCURVE",
"272 359 CURVE SMOOTH",
"328 359 OFFCURVE",
"375 351 OFFCURVE",
"424.211 331.237 CURVE",
"431.211 377.105 LINE",
"377.447 437.158 OFFCURVE",
"305.132 449.132 OFFCURVE",
"251.711 449.132 CURVE SMOOTH",
"100.237 449.132 OFFCURVE",
"46 366.947 OFFCURVE",
"46 217.868 CURVE SMOOTH",
"46 57.447 OFFCURVE",
"118.053 -13 OFFCURVE",
"272.842 -13 CURVE SMOOTH",
"454.842 -13 OFFCURVE",
"502.053 98.684 OFFCURVE",
"502.053 284.368 CURVE SMOOTH",
"502.053 600.421 OFFCURVE",
"328.579 708.5 OFFCURVE",
"127.079 698 CURVE"
);
},
{
closed = 1;
nodes = (
"281 614 LINE",
"339 550 LINE",
"474 677 LINE",
"415 742 LINE"
);
}
);
width = 552.395;
},
{
associatedMasterId = "924B7471-43FB-4CAD-AF7E-45215B64D997";
layerId = "72DC83C0-7885-4448-AC53-03E25468C374";
name = "Bold [144]";
paths = (
{
closed = 1;
nodes = (
"129 568 LINE",
"332 583 OFFCURVE",
"356 500 OFFCURVE",
"356 290 CURVE SMOOTH",
"356 155 OFFCURVE",
"349 130 OFFCURVE",
"299 130 CURVE SMOOTH",
"256 130 OFFCURVE",
"247 147 OFFCURVE",
"247 218 CURVE SMOOTH",
"247 305 OFFCURVE",
"265 311 OFFCURVE",
"302 311 CURVE SMOOTH",
"353 311 OFFCURVE",
"397 303 OFFCURVE",
"423 292 CURVE",
"431 376 LINE",
"396 446 OFFCURVE",
"304 453 OFFCURVE",
"252 453 CURVE SMOOTH",
"87 453 OFFCURVE",
"27 378 OFFCURVE",
"27 214 CURVE SMOOTH",
"27 58 OFFCURVE",
"112 -14 OFFCURVE",
"297 -14 CURVE SMOOTH",
"489 -14 OFFCURVE",
"576 60 OFFCURVE",
"576 291 CURVE SMOOTH",
"576 533 OFFCURVE",
"447 719 OFFCURVE",
"146 698 CURVE"
);
},
{
closed = 1;
nodes = (
"282 596 LINE",
"401 485 LINE",
"558 641 LINE",
"439 754 LINE"
);
}
);
width = 604;
}
);
leftKerningGroup = eth;
rightKerningGroup = eth;
unicode = 00F0;
},
{
glyphname = dcroat;
lastChange = "2014-10-16 13:20:11 +0000";
layers = (
{
components = (
{
name = d;
}
);
layerId = "E21536AE-9819-4FE7-8A20-8865FE3C0515";
paths = (
{
closed = 1;
nodes = (
"265 610 LINE",
"265 590 LINE",
"540 590 LINE",
"540 610 LINE"
);
}
);
width = 553;
},
{
components = (
{
name = d;
}
);
layerId = "924B7471-43FB-4CAD-AF7E-45215B64D997";
paths = (
{
closed = 1;
nodes = (
"260 631 LINE",
"260 547 LINE",
"631 547 LINE",
"631 631 LINE"
);
}
);
width = 617;
},
{
components = (
{
name = d;
}
);
layerId = "77EC9CE6-E33A-4866-9665-0506F15B57B2";
paths = (
{
closed = 1;
nodes = (
"252 627 LINE",
"252 567 LINE",
"570 567 LINE",
"570 627 LINE"
);
}
);
width = 573;
}
);
leftKerningGroup = d;
rightKerningGroup = H;
unicode = 0111;
},
{
glyphname = e;
lastChange = "2014-10-16 13:20:11 +0000";
layers = (
{
anchors = (
{
name = bottom;
position = "{263, 0}";
},
{
name = ogonek;
position = "{453, 6}";
},
{
name = top;
position = "{277, 558}";
}
);
layerId = "E21536AE-9819-4FE7-8A20-8865FE3C0515";
paths = (
{
closed = 1;
nodes = (
"127 492 OFFCURVE",
"69 426 OFFCURVE",
"69 242 CURVE SMOOTH",
"69 59 OFFCURVE",
"131 -12 OFFCURVE",
"283 -12 CURVE SMOOTH",
"335 -12 OFFCURVE",
"421 -4 OFFCURVE",
"453 6 CURVE",
"449 24 LINE",
"412 18 OFFCURVE",
"351 11 OFFCURVE",
"286 11 CURVE SMOOTH",
"152 11 OFFCURVE",
"94 70 OFFCURVE",
"94 243 CURVE SMOOTH",
"94 409 OFFCURVE",
"142 469 OFFCURVE",
"276 469 CURVE SMOOTH",
"383 469 OFFCURVE",
"437 434 OFFCURVE",
"439 354 CURVE SMOOTH",
"441 286 OFFCURVE",
"420 249 OFFCURVE",
"361 249 CURVE SMOOTH",
"83 249 LINE",
"83 227 LINE",
"361 227 LINE SMOOTH",
"439 227 OFFCURVE",
"466 271 OFFCURVE",
"464 356 CURVE SMOOTH",
"462 447 OFFCURVE",
"400 492 OFFCURVE",
"275 492 CURVE SMOOTH"
);
}
);
width = 527;
},
{
anchors = (
{
name = ogonek;
position = "{555, 34}";
},
{
name = top;
position = "{312, 547}";
}
);
layerId = "924B7471-43FB-4CAD-AF7E-45215B64D997";
paths = (
{
closed = 1;
nodes = (
"102 514 OFFCURVE",
"25 443 OFFCURVE",
"25 246 CURVE SMOOTH",
"25 76 OFFCURVE",
"101 -12 OFFCURVE",
"310 -12 CURVE SMOOTH",
"400 -12 OFFCURVE",
"484 -2 OFFCURVE",
"555 34 CURVE",
"536 160 LINE",
"450 151 OFFCURVE",
"373 149 OFFCURVE",
"333 149 CURVE SMOOTH",
"258 149 OFFCURVE",
"245 177 OFFCURVE",
"245 269 CURVE SMOOTH",
"245 368 OFFCURVE",
"257 380 OFFCURVE",
"315 379 CURVE SMOOTH",
"353 379 OFFCURVE",
"368 373 OFFCURVE",
"368 341 CURVE SMOOTH",
"368 307 OFFCURVE",
"361 303 OFFCURVE",
"316 303 CURVE SMOOTH",
"106 303 LINE",
"106 204 LINE",
"375 204 LINE SMOOTH",
"522 204 OFFCURVE",
"570 243 OFFCURVE",
"569 336 CURVE SMOOTH",
"568 453 OFFCURVE",
"497 514 OFFCURVE",
"309 514 CURVE SMOOTH"
);
}
);
width = 590;
},
{
associatedMasterId = "E21536AE-9819-4FE7-8A20-8865FE3C0515";
layerId = "8B237152-285D-40A8-B4E2-1E52B22AB10C";
name = "Light Apr 26 13, 16:54";
paths = (
{
closed = 1;
nodes = (
"169 11 OFFCURVE",
"88 37 OFFCURVE",
"88 243 CURVE SMOOTH",
"88 410 OFFCURVE",
"141 469 OFFCURVE",
"268 469 CURVE SMOOTH",
"384 469 OFFCURVE",
"436 419 OFFCURVE",
"438 287 CURVE SMOOTH",
"438 269 OFFCURVE",
"430 262 OFFCURVE",
"415 262 CURVE SMOOTH",
"77 262 LINE",
"77 240 LINE",
"415 240 LINE SMOOTH",
"447 240 OFFCURVE",
"463 256 OFFCURVE",
"463 287 CURVE SMOOTH",
"462 437 OFFCURVE",
"395 492 OFFCURVE",
"268 492 CURVE SMOOTH",
"120 492 OFFCURVE",
"63 420 OFFCURVE",
"63 242 CURVE SMOOTH",
"63 58 OFFCURVE",
"125 -12 OFFCURVE",
"277 -12 CURVE SMOOTH",
"329 -12 OFFCURVE",
"415 -4 OFFCURVE",
"448 6 CURVE",
"444 24 LINE",
"407 18 OFFCURVE",
"360 11 OFFCURVE",
"295 11 CURVE SMOOTH"
);
}
);
width = 546;
},
{
anchors = (
{
name = ogonek;
position = "{484, 19}";
},
{
name = top;
position = "{281, 553}";
}
);
layerId = "77EC9CE6-E33A-4866-9665-0506F15B57B2";
paths = (
{
closed = 1;
nodes = (
"119 502 OFFCURVE",
"49 440 OFFCURVE",
"49 246 CURVE SMOOTH",
"49 57 OFFCURVE",
"115 -12 OFFCURVE",
"288 -12 CURVE SMOOTH",
"346 -12 OFFCURVE",
"434 -4 OFFCURVE",
"484 19 CURVE",
"474 90 LINE",
"419 83 OFFCURVE",
"350 78 OFFCURVE",
"302 78 CURVE SMOOTH",
"198 78 OFFCURVE",
"161 102 OFFCURVE",
"161 252 CURVE SMOOTH",
"161 380 OFFCURVE",
"188 412 OFFCURVE",
"284 412 CURVE SMOOTH",
"364 412 OFFCURVE",
"388 390 OFFCURVE",
"388 335 CURVE SMOOTH",
"388 310 OFFCURVE",
"383 275 OFFCURVE",
"345 275 CURVE SMOOTH",
"88 275 LINE",
"88 193 LINE",
"375 193 LINE SMOOTH",
"457 193 OFFCURVE",
"496 246 OFFCURVE",
"496 334 CURVE SMOOTH",
"496 444 OFFCURVE",
"434 502 OFFCURVE",
"279 502 CURVE SMOOTH"
);
}
);
width = 541;
}
);
leftKerningGroup = c;
rightKerningGroup = ae;
unicode = 0065;
},
{
glyphname = f;
lastChange = "2014-10-16 13:20:11 +0000";
layers = (
{
layerId = "E21536AE-9819-4FE7-8A20-8865FE3C0515";
paths = (
{
closed = 1;
nodes = (
"155 714 OFFCURVE",
"122 669 OFFCURVE",
"122 581 CURVE SMOOTH",
"122 0 LINE",
"146 0 LINE",
"146 581 LINE SMOOTH",
"146 663 OFFCURVE",
"175 692 OFFCURVE",
"255 692 CURVE SMOOTH",
"365 692 LINE",
"365 710 LINE",
"331 713 OFFCURVE",
"275 714 OFFCURVE",
"247 714 CURVE SMOOTH"
);
},
{
closed = 1;
nodes = (
"128 480 LINE",
"35 475 LINE",
"35 458 LINE",
"324 458 LINE",
"324 480 LINE"
);
}
);
width = 354;
},
{
layerId = "924B7471-43FB-4CAD-AF7E-45215B64D997";
paths = (
{
closed = 1;
nodes = (
"139 724 OFFCURVE",
"92 655 OFFCURVE",
"92 561 CURVE SMOOTH",
"92 0 LINE",
"303 0 LINE",
"303 532 LINE SMOOTH",
"303 571 OFFCURVE",
"314 584 OFFCURVE",
"351 584 CURVE SMOOTH",
"439 584 LINE",
"459 710 LINE",
"409 720 OFFCURVE",
"316 724 OFFCURVE",
"276 724 CURVE SMOOTH"
);
},
{
closed = 1;
nodes = (
"93 500 LINE",
"8 495 LINE",
"8 374 LINE",
"422 374 LINE",
"422 500 LINE"
);
}
);
width = 427;
},
{
layerId = "77EC9CE6-E33A-4866-9665-0506F15B57B2";
paths = (
{
closed = 1;
nodes = (
"153 718 OFFCURVE",
"114 663 OFFCURVE",
"114 572 CURVE SMOOTH",
"114 0 LINE",
"222 0 LINE",
"222 559 LINE SMOOTH",
"222 610 OFFCURVE",
"242 630 OFFCURVE",
"300 630 CURVE SMOOTH",
"397 630 LINE",
"406 710 LINE",
"366 716 OFFCURVE",
"295 718 OFFCURVE",
"262 718 CURVE SMOOTH"
);
},
{
closed = 1;
nodes = (
"118 489 LINE",
"26 484 LINE",
"26 406 LINE",
"369 406 LINE",
"369 489 LINE"
);
}
);
width = 390;
}
);
leftKerningGroup = f;
rightKerningGroup = f;
unicode = 0066;
},
{
glyphname = g;
lastChange = "2014-10-16 13:20:11 +0000";
layers = (
{
anchors = (
{
name = top;
position = "{292, 547}";
}
);
layerId = "924B7471-43FB-4CAD-AF7E-45215B64D997";
paths = (
{
closed = 1;
nodes = (
"99 514 OFFCURVE",
"29 471 OFFCURVE",
"29 356 CURVE SMOOTH",
"29 240 OFFCURVE",
"98 198 OFFCURVE",
"287 198 CURVE SMOOTH",
"477 198 OFFCURVE",
"544 240 OFFCURVE",
"544 356 CURVE SMOOTH",
"544 471 OFFCURVE",
"476 514 OFFCURVE",
"288 514 CURVE SMOOTH"
);
},
{
closed = 1;
nodes = (
"336 399 OFFCURVE",
"349 391 OFFCURVE",
"349 356 CURVE SMOOTH",
"349 321 OFFCURVE",
"336 312 OFFCURVE",
"287 312 CURVE SMOOTH",
"238 312 OFFCURVE",
"224 321 OFFCURVE",
"224 356 CURVE SMOOTH",
"224 391 OFFCURVE",
"238 399 OFFCURVE",
"287 399 CURVE SMOOTH"
);
},
{
closed = 1;
nodes = (
"414 500 LINE",
"451 399 LINE",
"591 423 LINE",
"601 500 LINE"
);
},
{
closed = 1;
nodes = (
"37 202 OFFCURVE",
"23 41 OFFCURVE",
"173 29 CURVE SMOOTH",
"309 19 LINE SMOOTH",
"363 15 OFFCURVE",
"387 13 OFFCURVE",
"387 -12 CURVE SMOOTH",
"387 -34 OFFCURVE",
"367 -39 OFFCURVE",
"291 -39 CURVE SMOOTH",
"222 -39 OFFCURVE",
"203 -33 OFFCURVE",
"203 -7 CURVE SMOOTH",
"203 24 OFFCURVE",
"220 23 OFFCURVE",
"281 66 CURVE SMOOTH",
"313 83 LINE",
"245 109 LINE",
"159 90 LINE SMOOTH",
"37 61 OFFCURVE",
"7 23 OFFCURVE",
"7 -39 CURVE SMOOTH",
"7 -142 OFFCURVE",
"55 -181 OFFCURVE",
"294 -181 CURVE SMOOTH",
"497 -181 OFFCURVE",
"583 -155 OFFCURVE",
"583 -13 CURVE SMOOTH",
"583 86 OFFCURVE",
"537 136 OFFCURVE",
"423 144 CURVE SMOOTH",
"241 156 LINE SMOOTH",
"195 159 OFFCURVE",
"202 204 OFFCURVE",
"225 209 CURVE",
"128 226 LINE"
);
}
);
width = 604;
},
{
associatedMasterId = "E21536AE-9819-4FE7-8A20-8865FE3C0515";
layerId = "2A665385-4A7A-4A0C-9574-639623185B9D";
name = "Light Apr 26 13, 18:43";
paths = (
{
closed = 1;
nodes = (
"147 492 OFFCURVE",
"93 422 OFFCURVE",
"93 240 CURVE SMOOTH",
"93 58 OFFCURVE",
"141 -12 OFFCURVE",
"267 -12 CURVE SMOOTH",
"333 -12 OFFCURVE",
"397 7 OFFCURVE",
"468 38 CURVE",
"468 61 LINE",
"386 28 OFFCURVE",
"331 11 OFFCURVE",
"267 11 CURVE SMOOTH",
"160 11 OFFCURVE",
"118 72 OFFCURVE",
"118 240 CURVE SMOOTH",
"118 408 OFFCURVE",
"166 469 OFFCURVE",
"287 469 CURVE SMOOTH",
"345 469 OFFCURVE",
"398 462 OFFCURVE",
"468 443 CURVE",
"489 461 LINE",
"418 480 OFFCURVE",
"354 492 OFFCURVE",
"287 492 CURVE SMOOTH"
);
},
{
closed = 1;
nodes = (
"465 54 LINE",
"468 38 LINE",
"464 7 OFFCURVE",
"463 -16 OFFCURVE",
"463 -55 CURVE SMOOTH",
"463 -176 OFFCURVE",
"357 -199 OFFCURVE",
"289 -199 CURVE SMOOTH",
"231 -199 OFFCURVE",
"168 -187 OFFCURVE",
"118 -175 CURVE",
"115 -193 LINE",
"165 -209 OFFCURVE",
"239 -222 OFFCURVE",
"289 -222 CURVE SMOOTH",
"356 -222 OFFCURVE",
"489 -208 OFFCURVE",
"489 -53 CURVE SMOOTH",
"489 461 LINE",
"465 461 LINE"
);
}
);
width = 600;
},
{
associatedMasterId = "E21536AE-9819-4FE7-8A20-8865FE3C0515";
layerId = "2113CBC0-42E0-4E6B-8667-CDA962280002";
name = "Light Apr 26 13, 19:05";
paths = (
{
closed = 1;
nodes = (
"435 186 OFFCURVE",
"490 237 OFFCURVE",
"490 339 CURVE SMOOTH",
"490 441 OFFCURVE",
"435 492 OFFCURVE",
"294 492 CURVE SMOOTH",
"153 492 OFFCURVE",
"98 441 OFFCURVE",
"98 339 CURVE SMOOTH",
"98 237 OFFCURVE",
"153 186 OFFCURVE",
"294 186 CURVE SMOOTH"
);
},
{
closed = 1;
nodes = (
"168 208 OFFCURVE",
"122 251 OFFCURVE",
"122 339 CURVE SMOOTH",
"122 427 OFFCURVE",
"168 470 OFFCURVE",
"294 470 CURVE SMOOTH",
"420 470 OFFCURVE",
"466 427 OFFCURVE",
"466 339 CURVE SMOOTH",
"466 251 OFFCURVE",
"420 208 OFFCURVE",
"294 208 CURVE SMOOTH"
);
},
{
closed = 1;
nodes = (
"178 70 OFFCURVE",
"77 36 OFFCURVE",
"77 -66 CURVE SMOOTH",
"77 -173 OFFCURVE",
"136 -212 OFFCURVE",
"300 -212 CURVE SMOOTH",
"466 -212 OFFCURVE",
"524 -172 OFFCURVE",
"524 -69 CURVE SMOOTH",
"524 15 OFFCURVE",
"486 45 OFFCURVE",
"402 62 CURVE SMOOTH",
"209 106 LINE SMOOTH",
"149 120 OFFCURVE",
"144 176 OFFCURVE",
"185 220 CURVE",
"167 222 LINE",
"118 181 OFFCURVE",
"128 103 OFFCURVE",
"196 87 CURVE SMOOTH",
"392 42 LINE SMOOTH",
"462 28 OFFCURVE",
"500 9 OFFCURVE",
"500 -69 CURVE SMOOTH",
"500 -159 OFFCURVE",
"449 -189 OFFCURVE",
"304 -189 CURVE SMOOTH",
"154 -189 OFFCURVE",
"101 -157 OFFCURVE",
"101 -64 CURVE SMOOTH",
"101 20 OFFCURVE",
"190 50 OFFCURVE",
"251 81 CURVE",
"246 91 LINE"
);
},
{
closed = 1;
nodes = (
"416 458 LINE",
"527 462 LINE",
"527 480 LINE",
"381 480 LINE"
);
}
);
width = 600;
},
{
associatedMasterId = "E21536AE-9819-4FE7-8A20-8865FE3C0515";
layerId = "FBEF36C0-DDCB-4C88-92D9-8F0A8764F787";
name = "Light Apr 26 13, 19:23";
paths = (
{
closed = 1;
nodes = (
"418 196 OFFCURVE",
"471 244 OFFCURVE",
"471 343 CURVE SMOOTH",
"471 441 OFFCURVE",
"419 492 OFFCURVE",
"281 492 CURVE SMOOTH",
"143 492 OFFCURVE",
"89 441 OFFCURVE",
"89 343 CURVE SMOOTH",
"89 244 OFFCURVE",
"144 196 OFFCURVE",
"281 196 CURVE SMOOTH"
);
},
{
closed = 1;
nodes = (
"159 218 OFFCURVE",
"113 258 OFFCURVE",
"113 343 CURVE SMOOTH",
"113 427 OFFCURVE",
"158 470 OFFCURVE",
"281 470 CURVE SMOOTH",
"404 470 OFFCURVE",
"447 427 OFFCURVE",
"447 343 CURVE SMOOTH",
"447 258 OFFCURVE",
"403 218 OFFCURVE",
"281 218 CURVE SMOOTH"
);
},
{
closed = 1;
nodes = (
"154 62 LINE SMOOTH",
"103 26 OFFCURVE",
"69 -5 OFFCURVE",
"69 -74 CURVE SMOOTH",
"69 -176 OFFCURVE",
"127 -212 OFFCURVE",
"286 -212 CURVE SMOOTH",
"438 -212 OFFCURVE",
"497 -176 OFFCURVE",
"497 -74 CURVE SMOOTH",
"497 14 OFFCURVE",
"474 42 OFFCURVE",
"383 63 CURVE SMOOTH",
"190 107 LINE SMOOTH",
"125 122 OFFCURVE",
"131 183 OFFCURVE",
"168 227 CURVE",
"150 229 LINE",
"104 191 OFFCURVE",
"104 104 OFFCURVE",
"177 87 CURVE SMOOTH",
"373 42 LINE SMOOTH",
"453 25 OFFCURVE",
"473 2 OFFCURVE",
"473 -74 CURVE SMOOTH",
"473 -159 OFFCURVE",
"421 -189 OFFCURVE",
"286 -189 CURVE SMOOTH",
"145 -189 OFFCURVE",
"93 -159 OFFCURVE",
"93 -74 CURVE SMOOTH",
"93 -11 OFFCURVE",
"122 19 OFFCURVE",
"170 47 CURVE SMOOTH",
"235 87 LINE",
"210 94 LINE"
);
},
{
closed = 1;
nodes = (
"407 458 LINE",
"518 462 LINE",
"518 480 LINE",
"372 480 LINE"
);
}
);
width = 565;
},
{
anchors = (
{
name = top;
position = "{270, 558}";
}
);
layerId = "E21536AE-9819-4FE7-8A20-8865FE3C0515";
paths = (
{
closed = 1;
nodes = (
"131 492 OFFCURVE",
"77 441 OFFCURVE",
"77 343 CURVE SMOOTH",
"77 244 OFFCURVE",
"132 196 OFFCURVE",
"269 196 CURVE SMOOTH",
"406 196 OFFCURVE",
"459 244 OFFCURVE",
"459 343 CURVE SMOOTH",
"459 441 OFFCURVE",
"407 492 OFFCURVE",
"269 492 CURVE SMOOTH"
);
},
{
closed = 1;
nodes = (
"392 470 OFFCURVE",
"435 427 OFFCURVE",
"435 343 CURVE SMOOTH",
"435 258 OFFCURVE",
"391 218 OFFCURVE",
"269 218 CURVE SMOOTH",
"147 218 OFFCURVE",
"101 258 OFFCURVE",
"101 343 CURVE SMOOTH",
"101 427 OFFCURVE",
"146 470 OFFCURVE",
"269 470 CURVE SMOOTH"
);
},
{
closed = 1;
nodes = (
"360 480 LINE",
"395 458 LINE",
"513 462 LINE",
"516 480 LINE"
);
},
{
closed = 1;
nodes = (
"74 183 OFFCURVE",
"70 86 OFFCURVE",
"175 67 CURVE SMOOTH",
"374 32 LINE SMOOTH",
"446 19 OFFCURVE",
"461 -10 OFFCURVE",
"461 -74 CURVE SMOOTH",
"461 -159 OFFCURVE",
"409 -189 OFFCURVE",
"274 -189 CURVE SMOOTH",
"133 -189 OFFCURVE",
"81 -159 OFFCURVE",
"81 -74 CURVE SMOOTH",
"81 -11 OFFCURVE",
"90 19 OFFCURVE",
"138 47 CURVE SMOOTH",
"189 78 LINE",
"164 85 LINE",
"122 62 LINE SMOOTH",
"67 32 OFFCURVE",
"57 -7 OFFCURVE",
"57 -74 CURVE SMOOTH",
"57 -176 OFFCURVE",
"115 -212 OFFCURVE",
"274 -212 CURVE SMOOTH",
"426 -212 OFFCURVE",
"485 -176 OFFCURVE",
"485 -74 CURVE SMOOTH",
"485 2 OFFCURVE",
"465 38 OFFCURVE",
"381 53 CURVE SMOOTH",
"188 87 LINE SMOOTH",
"93 104 OFFCURVE",
"102 177 OFFCURVE",
"156 227 CURVE",
"136 230 LINE"
);
}
);
width = 545;
},
{
anchors = (
{
name = top;
position = "{273, 553}";
}
);
layerId = "77EC9CE6-E33A-4866-9665-0506F15B57B2";
paths = (
{
closed = 1;
nodes = (
"108 502 OFFCURVE",
"56 458 OFFCURVE",
"56 343 CURVE SMOOTH",
"56 234 OFFCURVE",
"108 187 OFFCURVE",
"271 187 CURVE SMOOTH",
"434 187 OFFCURVE",
"486 234 OFFCURVE",
"486 344 CURVE SMOOTH",
"486 458 OFFCURVE",
"434 502 OFFCURVE",
"272 502 CURVE SMOOTH"
);
},
{
closed = 1;
nodes = (
"359 421 OFFCURVE",
"387 403 OFFCURVE",
"387 344 CURVE SMOOTH",
"387 288 OFFCURVE",
"359 267 OFFCURVE",
"271 267 CURVE SMOOTH",
"183 267 OFFCURVE",
"154 288 OFFCURVE",
"154 344 CURVE SMOOTH",
"154 403 OFFCURVE",
"183 421 OFFCURVE",
"271 421 CURVE SMOOTH"
);
},
{
closed = 1;
nodes = (
"376 489 LINE",
"411 419 LINE",
"538 432 LINE",
"544 489 LINE"
);
},
{
closed = 1;
nodes = (
"67 188 OFFCURVE",
"57 53 OFFCURVE",
"162 40 CURVE SMOOTH",
"329 19 LINE SMOOTH",
"397 10 OFFCURVE",
"412 7 OFFCURVE",
"412 -37 CURVE SMOOTH",
"412 -97 OFFCURVE",
"387 -108 OFFCURVE",
"276 -108 CURVE SMOOTH",
"164 -108 OFFCURVE",
"140 -100 OFFCURVE",
"140 -37 CURVE SMOOTH",
"140 2 OFFCURVE",
"163 24 OFFCURVE",
"201 55 CURVE SMOOTH",
"249 95 LINE",
"205 111 LINE",
"138 75 LINE SMOOTH",
"68 40 OFFCURVE",
"35 15 OFFCURVE",
"35 -47 CURVE SMOOTH",
"35 -161 OFFCURVE",
"94 -198 OFFCURVE",
"277 -198 CURVE SMOOTH",
"459 -198 OFFCURVE",
"517 -161 OFFCURVE",
"517 -43 CURVE SMOOTH",
"517 40 OFFCURVE",
"481 84 OFFCURVE",
"386 98 CURVE SMOOTH",
"208 125 LINE SMOOTH",
"159 132 OFFCURVE",
"165 187 OFFCURVE",
"191 209 CURVE",
"132 218 LINE"
);
}
);
width = 563;
}
);
leftKerningGroup = g;
rightKerningGroup = g;
unicode = 0067;
},
{
glyphname = h;
lastChange = "2014-10-16 13:20:11 +0000";
layers = (
{
anchors = (
{
name = center;
position = "{284, 240}";
},
{
name = top;
position = "{284, 480}";
}
);
layerId = "E21536AE-9819-4FE7-8A20-8865FE3C0515";
paths = (
{
closed = 1;
nodes = (
"274 492 OFFCURVE",
"198 454 OFFCURVE",
"115 392 CURVE",
"115 369 LINE",
"209 435 OFFCURVE",
"271 469 OFFCURVE",
"344 469 CURVE SMOOTH",
"418 469 OFFCURVE",
"454 434 OFFCURVE",
"454 358 CURVE SMOOTH",
"454 0 LINE",
"478 0 LINE",
"478 361 LINE SMOOTH",
"478 447 OFFCURVE",
"434 492 OFFCURVE",
"349 492 CURVE SMOOTH"
);
},
{
closed = 1;
nodes = (
"94 700 LINE",
"94 0 LINE",
"118 0 LINE",
"118 376 LINE",
"115 392 LINE",
"119 419 OFFCURVE",
"120 450 OFFCURVE",
"120 485 CURVE SMOOTH",
"118 700 LINE"
);
}
);
width = 569;
},
{
layerId = "924B7471-43FB-4CAD-AF7E-45215B64D997";
paths = (
{
closed = 1;
nodes = (
"361 514 OFFCURVE",
"280 480 OFFCURVE",
"209 409 CURVE",
"231 318 LINE",
"282 335 OFFCURVE",
"309 337 OFFCURVE",
"335 337 CURVE SMOOTH",
"361 337 OFFCURVE",
"371 329 OFFCURVE",
"371 307 CURVE SMOOTH",
"371 0 LINE",
"581 0 LINE",
"581 374 LINE",
"581 466 OFFCURVE",
"530 514 OFFCURVE",
"433 514 CURVE SMOOTH"
);
},
{
closed = 1;
nodes = (
"43 700 LINE",
"43 0 LINE",
"253 0 LINE",
"253 386 LINE",
"233 398 LINE",
"244 431 OFFCURVE",
"254 491 OFFCURVE",
"254 551 CURVE SMOOTH",
"253 700 LINE"
);
}
);
width = 621;
},
{
layerId = "77EC9CE6-E33A-4866-9665-0506F15B57B2";
paths = (
{
closed = 1;
nodes = (
"309 502 OFFCURVE",
"236 467 OFFCURVE",
"163 411 CURVE",
"168 336 LINE",
"247 384 OFFCURVE",
"298 411 OFFCURVE",
"353 411 CURVE SMOOTH",
"395 411 OFFCURVE",
"408 395 OFFCURVE",
"408 335 CURVE SMOOTH",
"408 0 LINE",
"516 0 LINE",
"516 367 LINE SMOOTH",
"516 455 OFFCURVE",
"469 502 OFFCURVE",
"383 502 CURVE SMOOTH"
);
},
{
closed = 1;
nodes = (
"72 700 LINE",
"72 0 LINE",
"180 0 LINE",
"180 380 LINE",
"169 395 LINE",
"176 424 OFFCURVE",
"181 468 OFFCURVE",
"181 515 CURVE SMOOTH",
"180 700 LINE"
);
}
);
width = 585;
}
);
leftKerningGroup = b;
rightKerningGroup = h;
unicode = 0068;
},
{
glyphname = hbar;
lastChange = "2014-10-16 13:20:11 +0000";
layers = (
{
components = (
{
name = h;
transform = "{1, 0, 0, 1, 4, 0}";
}
);
layerId = "E21536AE-9819-4FE7-8A20-8865FE3C0515";
paths = (
{
closed = 1;
nodes = (
"13 610 LINE",
"13 590 LINE",
"288 590 LINE",
"288 610 LINE"
);
}
);
width = 573;
},
{
components = (
{
name = h;
transform = "{1, 0, 0, 1, 3, 0}";
}
);
layerId = "924B7471-43FB-4CAD-AF7E-45215B64D997";
paths = (
{
closed = 1;
nodes = (
"-9 631 LINE",
"-9 547 LINE",
"362 547 LINE",
"362 631 LINE"
);
}
);
width = 624;
},
{
components = (
{
name = h;
transform = "{1, 0, 0, 1, 4, 0}";
}
);
layerId = "77EC9CE6-E33A-4866-9665-0506F15B57B2";
paths = (
{
closed = 1;
nodes = (
"4 627 LINE",
"4 567 LINE",
"322 567 LINE",
"322 627 LINE"
);
}
);
width = 589;
}
);
leftKerningGroup = b;
rightKerningGroup = h;
unicode = 0127;
},
{
glyphname = i;
lastChange = "2014-10-16 13:20:11 +0000";
layers = (
{
layerId = "E21536AE-9819-4FE7-8A20-8865FE3C0515";
paths = (
{
closed = 1;
nodes = (
"98 480 LINE",
"98 0 LINE",
"122 0 LINE",
"122 480 LINE"
);
},
{
closed = 1;
nodes = (
"105 679 LINE SMOOTH",
"97 679 OFFCURVE",
"93 675 OFFCURVE",
"93 667 CURVE SMOOTH",
"93 605 LINE SMOOTH",
"93 597 OFFCURVE",
"97 593 OFFCURVE",
"105 593 CURVE SMOOTH",
"115 593 LINE SMOOTH",
"123 593 OFFCURVE",
"127 597 OFFCURVE",
"127 605 CURVE SMOOTH",
"127 667 LINE SMOOTH",
"127 675 OFFCURVE",
"123 679 OFFCURVE",
"115 679 CURVE SMOOTH"
);
}
);
width = 220;
},
{
layerId = "924B7471-43FB-4CAD-AF7E-45215B64D997";
paths = (
{
closed = 1;
nodes = (
"47 500 LINE",
"47 0 LINE",
"256 0 LINE",
"256 500 LINE"
);
},
{
closed = 1;
nodes = (
"107 729 LINE SMOOTH",
"66 729 OFFCURVE",
"46 709 OFFCURVE",
"46 667 CURVE SMOOTH",
"46 616 LINE SMOOTH",
"46 574 OFFCURVE",
"66 554 OFFCURVE",
"107 554 CURVE SMOOTH",
"196 554 LINE SMOOTH",
"237 554 OFFCURVE",
"257 574 OFFCURVE",
"257 616 CURVE SMOOTH",
"257 667 LINE SMOOTH",
"257 709 OFFCURVE",
"237 729 OFFCURVE",
"196 729 CURVE SMOOTH"
);
}
);
width = 303;
},
{
layerId = "77EC9CE6-E33A-4866-9665-0506F15B57B2";
paths = (
{
closed = 1;
nodes = (
"76 489 LINE",
"76 0 LINE",
"183 0 LINE",
"183 489 LINE"
);
},
{
closed = 1;
nodes = (
"104 699 LINE SMOOTH",
"83 699 OFFCURVE",
"73 687 OFFCURVE",
"73 668 CURVE SMOOTH",
"73 613 LINE SMOOTH",
"73 592 OFFCURVE",
"83 582 OFFCURVE",
"104 582 CURVE SMOOTH",
"155 582 LINE SMOOTH",
"176 582 OFFCURVE",
"186 592 OFFCURVE",
"186 613 CURVE SMOOTH",
"186 668 LINE SMOOTH",
"186 687 OFFCURVE",
"176 699 OFFCURVE",
"155 699 CURVE SMOOTH"
);
}
);
width = 259;
}
);
leftKerningGroup = i;
rightKerningGroup = H;
unicode = 0069;
},
{
glyphname = idotless;
lastChange = "2016-10-28 16:07:44 +0000";
layers = (
{
anchors = (
{
name = ogonek;
position = "{122, 0}";
},
{
name = top;
position = "{109, 558}";
}
);
layerId = "E21536AE-9819-4FE7-8A20-8865FE3C0515";
paths = (
{
closed = 1;
nodes = (
"98 480 LINE",
"98 0 LINE",
"122 0 LINE",
"122 480 LINE"
);
}
);
width = 220;
},
{
anchors = (
{
name = ogonek;
position = "{238, 0}";
},
{
name = top;
position = "{153, 547}";
}
);
layerId = "924B7471-43FB-4CAD-AF7E-45215B64D997";
paths = (
{
closed = 1;
nodes = (
"47 500 LINE",
"47 0 LINE",
"258 0 LINE",
"258 500 LINE"
);
}
);
width = 305;
},
{
anchors = (
{
name = ogonek;
position = "{175, 0}";
},
{
name = top;
position = "{131, 553}";
}
);
layerId = "77EC9CE6-E33A-4866-9665-0506F15B57B2";
paths = (
{
closed = 1;
nodes = (
"76 489 LINE",
"76 0 LINE",
"184 0 LINE",
"184 489 LINE"
);
}
);
width = 260;
}
);
leftKerningGroup = i;
rightKerningGroup = H;
unicode = 0131;
},
{
glyphname = j;
lastChange = "2014-10-16 13:20:11 +0000";
layers = (
{
layerId = "E21536AE-9819-4FE7-8A20-8865FE3C0515";
paths = (
{
closed = 1;
nodes = (
"98 480 LINE",
"98 -46 LINE SMOOTH",
"98 -111 OFFCURVE",
"77 -155 OFFCURVE",
"43 -200 CURVE",
"56 -210 LINE",
"96 -165 OFFCURVE",
"122 -111 OFFCURVE",
"122 -46 CURVE SMOOTH",
"122 480 LINE"
);
},
{
closed = 1;
nodes = (
"105 679 LINE",
"97 679 OFFCURVE",
"93 675 OFFCURVE",
"93 667 CURVE SMOOTH",
"93 605 LINE",
"93 597 OFFCURVE",
"97 593 OFFCURVE",
"105 593 CURVE SMOOTH",
"115 593 LINE",
"123 593 OFFCURVE",
"127 597 OFFCURVE",
"127 605 CURVE SMOOTH",
"127 667 LINE",
"127 675 OFFCURVE",
"123 679 OFFCURVE",
"115 679 CURVE SMOOTH"
);
}
);
width = 220;
},
{
layerId = "924B7471-43FB-4CAD-AF7E-45215B64D997";
paths = (
{
closed = 1;
nodes = (
"48 500 LINE",
"48 58 LINE SMOOTH",
"48 1 OFFCURVE",
"32 -45 OFFCURVE",
"-21 -98 CURVE",
"95 -190 LINE",
"196 -149 OFFCURVE",
"257 -46 OFFCURVE",
"257 58 CURVE SMOOTH",
"257 500 LINE"
);
},
{
closed = 1;
nodes = (
"105 739 LINE SMOOTH",
"64 739 OFFCURVE",
"44 719 OFFCURVE",
"44 677 CURVE SMOOTH",
"44 626 LINE SMOOTH",
"44 584 OFFCURVE",
"64 564 OFFCURVE",
"105 564 CURVE SMOOTH",
"194 564 LINE SMOOTH",
"235 564 OFFCURVE",
"255 584 OFFCURVE",
"255 626 CURVE SMOOTH",
"255 677 LINE SMOOTH",
"255 719 OFFCURVE",
"235 739 OFFCURVE",
"194 739 CURVE SMOOTH"
);
}
);
width = 304;
},
{
layerId = "77EC9CE6-E33A-4866-9665-0506F15B57B2";
paths = (
{
closed = 1;
nodes = (
"77 489 LINE",
"77 1 LINE SMOOTH",
"77 -61 OFFCURVE",
"60 -106 OFFCURVE",
"21 -154 CURVE",
"81 -201 LINE",
"145 -158 OFFCURVE",
"185 -82 OFFCURVE",
"185 1 CURVE SMOOTH",
"185 489 LINE"
);
},
{
closed = 1;
nodes = (
"106 699 LINE",
"85 699 OFFCURVE",
"75 687 OFFCURVE",
"75 668 CURVE SMOOTH",
"75 613 LINE",
"75 592 OFFCURVE",
"85 582 OFFCURVE",
"106 582 CURVE SMOOTH",
"157 582 LINE",
"178 582 OFFCURVE",
"188 592 OFFCURVE",
"188 613 CURVE SMOOTH",
"188 668 LINE",
"188 687 OFFCURVE",
"178 699 OFFCURVE",
"157 699 CURVE SMOOTH"
);
}
);
width = 261;
}
);
leftKerningGroup = i;
rightKerningGroup = H;
unicode = 006A;
},
{
glyphname = k;
lastChange = "2014-10-16 13:20:11 +0000";
layers = (
{
anchors = (
{
name = bottom;
position = "{236, 0}";
}
);
layerId = "E21536AE-9819-4FE7-8A20-8865FE3C0515";
paths = (
{
closed = 1;
nodes = (
"392 480 LINE",
"189 276 LINE",
"409 0 LINE",
"440 0 LINE",
"243 248 LINE SMOOTH",
"237 256 OFFCURVE",
"226 267 OFFCURVE",
"220 273 CURVE",
"220 275 LINE",
"226 279 OFFCURVE",
"237 289 OFFCURVE",
"243 295 CURVE SMOOTH",
"424 480 LINE"
);
},
{
closed = 1;
nodes = (
"94 700 LINE",
"94 0 LINE",
"118 0 LINE",
"118 177 LINE SMOOTH",
"118 210 OFFCURVE",
"118 239 OFFCURVE",
"115 275 CURVE",
"119 310 OFFCURVE",
"120 333 OFFCURVE",
"120 368 CURVE SMOOTH",
"118 700 LINE"
);
},
{
closed = 1;
nodes = (
"103 286 LINE",
"103 264 LINE",
"218 264 LINE",
"218 286 LINE"
);
}
);
width = 473;
},
{
guideLines = (
{
angle = 90;
position = "{470, 273}";
}
);
layerId = "924B7471-43FB-4CAD-AF7E-45215B64D997";
paths = (
{
closed = 1;
nodes = (
"369 500 LINE",
"241 277 LINE",
"387 0 LINE",
"618 0 LINE",
"494 205 LINE SMOOTH",
"479 233 OFFCURVE",
"451 264 OFFCURVE",
"436 272 CURVE",
"436 276 LINE",
"451 285 OFFCURVE",
"479 309 OFFCURVE",
"494 336 CURVE SMOOTH",
"599 500 LINE"
);
},
{
closed = 1;
nodes = (
"43 700 LINE",
"43 0 LINE",
"253 0 LINE",
"253 143 LINE SMOOTH",
"253 182 OFFCURVE",
"243 236 OFFCURVE",
"232 279 CURVE",
"246 325 OFFCURVE",
"253 381 OFFCURVE",
"253 432 CURVE SMOOTH",
"253 700 LINE"
);
},
{
closed = 1;
nodes = (
"191 334 LINE",
"191 216 LINE",
"308 216 LINE",
"308 334 LINE"
);
}
);
width = 609;
},
{
guideLines = (
{
angle = 90;
position = "{471, 273}";
}
);
layerId = "77EC9CE6-E33A-4866-9665-0506F15B57B2";
paths = (
{
closed = 1;
nodes = (
"371 489 LINE",
"204 280 LINE",
"387 0 LINE",
"511 0 LINE",
"353 229 LINE SMOOTH",
"343 246 OFFCURVE",
"325 266 OFFCURVE",
"315 273 CURVE",
"315 275 LINE",
"325 282 OFFCURVE",
"343 298 OFFCURVE",
"353 313 CURVE SMOOTH",
"495 489 LINE"
);
},
{
closed = 1;
nodes = (
"72 700 LINE",
"72 0 LINE",
"180 0 LINE",
"180 162 LINE SMOOTH",
"180 197 OFFCURVE",
"175 238 OFFCURVE",
"169 277 CURVE",
"177 317 OFFCURVE",
"181 354 OFFCURVE",
"181 397 CURVE SMOOTH",
"180 700 LINE"
);
},
{
closed = 1;
nodes = (
"144 313 LINE",
"144 237 LINE",
"257 237 LINE",
"257 313 LINE"
);
}
);
width = 523;
}
);
leftKerningGroup = b;
rightKerningGroup = k;
unicode = 006B;
},
{
glyphname = l;
lastChange = "2014-10-16 13:20:11 +0000";
layers = (
{
anchors = (
{
name = top;
position = "{108, 763}";
}
);
layerId = "E21536AE-9819-4FE7-8A20-8865FE3C0515";
paths = (
{
closed = 1;
nodes = (
"95 700 LINE",
"95 95 LINE SMOOTH",
"95 30 OFFCURVE",
"135 -6 OFFCURVE",
"196 -6 CURVE SMOOTH",
"214 -6 OFFCURVE",
"247 -4 OFFCURVE",
"260 0 CURVE",
"257 16 LINE",
"199 16 LINE SMOOTH",
"148 16 OFFCURVE",
"119 44 OFFCURVE",
"119 96 CURVE SMOOTH",
"119 700 LINE"
);
}
);
width = 270;
},
{
anchors = (
{
name = top;
position = "{155, 740}";
}
);
layerId = "924B7471-43FB-4CAD-AF7E-45215B64D997";
paths = (
{
closed = 1;
nodes = (
"44 700 LINE",
"44 126 LINE SMOOTH",
"44 38 OFFCURVE",
"108 -14 OFFCURVE",
"213 -14 CURVE SMOOTH",
"252 -14 OFFCURVE",
"330 -6 OFFCURVE",
"360 12 CURVE",
"337 146 LINE",
"303 146 LINE SMOOTH",
"269 146 OFFCURVE",
"253 156 OFFCURVE",
"253 182 CURVE SMOOTH",
"253 700 LINE"
);
}
);
width = 358;
},
{
anchors = (
{
name = top;
position = "{130, 753}";
}
);
layerId = "77EC9CE6-E33A-4866-9665-0506F15B57B2";
paths = (
{
closed = 1;
nodes = (
"73 700 LINE",
"73 123 LINE SMOOTH",
"73 37 OFFCURVE",
"122 -10 OFFCURVE",
"199 -10 CURVE SMOOTH",
"225 -10 OFFCURVE",
"276 -5 OFFCURVE",
"297 5 CURVE",
"284 88 LINE",
"241 88 LINE SMOOTH",
"201 88 OFFCURVE",
"180 108 OFFCURVE",
"180 148 CURVE SMOOTH",
"181 700 LINE"
);
}
);
width = 307;
}
);
leftKerningGroup = l;
rightKerningGroup = l;
unicode = 006C;
},
{
glyphname = lslash;
lastChange = "2014-10-16 13:20:11 +0000";
layers = (
{
components = (
{
name = l;
transform = "{1, 0, 0, 1, 24, 0}";
}
);
layerId = "E21536AE-9819-4FE7-8A20-8865FE3C0515";
paths = (
{
closed = 1;
nodes = (
"31 345 LINE",
"31 324 LINE",
"262 426 LINE",
"262 447 LINE"
);
}
);
width = 302;
},
{
components = (
{
name = l;
transform = "{1, 0, 0, 1, 29, 0}";
}
);
layerId = "924B7471-43FB-4CAD-AF7E-45215B64D997";
paths = (
{
closed = 1;
nodes = (
"4 363 LINE",
"4 259 LINE",
"365 399 LINE",
"365 503 LINE"
);
}
);
width = 390;
},
{
components = (
{
name = l;
transform = "{1, 0, 0, 1, 21, 0}";
}
);
layerId = "77EC9CE6-E33A-4866-9665-0506F15B57B2";
paths = (
{
closed = 1;
nodes = (
"17 360 LINE",
"17 292 LINE",
"306 411 LINE",
"306 479 LINE"
);
}
);
width = 337;
}
);
leftKerningGroup = l;
rightKerningGroup = l;
unicode = 0142;
},
{
glyphname = m;
lastChange = "2014-10-16 13:20:11 +0000";
layers = (
{
layerId = "E21536AE-9819-4FE7-8A20-8865FE3C0515";
paths = (
{
closed = 1;
nodes = (
"596 492 OFFCURVE",
"526 458 OFFCURVE",
"451 392 CURVE",
"451 369 LINE",
"537 435 OFFCURVE",
"593 469 OFFCURVE",
"660 469 CURVE SMOOTH",
"729 469 OFFCURVE",
"765 434 OFFCURVE",
"765 358 CURVE SMOOTH",
"765 0 LINE",
"789 0 LINE",
"789 361 LINE SMOOTH",
"789 447 OFFCURVE",
"745 492 OFFCURVE",
"665 492 CURVE SMOOTH"
);
},
{
closed = 1;
nodes = (
"95 480 LINE",
"95 0 LINE",
"119 0 LINE",
"119 376 LINE",
"116 392 LINE",
"113 480 LINE"
);
},
{
closed = 1;
nodes = (
"261 492 OFFCURVE",
"191 458 OFFCURVE",
"116 392 CURVE",
"116 369 LINE",
"202 435 OFFCURVE",
"258 469 OFFCURVE",
"325 469 CURVE SMOOTH",
"394 469 OFFCURVE",
"430 434 OFFCURVE",
"430 358 CURVE SMOOTH",
"430 0 LINE",
"454 0 LINE",
"454 361 LINE SMOOTH",
"454 447 OFFCURVE",
"410 492 OFFCURVE",
"330 492 CURVE SMOOTH"
);
}
);
width = 880;
},
{
layerId = "924B7471-43FB-4CAD-AF7E-45215B64D997";
paths = (
{
closed = 1;
nodes = (
"626 514 OFFCURVE",
"574 484 OFFCURVE",
"516 421 CURVE",
"527 318 LINE",
"568 335 OFFCURVE",
"585 337 OFFCURVE",
"603 337 CURVE SMOOTH",
"628 337 OFFCURVE",
"636 329 OFFCURVE",
"636 307 CURVE SMOOTH",
"636 0 LINE",
"845 0 LINE",
"845 374 LINE SMOOTH",
"845 466 OFFCURVE",
"796 514 OFFCURVE",
"701 514 CURVE SMOOTH"
);
},
{
closed = 1;
nodes = (
"43 500 LINE",
"43 0 LINE",
"252 0 LINE",
"252 386 LINE",
"232 398 LINE",
"207 500 LINE"
);
},
{
closed = 1;
nodes = (
"328 514 OFFCURVE",
"278 484 OFFCURVE",
"219 421 CURVE",
"230 318 LINE",
"274 335 OFFCURVE",
"290 337 OFFCURVE",
"309 337 CURVE SMOOTH",
"333 337 OFFCURVE",
"343 329 OFFCURVE",
"343 307 CURVE SMOOTH",
"343 0 LINE",
"545 0 LINE",
"545 374 LINE SMOOTH",
"545 466 OFFCURVE",
"496 514 OFFCURVE",
"404 514 CURVE SMOOTH"
);
}
);
width = 885;
},
{
layerId = "77EC9CE6-E33A-4866-9665-0506F15B57B2";
paths = (
{
closed = 1;
nodes = (
"605 502 OFFCURVE",
"541 472 OFFCURVE",
"473 410 CURVE",
"480 336 LINE",
"558 391 OFFCURVE",
"587 411 OFFCURVE",
"634 411 CURVE SMOOTH",
"683 411 OFFCURVE",
"698 389 OFFCURVE",
"699 335 CURVE SMOOTH",
"699 0 LINE",
"805 0 LINE",
"805 367 LINE SMOOTH",
"805 455 OFFCURVE",
"759 502 OFFCURVE",
"673 502 CURVE SMOOTH"
);
},
{
closed = 1;
nodes = (
"72 489 LINE",
"72 0 LINE",
"179 0 LINE",
"179 380 LINE",
"168 395 LINE",
"161 489 LINE"
);
},
{
closed = 1;
nodes = (
"290 502 OFFCURVE",
"226 470 OFFCURVE",
"159 410 CURVE",
"167 336 LINE",
"247 393 OFFCURVE",
"277 411 OFFCURVE",
"322 411 CURVE SMOOTH",
"367 411 OFFCURVE",
"388 393 OFFCURVE",
"387 335 CURVE SMOOTH",
"387 0 LINE",
"491 0 LINE",
"491 367 LINE SMOOTH",
"490 456 OFFCURVE",
"444 502 OFFCURVE",
"360 502 CURVE SMOOTH"
);
}
);
width = 874;
}
);
leftKerningGroup = m;
rightKerningGroup = h;
unicode = 006D;
},
{
glyphname = n;
lastChange = "2014-10-16 13:20:11 +0000";
layers = (
{
anchors = (
{
name = bottom;
position = "{285, 0}";
},
{
name = top;
position = "{293, 558}";
}
);
layerId = "E21536AE-9819-4FE7-8A20-8865FE3C0515";
paths = (
{
closed = 1;
nodes = (
"275 492 OFFCURVE",
"199 458 OFFCURVE",
"116 392 CURVE",
"116 369 LINE",
"210 435 OFFCURVE",
"272 469 OFFCURVE",
"345 469 CURVE SMOOTH",
"419 469 OFFCURVE",
"455 434 OFFCURVE",
"455 358 CURVE SMOOTH",
"455 0 LINE",
"479 0 LINE",
"479 361 LINE SMOOTH",
"479 447 OFFCURVE",
"435 492 OFFCURVE",
"350 492 CURVE SMOOTH"
);
},
{
closed = 1;
nodes = (
"95 480 LINE",
"95 0 LINE",
"119 0 LINE",
"119 376 LINE",
"116 392 LINE",
"113 480 LINE"
);
}
);
width = 570;
},
{
anchors = (
{
name = top;
position = "{320, 547}";
}
);
layerId = "924B7471-43FB-4CAD-AF7E-45215B64D997";
paths = (
{
closed = 1;
nodes = (
"364 514 OFFCURVE",
"288 484 OFFCURVE",
"221 421 CURVE",
"231 318 LINE",
"282 335 OFFCURVE",
"309 337 OFFCURVE",
"335 337 CURVE SMOOTH",
"361 337 OFFCURVE",
"371 329 OFFCURVE",
"371 307 CURVE SMOOTH",
"371 0 LINE",
"581 0 LINE",
"581 374 LINE SMOOTH",
"581 466 OFFCURVE",
"530 514 OFFCURVE",
"433 514 CURVE SMOOTH"
);
},
{
closed = 1;
nodes = (
"43 500 LINE",
"43 0 LINE",
"253 0 LINE",
"253 386 LINE",
"234 398 LINE",
"208 500 LINE"
);
}
);
width = 621;
},
{
anchors = (
{
name = top;
position = "{299, 553}";
}
);
layerId = "77EC9CE6-E33A-4866-9665-0506F15B57B2";
paths = (
{
closed = 1;
nodes = (
"309 502 OFFCURVE",
"236 467 OFFCURVE",
"163 411 CURVE",
"168 336 LINE",
"247 382 OFFCURVE",
"298 411 OFFCURVE",
"353 411 CURVE SMOOTH",
"395 411 OFFCURVE",
"408 395 OFFCURVE",
"408 335 CURVE SMOOTH",
"408 0 LINE",
"516 0 LINE",
"516 367 LINE SMOOTH",
"516 455 OFFCURVE",
"469 502 OFFCURVE",
"383 502 CURVE SMOOTH"
);
},
{
closed = 1;
nodes = (
"72 489 LINE",
"72 0 LINE",
"180 0 LINE",
"179 380 LINE",
"172 395 LINE",
"164 489 LINE"
);
}
);
width = 585;
}
);
leftKerningGroup = m;
rightKerningGroup = h;
unicode = 006E;
},
{
glyphname = eng;
lastChange = "2014-10-16 13:20:11 +0000";
layers = (
{
layerId = "E21536AE-9819-4FE7-8A20-8865FE3C0515";
paths = (
{
closed = 1;
nodes = (
"275 492 OFFCURVE",
"199 458 OFFCURVE",
"116 392 CURVE",
"113 480 LINE",
"95 480 LINE",
"95 0 LINE",
"119 0 LINE",
"119 371 LINE",
"211 436 OFFCURVE",
"273 469 OFFCURVE",
"345 469 CURVE SMOOTH",
"419 469 OFFCURVE",
"455 434 OFFCURVE",
"455 358 CURVE SMOOTH",
"455 -88 LINE SMOOTH",
"455 -155 OFFCURVE",
"425 -188 OFFCURVE",
"365 -188 CURVE SMOOTH",
"317 -188 LINE",
"314 -204 LINE",
"339 -207 OFFCURVE",
"353 -210 OFFCURVE",
"368 -210 CURVE SMOOTH",
"443 -211 OFFCURVE",
"479 -169 OFFCURVE",
"479 -89 CURVE SMOOTH",
"479 361 LINE SMOOTH",
"479 447 OFFCURVE",
"435 492 OFFCURVE",
"350 492 CURVE SMOOTH"
);
}
);
width = 570;
},
{
layerId = "924B7471-43FB-4CAD-AF7E-45215B64D997";
paths = (
{
closed = 1;
nodes = (
"367 514 OFFCURVE",
"293 486 OFFCURVE",
"226 427 CURVE",
"207 500 LINE",
"43 500 LINE",
"43 0 LINE",
"253 0 LINE",
"253 326 LINE",
"289 336 OFFCURVE",
"313 337 OFFCURVE",
"335 337 CURVE SMOOTH",
"361 337 OFFCURVE",
"371 329 OFFCURVE",
"371 307 CURVE SMOOTH",
"371 -6 LINE SMOOTH",
"371 -25 OFFCURVE",
"356 -33 OFFCURVE",
"330 -33 CURVE SMOOTH",
"294 -33 LINE",
"271 -169 LINE",
"304 -187 OFFCURVE",
"383 -195 OFFCURVE",
"424 -195 CURVE SMOOTH",
"524 -195 OFFCURVE",
"581 -132 OFFCURVE",
"581 -24 CURVE SMOOTH",
"581 374 LINE SMOOTH",
"581 466 OFFCURVE",
"531 514 OFFCURVE",
"433 514 CURVE SMOOTH"
);
}
);
width = 621;
},
{
background = {
paths = (
{
closed = 1;
nodes = (
"307.132 501.842 OFFCURVE",
"233 468 OFFCURVE",
"159 411 CURVE",
"164 336 LINE",
"243 376 OFFCURVE",
"294 403 OFFCURVE",
"349 403 CURVE SMOOTH",
"391 403 OFFCURVE",
"404 387 OFFCURVE",
"403.921 335.184 CURVE SMOOTH",
"403.921 0 LINE",
"511.579 0 LINE",
"511.579 366.816 LINE SMOOTH",
"511.579 455.5 OFFCURVE",
"465.789 501.842 OFFCURVE",
"377.211 501.842 CURVE SMOOTH"
);
}
);
};
layerId = "77EC9CE6-E33A-4866-9665-0506F15B57B2";
paths = (
{
closed = 1;
nodes = (
"312 502 OFFCURVE",
"239 471 OFFCURVE",
"165 412 CURVE",
"156 489 LINE",
"72 489 LINE",
"72 0 LINE",
"180 0 LINE",
"179 342 LINE",
"244 377 OFFCURVE",
"303 403 OFFCURVE",
"350 403 CURVE SMOOTH",
"396 403 OFFCURVE",
"408 385 OFFCURVE",
"408 335 CURVE SMOOTH",
"408 -51 LINE SMOOTH",
"408 -97 OFFCURVE",
"386 -119 OFFCURVE",
"343 -119 CURVE SMOOTH",
"302 -119 LINE",
"290 -188 LINE",
"317 -198 OFFCURVE",
"360 -203 OFFCURVE",
"387 -203 CURVE SMOOTH",
"471 -204 OFFCURVE",
"516 -152 OFFCURVE",
"516 -60 CURVE SMOOTH",
"516 367 LINE SMOOTH",
"516 456 OFFCURVE",
"470 502 OFFCURVE",
"382 502 CURVE SMOOTH"
);
}
);
width = 585;
}
);
leftKerningGroup = m;
rightKerningGroup = h;
unicode = 014B;
},
{
glyphname = o;
lastChange = "2014-10-16 13:20:11 +0000";
layers = (
{
anchors = (
{
name = top;
position = "{279, 558}";
}
);
layerId = "E21536AE-9819-4FE7-8A20-8865FE3C0515";
paths = (
{
closed = 1;
nodes = (
"125 492 OFFCURVE",
"70 425 OFFCURVE",
"70 240 CURVE SMOOTH",
"70 55 OFFCURVE",
"125 -12 OFFCURVE",
"280 -12 CURVE SMOOTH",
"435 -12 OFFCURVE",
"490 55 OFFCURVE",
"490 240 CURVE SMOOTH",
"490 425 OFFCURVE",
"435 492 OFFCURVE",
"280 492 CURVE SMOOTH"
);
},
{
closed = 1;
nodes = (
"416 469 OFFCURVE",
"465 413 OFFCURVE",
"465 240 CURVE SMOOTH",
"465 67 OFFCURVE",
"416 11 OFFCURVE",
"280 11 CURVE SMOOTH",
"144 11 OFFCURVE",
"95 67 OFFCURVE",
"95 240 CURVE SMOOTH",
"95 413 OFFCURVE",
"144 469 OFFCURVE",
"280 469 CURVE SMOOTH"
);
}
);
width = 560;
},
{
anchors = (
{
name = top;
position = "{309, 547}";
}
);
layerId = "924B7471-43FB-4CAD-AF7E-45215B64D997";
paths = (
{
closed = 1;
nodes = (
"101 514 OFFCURVE",
"26 444 OFFCURVE",
"26 249 CURVE SMOOTH",
"26 57 OFFCURVE",
"101 -12 OFFCURVE",
"306 -12 CURVE SMOOTH",
"510 -12 OFFCURVE",
"585 57 OFFCURVE",
"585 249 CURVE SMOOTH",
"585 444 OFFCURVE",
"510 514 OFFCURVE",
"306 514 CURVE SMOOTH"
);
},
{
closed = 1;
nodes = (
"354 372 OFFCURVE",
"365 352 OFFCURVE",
"365 249 CURVE SMOOTH",
"365 149 OFFCURVE",
"354 130 OFFCURVE",
"306 130 CURVE SMOOTH",
"257 130 OFFCURVE",
"246 149 OFFCURVE",
"246 249 CURVE SMOOTH",
"246 352 OFFCURVE",
"257 372 OFFCURVE",
"306 372 CURVE SMOOTH"
);
}
);
width = 611;
},
{
anchors = (
{
name = top;
position = "{285, 553}";
}
);
annotations = (
{
position = "{671, -59}";
text = "contrast +14";
type = Text;
}
);
layerId = "77EC9CE6-E33A-4866-9665-0506F15B57B2";
paths = (
{
closed = 1;
nodes = (
"114 502 OFFCURVE",
"49 431 OFFCURVE",
"49 244 CURVE SMOOTH",
"49 57 OFFCURVE",
"114 -13 OFFCURVE",
"286 -13 CURVE SMOOTH",
"458 -13 OFFCURVE",
"522 57 OFFCURVE",
"522 244 CURVE SMOOTH",
"522 431 OFFCURVE",
"458 502 OFFCURVE",
"286 502 CURVE SMOOTH"
);
},
{
closed = 1;
nodes = (
"381 412 OFFCURVE",
"410 375 OFFCURVE",
"410 244 CURVE SMOOTH",
"410 114 OFFCURVE",
"381 77 OFFCURVE",
"286 77 CURVE SMOOTH",
"190 77 OFFCURVE",
"162 114 OFFCURVE",
"162 244 CURVE SMOOTH",
"162 375 OFFCURVE",
"190 412 OFFCURVE",
"286 412 CURVE SMOOTH"
);
}
);
width = 571;
},
{
anchors = (
{
name = top;
position = "{285.5, 553.079}";
}
);
associatedMasterId = "77EC9CE6-E33A-4866-9665-0506F15B57B2";
layerId = "B1BAF3FD-5601-4535-9914-3ED06279A78E";
name = "Regular Jun 4 13, 12:00";
paths = (
{
closed = 1;
nodes = (
"108.605 501.842 OFFCURVE",
"46 433.5 OFFCURVE",
"46 244.026 CURVE SMOOTH",
"46 55.895 OFFCURVE",
"108.605 -12 OFFCURVE",
"282.842 -12 CURVE SMOOTH",
"456.632 -12 OFFCURVE",
"519.237 55.895 OFFCURVE",
"519.237 244.026 CURVE SMOOTH",
"519.237 433.5 OFFCURVE",
"456.632 501.842 OFFCURVE",
"282.842 501.842 CURVE SMOOTH"
);
},
{
closed = 1;
nodes = (
"375.895 425.605 OFFCURVE",
"406.553 385.711 OFFCURVE",
"406.553 244.026 CURVE SMOOTH",
"406.553 103.684 OFFCURVE",
"375.895 64.237 OFFCURVE",
"282.842 64.237 CURVE SMOOTH",
"189.342 64.237 OFFCURVE",
"158.684 103.684 OFFCURVE",
"158.684 244.026 CURVE SMOOTH",
"158.684 385.711 OFFCURVE",
"189.342 425.605 OFFCURVE",
"282.842 425.605 CURVE SMOOTH"
);
}
);
width = 565;
}
);
leftKerningGroup = c;
rightKerningGroup = o;
unicode = 006F;
},
{
glyphname = oslash;
lastChange = "2014-10-16 13:20:11 +0000";
layers = (
{
anchors = (
{
name = top;
position = "{300, 480}";
}
);
components = (
{
name = o;
}
);
layerId = "E21536AE-9819-4FE7-8A20-8865FE3C0515";
paths = (
{
closed = 1;
nodes = (
"128 -52 LINE",
"147 -61 LINE",
"423 530 LINE",
"404 539 LINE"
);
}
);
width = 560;
},
{
components = (
{
name = o;
}
);
layerId = "924B7471-43FB-4CAD-AF7E-45215B64D997";
paths = (
{
closed = 1;
nodes = (
"127 -71 LINE",
"173 -93 LINE",
"483 575 LINE",
"437 597 LINE"
);
}
);
width = 611;
},
{
components = (
{
name = o;
}
);
layerId = "77EC9CE6-E33A-4866-9665-0506F15B57B2";
paths = (
{
closed = 1;
nodes = (
"114 -58 LINE",
"161 -80 LINE",
"452 545 LINE",
"405 568 LINE"
);
}
);
width = 571;
},
{
associatedMasterId = "924B7471-43FB-4CAD-AF7E-45215B64D997";
components = (
{
name = o;
}
);
layerId = "FDC28AE1-D845-4D05-BB44-A9C681EF4C3E";
name = "Bold [144]";
paths = (
{
closed = 1;
nodes = (
"145 104 LINE",
"79 -33 LINE",
"219 -104 LINE",
"284 31 LINE"
);
},
{
closed = 1;
nodes = (
"468 413 LINE",
"530 541 LINE",
"390 613 LINE",
"329 486 LINE"
);
}
);
width = 611;
},
{
associatedMasterId = "77EC9CE6-E33A-4866-9665-0506F15B57B2";
components = (
{
name = o;
}
);
layerId = "D00F8E03-0CE7-403F-99EF-5B31B5942783";
name = "Regular [144]";
paths = (
{
closed = 1;
nodes = (
"155 78 LINE",
"89 -59 LINE",
"166 -96 LINE",
"231 39 LINE"
);
},
{
closed = 1;
nodes = (
"415 421 LINE",
"477 549 LINE",
"400 587 LINE",
"339 460 LINE"
);
}
);
width = 571;
}
);
leftKerningGroup = c;
rightKerningGroup = o;
rightMetricsKey = o;
unicode = 00F8;
},
{
glyphname = oe;
lastChange = "2014-10-16 13:20:11 +0000";
layers = (
{
anchors = (
{
name = top;
position = "{537, 480}";
}
);
layerId = "E21536AE-9819-4FE7-8A20-8865FE3C0515";
paths = (
{
closed = 1;
nodes = (
"125 492 OFFCURVE",
"70 425 OFFCURVE",
"70 240 CURVE SMOOTH",
"70 55 OFFCURVE",
"125 -12 OFFCURVE",
"280 -12 CURVE SMOOTH",
"435 -12 OFFCURVE",
"490 55 OFFCURVE",
"490 240 CURVE SMOOTH",
"490 425 OFFCURVE",
"435 492 OFFCURVE",
"280 492 CURVE SMOOTH"
);
},
{
closed = 1;
nodes = (
"416 469 OFFCURVE",
"465 413 OFFCURVE",
"465 240 CURVE SMOOTH",
"465 67 OFFCURVE",
"416 11 OFFCURVE",
"280 11 CURVE SMOOTH",
"144 11 OFFCURVE",
"95 67 OFFCURVE",
"95 240 CURVE SMOOTH",
"95 413 OFFCURVE",
"144 469 OFFCURVE",
"280 469 CURVE SMOOTH"
);
},
{
closed = 1;
nodes = (
"523 492 OFFCURVE",
"465 426 OFFCURVE",
"465 242 CURVE SMOOTH",
"465 59 OFFCURVE",
"527 -12 OFFCURVE",
"679 -12 CURVE SMOOTH",
"731 -12 OFFCURVE",
"817 -4 OFFCURVE",
"849 6 CURVE",
"845 24 LINE",
"808 18 OFFCURVE",
"747 11 OFFCURVE",
"682 11 CURVE SMOOTH",
"548 11 OFFCURVE",
"490 70 OFFCURVE",
"490 243 CURVE SMOOTH",
"490 409 OFFCURVE",
"538 469 OFFCURVE",
"672 469 CURVE SMOOTH",
"779 469 OFFCURVE",
"833 431 OFFCURVE",
"835 354 CURVE SMOOTH",
"837 277 OFFCURVE",
"805 249 OFFCURVE",
"717 249 CURVE SMOOTH",
"479 249 LINE",
"479 227 LINE",
"717 227 LINE SMOOTH",
"822 227 OFFCURVE",
"862 261 OFFCURVE",
"860 356 CURVE SMOOTH",
"858 447 OFFCURVE",
"796 492 OFFCURVE",
"671 492 CURVE SMOOTH"
);
}
);
width = 922;
},
{
layerId = "924B7471-43FB-4CAD-AF7E-45215B64D997";
paths = (
{
closed = 1;
nodes = (
"99 514 OFFCURVE",
"26 444 OFFCURVE",
"26 249 CURVE SMOOTH",
"26 57 OFFCURVE",
"99 -12 OFFCURVE",
"301 -12 CURVE SMOOTH",
"496 -12 OFFCURVE",
"570 57 OFFCURVE",
"570 249 CURVE SMOOTH",
"570 444 OFFCURVE",
"496 514 OFFCURVE",
"301 514 CURVE SMOOTH"
);
},
{
closed = 1;
nodes = (
"351 372 OFFCURVE",
"361 352 OFFCURVE",
"361 249 CURVE SMOOTH",
"361 149 OFFCURVE",
"351 130 OFFCURVE",
"301 130 CURVE SMOOTH",
"256 130 OFFCURVE",
"247 149 OFFCURVE",
"247 249 CURVE SMOOTH",
"247 352 OFFCURVE",
"256 372 OFFCURVE",
"304 372 CURVE SMOOTH"
);
},
{
closed = 1;
nodes = (
"435 512 OFFCURVE",
"360 441 OFFCURVE",
"360 244 CURVE SMOOTH",
"360 74 OFFCURVE",
"435 -14 OFFCURVE",
"634 -14 CURVE SMOOTH",
"723 -14 OFFCURVE",
"804 -4 OFFCURVE",
"874 32 CURVE",
"855 158 LINE",
"770 149 OFFCURVE",
"694 147 OFFCURVE",
"657 147 CURVE SMOOTH",
"580 147 OFFCURVE",
"569 175 OFFCURVE",
"569 267 CURVE SMOOTH",
"569 366 OFFCURVE",
"580 378 OFFCURVE",
"636 377 CURVE SMOOTH",
"672 377 OFFCURVE",
"687 371 OFFCURVE",
"687 339 CURVE SMOOTH",
"687 305 OFFCURVE",
"680 301 OFFCURVE",
"635 301 CURVE SMOOTH",
"436 301 LINE",
"436 202 LINE",
"693 202 LINE SMOOTH",
"842 202 OFFCURVE",
"889 241 OFFCURVE",
"888 334 CURVE SMOOTH",
"887 451 OFFCURVE",
"818 512 OFFCURVE",
"633 512 CURVE SMOOTH"
);
}
);
width = 909;
},
{
layerId = "77EC9CE6-E33A-4866-9665-0506F15B57B2";
paths = (
{
closed = 1;
nodes = (
"114 502 OFFCURVE",
"49 431 OFFCURVE",
"49 244 CURVE SMOOTH",
"49 57 OFFCURVE",
"114 -13 OFFCURVE",
"286 -13 CURVE SMOOTH",
"458 -13 OFFCURVE",
"522 57 OFFCURVE",
"522 244 CURVE SMOOTH",
"522 431 OFFCURVE",
"458 502 OFFCURVE",
"286 502 CURVE SMOOTH"
);
},
{
closed = 1;
nodes = (
"381 412 OFFCURVE",
"410 375 OFFCURVE",
"410 244 CURVE SMOOTH",
"410 114 OFFCURVE",
"381 77 OFFCURVE",
"286 77 CURVE SMOOTH",
"190 77 OFFCURVE",
"162 114 OFFCURVE",
"162 244 CURVE SMOOTH",
"162 375 OFFCURVE",
"190 412 OFFCURVE",
"286 412 CURVE SMOOTH"
);
},
{
closed = 1;
nodes = (
"472 502 OFFCURVE",
"409 434 OFFCURVE",
"409 249 CURVE SMOOTH",
"409 57 OFFCURVE",
"473 -12 OFFCURVE",
"648 -12 CURVE SMOOTH",
"706 -12 OFFCURVE",
"794 -4 OFFCURVE",
"844 19 CURVE",
"834 90 LINE",
"779 83 OFFCURVE",
"709 78 OFFCURVE",
"664 78 CURVE SMOOTH",
"557 78 OFFCURVE",
"521 102 OFFCURVE",
"521 253 CURVE SMOOTH",
"521 376 OFFCURVE",
"548 412 OFFCURVE",
"635 412 CURVE SMOOTH",
"714 412 OFFCURVE",
"745 391 OFFCURVE",
"749 348 CURVE SMOOTH",
"752 295 OFFCURVE",
"737 277 OFFCURVE",
"695 277 CURVE SMOOTH",
"448 277 LINE",
"448 198 LINE",
"702 198 LINE SMOOTH",
"812 198 OFFCURVE",
"857 231 OFFCURVE",
"857 347 CURVE SMOOTH",
"857 440 OFFCURVE",
"794 502 OFFCURVE",
"632 502 CURVE SMOOTH"
);
}
);
width = 902;
}
);
leftKerningGroup = c;
rightKerningGroup = ae;
unicode = 0153;
},
{
glyphname = p;
lastChange = "2014-10-16 13:20:11 +0000";
layers = (
{
background = {
components = (
{
name = n;
}
);
};
layerId = "E21536AE-9819-4FE7-8A20-8865FE3C0515";
paths = (
{
closed = 1;
nodes = (
"250 492 OFFCURVE",
"188 459 OFFCURVE",
"117 393 CURVE",
"115 369 LINE",
"197 439 OFFCURVE",
"252 469 OFFCURVE",
"316 469 CURVE SMOOTH",
"423 469 OFFCURVE",
"465 408 OFFCURVE",
"465 240 CURVE SMOOTH",
"465 72 OFFCURVE",
"423 11 OFFCURVE",
"316 11 CURVE SMOOTH",
"252 11 OFFCURVE",
"197 28 OFFCURVE",
"115 61 CURVE",
"115 42 LINE",
"186 7 OFFCURVE",
"250 -12 OFFCURVE",
"316 -12 CURVE SMOOTH",
"442 -12 OFFCURVE",
"490 58 OFFCURVE",
"490 240 CURVE SMOOTH",
"490 422 OFFCURVE",
"442 492 OFFCURVE",
"316 492 CURVE SMOOTH"
);
},
{
closed = 1;
nodes = (
"95 480 LINE",
"95 -210 LINE",
"119 -210 LINE",
"119 -51 LINE",
"119 -16 OFFCURVE",
"120 7 OFFCURVE",
"116 42 CURVE",
"119 54 LINE",
"119 389 LINE",
"117 393 LINE",
"113 480 LINE"
);
}
);
width = 561;
},
{
background = {
components = (
{
name = n;
}
);
};
layerId = "924B7471-43FB-4CAD-AF7E-45215B64D997";
paths = (
{
closed = 1;
nodes = (
"325 512 OFFCURVE",
"247 470 OFFCURVE",
"221 421 CURVE",
"250 342 LINE",
"271 352 OFFCURVE",
"287 361 OFFCURVE",
"322 361 CURVE SMOOTH",
"360 361 OFFCURVE",
"376 350 OFFCURVE",
"376 242 CURVE SMOOTH",
"376 135 OFFCURVE",
"360 123 OFFCURVE",
"319 123 CURVE SMOOTH",
"278 123 OFFCURVE",
"258 135 OFFCURVE",
"231 144 CURVE",
"217 62 LINE",
"257 6 OFFCURVE",
"327 -14 OFFCURVE",
"403 -14 CURVE SMOOTH",
"527 -14 OFFCURVE",
"592 38 OFFCURVE",
"592 244 CURVE SMOOTH",
"592 414 OFFCURVE",
"542 512 OFFCURVE",
"412 512 CURVE SMOOTH"
);
},
{
closed = 1;
nodes = (
"43 500 LINE",
"43 -180 LINE",
"253 -180 LINE",
"253 -81 LINE SMOOTH",
"254 -34 OFFCURVE",
"251 19 OFFCURVE",
"247 62 CURVE",
"253 74 LINE",
"253 405 LINE",
"231 421 LINE",
"211 500 LINE"
);
}
);
width = 620;
},
{
associatedMasterId = "77EC9CE6-E33A-4866-9665-0506F15B57B2";
background = {
paths = (
{
closed = 1;
nodes = (
"305 502 OFFCURVE",
"232 467 OFFCURVE",
"159 411 CURVE",
"164 336 LINE",
"243 382 OFFCURVE",
"294 411 OFFCURVE",
"349 411 CURVE SMOOTH",
"391 411 OFFCURVE",
"404 395 OFFCURVE",
"403.921 335.184 CURVE SMOOTH",
"403.921 0 LINE",
"511.579 0 LINE",
"511.579 366.816 LINE SMOOTH",
"512 455 OFFCURVE",
"465 502 OFFCURVE",
"379 502 CURVE SMOOTH"
);
},
{
closed = 1;
nodes = (
"67.632 488.947 LINE",
"67.632 0 LINE",
"175.289 0 LINE",
"175 380 LINE",
"168 395 LINE",
"160 489 LINE"
);
}
);
};
layerId = "B9CD0E4A-ECDA-4EF8-AACE-8B93FC4A901D";
name = "Regular Jul 3 13, 15:33";
paths = (
{
closed = 1;
nodes = (
"279 501 OFFCURVE",
"206 456 OFFCURVE",
"145 400 CURVE",
"172 338 LINE",
"235 380 OFFCURVE",
"287 406 OFFCURVE",
"341 410 CURVE SMOOTH",
"386 413 OFFCURVE",
"412 402 OFFCURVE",
"412 254 CURVE SMOOTH",
"412 121 OFFCURVE",
"391 75 OFFCURVE",
"309 75 CURVE SMOOTH",
"264 75 OFFCURVE",
"221 89 OFFCURVE",
"163 112 CURVE",
"141 46 LINE",
"200 6 OFFCURVE",
"273 -13 OFFCURVE",
"344 -13 CURVE SMOOTH",
"472 -13 OFFCURVE",
"523 48 OFFCURVE",
"523 255 CURVE SMOOTH",
"523 432 OFFCURVE",
"486 501 OFFCURVE",
"371 501 CURVE SMOOTH"
);
},
{
closed = 1;
nodes = (
"67.632 488.947 LINE",
"67.632 -197 LINE",
"175.289 -197 LINE",
"175.289 -64 LINE SMOOTH",
"175.737 -24 OFFCURVE",
"174.5 12.368 OFFCURVE",
"170.947 50.947 CURVE",
"175.289 62.947 LINE",
"175.289 401.684 LINE",
"163.895 411.053 LINE",
"152.737 488.947 LINE"
);
}
);
width = 566.474;
},
{
associatedMasterId = "77EC9CE6-E33A-4866-9665-0506F15B57B2";
background = {
paths = (
{
closed = 1;
nodes = (
"307 501 OFFCURVE",
"233 467 OFFCURVE",
"159 410 CURVE",
"164 335 LINE",
"243 375 OFFCURVE",
"294 402 OFFCURVE",
"349 402 CURVE SMOOTH",
"391 402 OFFCURVE",
"404 386 OFFCURVE",
"404 334 CURVE SMOOTH",
"404 -1 LINE",
"512 -1 LINE",
"512 366 LINE SMOOTH",
"512 455 OFFCURVE",
"466 501 OFFCURVE",
"377 501 CURVE SMOOTH"
);
},
{
closed = 1;
nodes = (
"68 488 LINE",
"68 -1 LINE",
"175 -1 LINE",
"175 379 LINE",
"168 394 LINE",
"160 488 LINE"
);
}
);
};
layerId = "87AB0E4D-432C-49A6-8188-B499C9B6CDE8";
name = "Regular Jul 3 13, 15:34";
paths = (
{
closed = 1;
nodes = (
"281 501 OFFCURVE",
"214 464 OFFCURVE",
"159 410 CURVE",
"165 335 LINE",
"234 380 OFFCURVE",
"273 410 OFFCURVE",
"351 410 CURVE SMOOTH",
"394 410 OFFCURVE",
"412 373 OFFCURVE",
"412 241 CURVE SMOOTH",
"412 112 OFFCURVE",
"383 75 OFFCURVE",
"306 75 CURVE SMOOTH",
"265 75 OFFCURVE",
"218 90 OFFCURVE",
"163 112 CURVE",
"141 46 LINE",
"200 6 OFFCURVE",
"274 -13 OFFCURVE",
"343 -13 CURVE SMOOTH",
"467 -13 OFFCURVE",
"523 48 OFFCURVE",
"523 240 CURVE SMOOTH",
"523 420 OFFCURVE",
"481 501 OFFCURVE",
"367 501 CURVE SMOOTH"
);
},
{
closed = 1;
nodes = (
"67.632 488.947 LINE",
"67.632 -197 LINE",
"175.289 -197 LINE",
"175.289 -64 LINE SMOOTH",
"175.737 -24 OFFCURVE",
"174.5 12.368 OFFCURVE",
"170.947 50.947 CURVE",
"175.289 62.947 LINE",
"175 377 LINE",
"168 394 LINE",
"159 489 LINE"
);
}
);
width = 566.474;
},
{
background = {
paths = (
{
closed = 1;
nodes = (
"307 501 OFFCURVE",
"233 467 OFFCURVE",
"159 410 CURVE",
"164 335 LINE",
"243 375 OFFCURVE",
"294 402 OFFCURVE",
"349 402 CURVE SMOOTH",
"391 402 OFFCURVE",
"404 386 OFFCURVE",
"404 334 CURVE SMOOTH",
"404 -1 LINE",
"512 -1 LINE",
"512 366 LINE SMOOTH",
"512 455 OFFCURVE",
"466 501 OFFCURVE",
"377 501 CURVE SMOOTH"
);
},
{
closed = 1;
nodes = (
"68 488 LINE",
"68 -1 LINE",
"175 -1 LINE",
"175 379 LINE",
"168 394 LINE",
"160 488 LINE"
);
}
);
};
layerId = "77EC9CE6-E33A-4866-9665-0506F15B57B2";
paths = (
{
closed = 1;
nodes = (
"298 502 OFFCURVE",
"210 464 OFFCURVE",
"163 409 CURVE",
"176 340 LINE",
"240 385 OFFCURVE",
"284 409 OFFCURVE",
"334 409 CURVE SMOOTH",
"400 409 OFFCURVE",
"426 368 OFFCURVE",
"426 242 CURVE SMOOTH",
"426 108 OFFCURVE",
"397 81 OFFCURVE",
"320 81 CURVE SMOOTH",
"271 81 OFFCURVE",
"232 92 OFFCURVE",
"177 104 CURVE",
"170 40 LINE",
"223 4 OFFCURVE",
"286 -12 OFFCURVE",
"349 -12 CURVE SMOOTH",
"473 -12 OFFCURVE",
"537 51 OFFCURVE",
"537 241 CURVE SMOOTH",
"537 406 OFFCURVE",
"489 502 OFFCURVE",
"372 502 CURVE SMOOTH"
);
},
{
closed = 1;
nodes = (
"72 489 LINE",
"72 -197 LINE",
"179 -197 LINE",
"179 -64 LINE SMOOTH",
"180 -24 OFFCURVE",
"179 12 OFFCURVE",
"175 51 CURVE",
"179 63 LINE",
"179 367 LINE",
"172 384 LINE",
"161 489 LINE"
);
}
);
width = 587;
}
);
leftKerningGroup = m;
rightKerningGroup = p;
unicode = 0070;
},
{
glyphname = thorn;
lastChange = "2014-10-16 13:20:11 +0000";
layers = (
{
layerId = "E21536AE-9819-4FE7-8A20-8865FE3C0515";
paths = (
{
closed = 1;
nodes = (
"250 492 OFFCURVE",
"186 462 OFFCURVE",
"115 402 CURVE",
"115 379 LINE",
"197 442 OFFCURVE",
"252 469 OFFCURVE",
"316 469 CURVE SMOOTH",
"423 469 OFFCURVE",
"465 408 OFFCURVE",
"465 240 CURVE SMOOTH",
"465 72 OFFCURVE",
"423 11 OFFCURVE",
"316 11 CURVE SMOOTH",
"252 11 OFFCURVE",
"197 28 OFFCURVE",
"115 61 CURVE",
"115 42 LINE",
"186 7 OFFCURVE",
"250 -12 OFFCURVE",
"316 -12 CURVE SMOOTH",
"442 -12 OFFCURVE",
"490 58 OFFCURVE",
"490 240 CURVE SMOOTH",
"490 422 OFFCURVE",
"442 492 OFFCURVE",
"316 492 CURVE SMOOTH"
);
},
{
closed = 1;
nodes = (
"95 700 LINE",
"95 -210 LINE",
"119 -210 LINE",
"119 -51 LINE SMOOTH",
"119 -16 OFFCURVE",
"120 7 OFFCURVE",
"116 42 CURVE",
"119 54 LINE",
"119 391 LINE",
"116 403 LINE",
"120 438 OFFCURVE",
"119 461 OFFCURVE",
"119 496 CURVE SMOOTH",
"119 700 LINE"
);
}
);
width = 562;
},
{
layerId = "924B7471-43FB-4CAD-AF7E-45215B64D997";
paths = (
{
closed = 1;
nodes = (
"303 512 OFFCURVE",
"247 470 OFFCURVE",
"219 421 CURVE",
"250 342 LINE",
"270 352 OFFCURVE",
"287 361 OFFCURVE",
"321 361 CURVE SMOOTH",
"360 361 OFFCURVE",
"376 350 OFFCURVE",
"376 242 CURVE SMOOTH",
"376 135 OFFCURVE",
"360 123 OFFCURVE",
"318 123 CURVE SMOOTH",
"278 123 OFFCURVE",
"257 135 OFFCURVE",
"230 144 CURVE",
"214 62 LINE",
"255 6 OFFCURVE",
"327 -14 OFFCURVE",
"403 -14 CURVE SMOOTH",
"527 -14 OFFCURVE",
"592 38 OFFCURVE",
"592 244 CURVE SMOOTH",
"592 414 OFFCURVE",
"542 512 OFFCURVE",
"410 512 CURVE SMOOTH"
);
},
{
closed = 1;
nodes = (
"43 700 LINE",
"43 -180 LINE",
"253 -180 LINE",
"253 -81 LINE SMOOTH",
"254 -34 OFFCURVE",
"250 19 OFFCURVE",
"247 62 CURVE",
"253 74 LINE",
"253 445 LINE",
"247 457 LINE",
"250 500 OFFCURVE",
"254 553 OFFCURVE",
"253 600 CURVE",
"253 700 LINE"
);
}
);
width = 620;
},
{
layerId = "77EC9CE6-E33A-4866-9665-0506F15B57B2";
paths = (
{
closed = 1;
nodes = (
"267 501 OFFCURVE",
"202 466 OFFCURVE",
"149 416 CURVE",
"176 348 LINE",
"226 385 OFFCURVE",
"271 410 OFFCURVE",
"315 410 CURVE SMOOTH",
"386 410 OFFCURVE",
"416 373 OFFCURVE",
"416 241 CURVE SMOOTH",
"416 112 OFFCURVE",
"387 75 OFFCURVE",
"310 75 CURVE SMOOTH",
"269 75 OFFCURVE",
"222 90 OFFCURVE",
"167 112 CURVE",
"145 46 LINE",
"204 6 OFFCURVE",
"278 -13 OFFCURVE",
"347 -13 CURVE SMOOTH",
"471 -13 OFFCURVE",
"527 48 OFFCURVE",
"527 240 CURVE SMOOTH",
"527 420 OFFCURVE",
"479 501 OFFCURVE",
"351 501 CURVE SMOOTH"
);
},
{
closed = 1;
nodes = (
"72 700 LINE",
"72 -197 LINE",
"180 -197 LINE",
"180 -64 LINE SMOOTH",
"180 -24 OFFCURVE",
"179 12 OFFCURVE",
"175 51 CURVE",
"180 63 LINE",
"180 415 LINE",
"175 427 LINE",
"179 466 OFFCURVE",
"180 502 OFFCURVE",
"180 543 CURVE",
"180 700 LINE"
);
}
);
width = 578;
}
);
leftKerningGroup = f;
rightKerningGroup = p;
rightMetricsKey = o;
unicode = 00FE;
},
{
glyphname = q;
lastChange = "2014-10-16 13:20:11 +0000";
layers = (
{
background = {
paths = (
{
closed = 1;
nodes = (
"88 480 LINE",
"88 119 LINE",
"88 33 OFFCURVE",
"132 -12 OFFCURVE",
"217 -12 CURVE SMOOTH",
"289 -12 OFFCURVE",
"362 22 OFFCURVE",
"441 88 CURVE",
"441 111 LINE",
"351 45 OFFCURVE",
"292 11 OFFCURVE",
"222 11 CURVE SMOOTH",
"148 11 OFFCURVE",
"112 46 OFFCURVE",
"112 122 CURVE SMOOTH",
"112 480 LINE"
);
},
{
closed = 1;
nodes = (
"438 480 LINE",
"438 104 LINE",
"441 88 LINE",
"444 0 LINE",
"462 0 LINE",
"462 480 LINE"
);
}
);
};
layerId = "E21536AE-9819-4FE7-8A20-8865FE3C0515";
paths = (
{
closed = 1;
nodes = (
"124 492 OFFCURVE",
"70 424 OFFCURVE",
"70 240 CURVE SMOOTH",
"70 66 OFFCURVE",
"118 -12 OFFCURVE",
"234 -12 CURVE SMOOTH",
"311 -12 OFFCURVE",
"371 23 OFFCURVE",
"450 87 CURVE",
"445 106 LINE",
"362 43 OFFCURVE",
"309 11 OFFCURVE",
"238 11 CURVE SMOOTH",
"137 11 OFFCURVE",
"95 76 OFFCURVE",
"95 239 CURVE SMOOTH",
"95 413 OFFCURVE",
"143 469 OFFCURVE",
"272 469 CURVE SMOOTH",
"317 469 OFFCURVE",
"376 462 OFFCURVE",
"445 443 CURVE",
"466 461 LINE",
"395 480 OFFCURVE",
"329 492 OFFCURVE",
"268 492 CURVE SMOOTH"
);
},
{
closed = 1;
nodes = (
"442 99 LINE",
"445 83 LINE",
"441 52 OFFCURVE",
"442 29 OFFCURVE",
"442 -10 CURVE SMOOTH",
"442 -210 LINE",
"466 -210 LINE",
"466 461 LINE",
"442 461 LINE"
);
}
);
width = 559;
},
{
background = {
components = (
{
name = u;
}
);
};
layerId = "924B7471-43FB-4CAD-AF7E-45215B64D997";
paths = (
{
closed = 1;
nodes = (
"68 514 OFFCURVE",
"27 400 OFFCURVE",
"27 246 CURVE SMOOTH",
"27 83 OFFCURVE",
"76 -12 OFFCURVE",
"215 -12 CURVE SMOOTH",
"301 -12 OFFCURVE",
"374 56 OFFCURVE",
"404 103 CURVE",
"389 176 LINE",
"362 167 OFFCURVE",
"339 155 OFFCURVE",
"303 155 CURVE SMOOTH",
"256 155 OFFCURVE",
"243 170 OFFCURVE",
"243 247 CURVE SMOOTH",
"243 349 OFFCURVE",
"256 370 OFFCURVE",
"300 373 CURVE SMOOTH",
"328 375 OFFCURVE",
"389 368 OFFCURVE",
"408 358 CURVE",
"576 472 LINE",
"518 502 OFFCURVE",
"369 514 OFFCURVE",
"296 514 CURVE SMOOTH"
);
},
{
closed = 1;
nodes = (
"366 106 LINE",
"387 94 LINE",
"372 51 OFFCURVE",
"365 -2 OFFCURVE",
"366 -50 CURVE SMOOTH",
"366 -180 LINE",
"576 -180 LINE",
"576 472 LINE",
"366 482 LINE"
);
}
);
width = 618;
},
{
background = {
components = (
{
name = u;
}
);
};
layerId = "77EC9CE6-E33A-4866-9665-0506F15B57B2";
paths = (
{
closed = 1;
nodes = (
"96 502 OFFCURVE",
"49 406 OFFCURVE",
"49 243 CURVE SMOOTH",
"49 64 OFFCURVE",
"106 -13 OFFCURVE",
"218 -13 CURVE SMOOTH",
"293 -13 OFFCURVE",
"365 22 OFFCURVE",
"422 74 CURVE",
"409 145 LINE",
"352 107 OFFCURVE",
"312 81 OFFCURVE",
"255 81 CURVE SMOOTH",
"176 81 OFFCURVE",
"160 132 OFFCURVE",
"160 235 CURVE SMOOTH",
"160 374 OFFCURVE",
"189 409 OFFCURVE",
"274 412 CURVE SMOOTH",
"316 413 OFFCURVE",
"372 407 OFFCURVE",
"418 392 CURVE",
"504 466 LINE",
"441 490 OFFCURVE",
"339 502 OFFCURVE",
"276 502 CURVE SMOOTH"
);
},
{
closed = 1;
nodes = (
"397 87 LINE",
"408 73 LINE",
"398 36 OFFCURVE",
"396 0 OFFCURVE",
"396 -43 CURVE SMOOTH",
"397 -197 LINE",
"504 -197 LINE",
"504 466 LINE",
"397 471 LINE"
);
}
);
width = 574;
}
);
leftKerningGroup = q;
leftMetricsKey = o;
rightKerningGroup = q;
unicode = 0071;
},
{
glyphname = r;
lastChange = "2014-10-16 13:20:11 +0000";
layers = (
{
anchors = (
{
name = bottom;
position = "{197, 0}";
},
{
name = top;
position = "{221, 558}";
}
);
layerId = "E21536AE-9819-4FE7-8A20-8865FE3C0515";
paths = (
{
closed = 1;
nodes = (
"95 480 LINE",
"95 0 LINE",
"119 0 LINE",
"119 376 LINE",
"116 392 LINE",
"113 480 LINE"
);
},
{
closed = 1;
nodes = (
"341 492 LINE",
"269 492 OFFCURVE",
"196 455 OFFCURVE",
"116 392 CURVE",
"116 369 LINE",
"207 433 OFFCURVE",
"268 469 OFFCURVE",
"338 469 CURVE SMOOTH",
"355 469 LINE",
"360 492 LINE"
);
}
);
width = 383;
},
{
anchors = (
{
name = top;
position = "{249, 547}";
}
);
layerId = "924B7471-43FB-4CAD-AF7E-45215B64D997";
paths = (
{
closed = 1;
nodes = (
"43 500 LINE",
"43 0 LINE",
"253 0 LINE",
"253 386 LINE",
"233 398 LINE",
"207 500 LINE"
);
},
{
closed = 1;
nodes = (
"421 514 LINE",
"355 514 OFFCURVE",
"284 484 OFFCURVE",
"219 421 CURVE",
"231 308 LINE",
"303 320 OFFCURVE",
"343 322 OFFCURVE",
"379 322 CURVE SMOOTH",
"432 322 LINE",
"450 514 LINE"
);
}
);
width = 452;
},
{
anchors = (
{
name = top;
position = "{230, 553}";
}
);
layerId = "77EC9CE6-E33A-4866-9665-0506F15B57B2";
paths = (
{
closed = 1;
nodes = (
"72 489 LINE",
"72 0 LINE",
"180 0 LINE",
"180 380 LINE",
"169 395 LINE",
"156 489 LINE"
);
},
{
closed = 1;
nodes = (
"369 502 LINE",
"302 502 OFFCURVE",
"228 468 OFFCURVE",
"158 410 CURVE",
"168 346 LINE",
"247 380 OFFCURVE",
"296 401 OFFCURVE",
"348 401 CURVE SMOOTH",
"380 401 LINE",
"392 502 LINE"
);
}
);
width = 407;
}
);
leftKerningGroup = m;
rightKerningGroup = r;
unicode = 0072;
},
{
glyphname = s;
lastChange = "2014-10-16 13:20:11 +0000";
layers = (
{
anchors = (
{
name = bottom;
position = "{248, -11}";
},
{
name = top;
position = "{253, 558}";
}
);
layerId = "E21536AE-9819-4FE7-8A20-8865FE3C0515";
paths = (
{
closed = 1;
nodes = (
"122 494 OFFCURVE",
"62 486 OFFCURVE",
"62 365 CURVE SMOOTH",
"62 282 OFFCURVE",
"99 249 OFFCURVE",
"166 241 CURVE SMOOTH",
"328 221 LINE SMOOTH",
"376 215 OFFCURVE",
"413 192 OFFCURVE",
"413 122 CURVE SMOOTH",
"413 26 OFFCURVE",
"369 13 OFFCURVE",
"249 11 CURVE SMOOTH",
"185 10 OFFCURVE",
"140 12 OFFCURVE",
"77 18 CURVE",
"74 0 LINE",
"147 -10 OFFCURVE",
"201 -11 OFFCURVE",
"248 -11 CURVE SMOOTH",
"369 -11 OFFCURVE",
"437 0 OFFCURVE",
"437 122 CURVE SMOOTH",
"437 198 OFFCURVE",
"398 235 OFFCURVE",
"328 244 CURVE SMOOTH",
"166 264 LINE SMOOTH",
"115 270 OFFCURVE",
"86 294 OFFCURVE",
"86 365 CURVE SMOOTH",
"86 469 OFFCURVE",
"132 472 OFFCURVE",
"239 470 CURVE SMOOTH",
"298 469 OFFCURVE",
"363 466 OFFCURVE",
"422 462 CURVE",
"425 480 LINE",
"366 487 OFFCURVE",
"297 491 OFFCURVE",
"239 492 CURVE SMOOTH"
);
}
);
width = 499;
},
{
anchors = (
{
name = bottom;
position = "{263, -16}";
},
{
name = top;
position = "{281, 547}";
}
);
layerId = "924B7471-43FB-4CAD-AF7E-45215B64D997";
paths = (
{
closed = 1;
nodes = (
"80 514 OFFCURVE",
"24 459 OFFCURVE",
"24 368 CURVE SMOOTH",
"24 290 OFFCURVE",
"45 236 OFFCURVE",
"155 204 CURVE SMOOTH",
"265 174 LINE SMOOTH",
"317 159 OFFCURVE",
"330 159 OFFCURVE",
"330 147 CURVE SMOOTH",
"330 132 OFFCURVE",
"317 132 OFFCURVE",
"222 132 CURVE SMOOTH",
"151 132 OFFCURVE",
"70 132 OFFCURVE",
"44 132 CURVE",
"31 10 LINE",
"141 -9 OFFCURVE",
"243 -11 OFFCURVE",
"291 -11 CURVE SMOOTH",
"465 -11 OFFCURVE",
"533 27 OFFCURVE",
"533 154 CURVE SMOOTH",
"533 241 OFFCURVE",
"490 280 OFFCURVE",
"401 305 CURVE SMOOTH",
"286 334 LINE SMOOTH",
"238 347 OFFCURVE",
"227 347 OFFCURVE",
"227 358 CURVE SMOOTH",
"227 371 OFFCURVE",
"235 370 OFFCURVE",
"302 370 CURVE SMOOTH",
"363 370 OFFCURVE",
"432 370 OFFCURVE",
"499 370 CURVE",
"512 492 LINE",
"449 505 OFFCURVE",
"336 514 OFFCURVE",
"256 514 CURVE SMOOTH"
);
}
);
width = 553;
},
{
anchors = (
{
name = bottom;
position = "{249, -11}";
},
{
name = top;
position = "{260, 553}";
}
);
layerId = "77EC9CE6-E33A-4866-9665-0506F15B57B2";
paths = (
{
closed = 1;
nodes = (
"102 503 OFFCURVE",
"46 475 OFFCURVE",
"46 365 CURVE SMOOTH",
"46 286 OFFCURVE",
"75 247 OFFCURVE",
"158 224 CURVE SMOOTH",
"290 188 LINE SMOOTH",
"336 175 OFFCURVE",
"363 172 OFFCURVE",
"363 131 CURVE SMOOTH",
"363 88 OFFCURVE",
"333 79 OFFCURVE",
"228 79 CURVE SMOOTH",
"166 79 OFFCURVE",
"104 80 OFFCURVE",
"62 83 CURVE",
"55 4 LINE",
"141 -10 OFFCURVE",
"221 -11 OFFCURVE",
"252 -11 CURVE SMOOTH",
"401 -11 OFFCURVE",
"467 12 OFFCURVE",
"467 131 CURVE SMOOTH",
"467 217 OFFCURVE",
"432 248 OFFCURVE",
"352 270 CURVE SMOOTH",
"218 307 LINE SMOOTH",
"172 320 OFFCURVE",
"150 322 OFFCURVE",
"150 365 CURVE SMOOTH",
"150 410 OFFCURVE",
"174 411 OFFCURVE",
"258 411 CURVE SMOOTH",
"320 411 OFFCURVE",
"382 409 OFFCURVE",
"444 407 CURVE",
"452 485 LINE",
"392 495 OFFCURVE",
"306 501 OFFCURVE",
"241 502 CURVE SMOOTH"
);
}
);
width = 511;
}
);
leftKerningGroup = s;
rightKerningGroup = s;
unicode = 0073;
},
{
glyphname = germandbls;
lastChange = "2014-10-16 13:20:11 +0000";
layers = (
{
layerId = "E21536AE-9819-4FE7-8A20-8865FE3C0515";
paths = (
{
closed = 1;
nodes = (
"212 712 OFFCURVE",
"123 700 OFFCURVE",
"123 531 CURVE SMOOTH",
"123 0 LINE",
"147 0 LINE",
"147 531 LINE SMOOTH",
"147 660 OFFCURVE",
"192 690 OFFCURVE",
"329 690 CURVE SMOOTH",
"443 690 OFFCURVE",
"514 671 OFFCURVE",
"514 601 CURVE SMOOTH",
"514 535 OFFCURVE",
"495 513 OFFCURVE",
"433 492 CURVE SMOOTH",
"338 460 OFFCURVE",
"280 453 OFFCURVE",
"280 365 CURVE SMOOTH",
"280 302 OFFCURVE",
"314 277 OFFCURVE",
"368 261 CURVE SMOOTH",
"500 221 LINE SMOOTH",
"541 209 OFFCURVE",
"575 192 OFFCURVE",
"575 122 CURVE SMOOTH",
"575 24 OFFCURVE",
"530 13 OFFCURVE",
"441 11 CURVE SMOOTH",
"387 10 OFFCURVE",
"337 12 OFFCURVE",
"278 18 CURVE",
"276 0 LINE",
"345 -10 OFFCURVE",
"397 -11 OFFCURVE",
"441 -11 CURVE SMOOTH",
"534 -11 OFFCURVE",
"600 0 OFFCURVE",
"600 122 CURVE SMOOTH",
"600 198 OFFCURVE",
"563 226 OFFCURVE",
"503 244 CURVE SMOOTH",
"370 284 LINE SMOOTH",
"331 296 OFFCURVE",
"304 314 OFFCURVE",
"304 365 CURVE SMOOTH",
"304 439 OFFCURVE",
"346 441 OFFCURVE",
"434 470 CURVE SMOOTH",
"504 493 OFFCURVE",
"536 517 OFFCURVE",
"536 601 CURVE SMOOTH",
"536 688 OFFCURVE",
"457 712 OFFCURVE",
"329 712 CURVE SMOOTH"
);
},
{
closed = 1;
nodes = (
"129 480 LINE",
"36 475 LINE",
"36 458 LINE",
"139 458 LINE",
"139 480 LINE"
);
}
);
width = 651;
},
{
layerId = "924B7471-43FB-4CAD-AF7E-45215B64D997";
paths = (
{
closed = 1;
nodes = (
"164 742 OFFCURVE",
"90 697 OFFCURVE",
"90 566 CURVE SMOOTH",
"90 0 LINE",
"300 0 LINE",
"300 541 LINE SMOOTH",
"300 592 OFFCURVE",
"311 602 OFFCURVE",
"370 602 CURVE SMOOTH",
"425 602 OFFCURVE",
"436 594 OFFCURVE",
"436 560 CURVE SMOOTH",
"436 536 OFFCURVE",
"428 522 OFFCURVE",
"402 484 CURVE SMOOTH",
"365 430 OFFCURVE",
"341 414 OFFCURVE",
"341 370 CURVE SMOOTH",
"341 318 OFFCURVE",
"367 286 OFFCURVE",
"410 251 CURVE SMOOTH",
"440 231 LINE SMOOTH",
"481 195 OFFCURVE",
"519 170 OFFCURVE",
"519 148 CURVE SMOOTH",
"519 127 OFFCURVE",
"511 128 OFFCURVE",
"475 128 CURVE SMOOTH",
"425 128 OFFCURVE",
"393 128 OFFCURVE",
"358 128 CURVE",
"345 0 LINE",
"421 -7 OFFCURVE",
"469 -11 OFFCURVE",
"526 -11 CURVE SMOOTH",
"688 -11 OFFCURVE",
"732 45 OFFCURVE",
"732 141 CURVE SMOOTH",
"732 204 OFFCURVE",
"712 223 OFFCURVE",
"650 277 CURVE SMOOTH",
"598 319 LINE SMOOTH",
"568 345 OFFCURVE",
"539 364 OFFCURVE",
"539 386 CURVE SMOOTH",
"539 407 OFFCURVE",
"561 435 OFFCURVE",
"581 461 CURVE SMOOTH",
"620 513 OFFCURVE",
"627 534 OFFCURVE",
"627 574 CURVE SMOOTH",
"627 693 OFFCURVE",
"582 742 OFFCURVE",
"368 742 CURVE SMOOTH"
);
},
{
closed = 1;
nodes = (
"90 500 LINE",
"8 495 LINE",
"8 374 LINE",
"192 374 LINE",
"192 500 LINE"
);
}
);
width = 738;
},
{
layerId = "77EC9CE6-E33A-4866-9665-0506F15B57B2";
paths = (
{
closed = 1;
nodes = (
"195 725 OFFCURVE",
"113 698 OFFCURVE",
"113 547 CURVE SMOOTH",
"113 0 LINE",
"221 0 LINE",
"221 535 LINE SMOOTH",
"221 617 OFFCURVE",
"249 637 OFFCURVE",
"351 637 CURVE SMOOTH",
"463 637 OFFCURVE",
"477 613 OFFCURVE",
"477 581 CURVE SMOOTH",
"477 548 OFFCURVE",
"462 530 OFFCURVE",
"419 500 CURVE SMOOTH",
"363 462 OFFCURVE",
"308 437 OFFCURVE",
"308 365 CURVE SMOOTH",
"308 312 OFFCURVE",
"338 275 OFFCURVE",
"387 250 CURVE SMOOTH",
"484 200 LINE SMOOTH",
"528 177 OFFCURVE",
"547 169 OFFCURVE",
"547 133 CURVE SMOOTH",
"547 82 OFFCURVE",
"520 77 OFFCURVE",
"446 77 CURVE SMOOTH",
"413 77 OFFCURVE",
"364 78 OFFCURVE",
"317 81 CURVE",
"310 0 LINE",
"372 -8 OFFCURVE",
"428 -11 OFFCURVE",
"469 -11 CURVE SMOOTH",
"593 -11 OFFCURVE",
"652 16 OFFCURVE",
"652 128 CURVE SMOOTH",
"652 199 OFFCURVE",
"629 229 OFFCURVE",
"568 260 CURVE SMOOTH",
"474 308 LINE SMOOTH",
"433 329 OFFCURVE",
"410 339 OFFCURVE",
"410 368 CURVE SMOOTH",
"410 406 OFFCURVE",
"443 414 OFFCURVE",
"497 453 CURVE SMOOTH",
"568 502 OFFCURVE",
"578 541 OFFCURVE",
"578 584 CURVE SMOOTH",
"578 691 OFFCURVE",
"518 725 OFFCURVE",
"346 725 CURVE SMOOTH"
);
},
{
closed = 1;
nodes = (
"117 489 LINE",
"25 489 LINE",
"25 405 LINE",
"168 405 LINE",
"168 489 LINE"
);
}
);
width = 684;
}
);
leftKerningGroup = f;
rightKerningGroup = germandbls;
unicode = 00DF;
},
{
glyphname = t;
lastChange = "2014-10-16 13:20:11 +0000";
layers = (
{
anchors = (
{
name = bottom;
position = "{201, -6}";
},
{
name = center;
position = "{182, 302}";
}
);
layerId = "E21536AE-9819-4FE7-8A20-8865FE3C0515";
paths = (
{
closed = 1;
nodes = (
"121 631 LINE",
"121 95 LINE SMOOTH",
"121 30 OFFCURVE",
"157 -6 OFFCURVE",
"231 -6 CURVE SMOOTH",
"248 -6 OFFCURVE",
"289 -4 OFFCURVE",
"316 0 CURVE",
"313 16 LINE",
"225 16 LINE SMOOTH",
"174 16 OFFCURVE",
"145 43 OFFCURVE",
"145 96 CURVE SMOOTH",
"145 631 LINE"
);
},
{
closed = 1;
nodes = (
"127 480 LINE",
"34 475 LINE",
"34 458 LINE",
"323 458 LINE",
"323 480 LINE"
);
}
);
width = 347;
},
{
anchors = (
{
name = bottom;
position = "{240, -19}";
}
);
layerId = "924B7471-43FB-4CAD-AF7E-45215B64D997";
paths = (
{
closed = 1;
nodes = (
"94 631 LINE",
"95 126 LINE SMOOTH",
"95 38 OFFCURVE",
"157 -14 OFFCURVE",
"254 -14 CURVE SMOOTH",
"301 -14 OFFCURVE",
"381 -6 OFFCURVE",
"424 12 CURVE",
"401 146 LINE",
"348 146 LINE",
"317 146 OFFCURVE",
"305 156 OFFCURVE",
"305 182 CURVE SMOOTH",
"305 631 LINE"
);
},
{
closed = 1;
nodes = (
"106 500 LINE",
"10 495 LINE",
"10 374 LINE",
"426 374 LINE",
"426 500 LINE"
);
}
);
width = 438;
},
{
anchors = (
{
name = bottom;
position = "{220, -10}";
}
);
layerId = "77EC9CE6-E33A-4866-9665-0506F15B57B2";
paths = (
{
closed = 1;
nodes = (
"113 631 LINE",
"113 133 LINE SMOOTH",
"113 41 OFFCURVE",
"158 -10 OFFCURVE",
"243 -10 CURVE SMOOTH",
"270 -10 OFFCURVE",
"329 -5 OFFCURVE",
"362 5 CURVE",
"350 88 LINE",
"281 88 LINE SMOOTH",
"235 88 OFFCURVE",
"220 103 OFFCURVE",
"220 148 CURVE SMOOTH",
"220 631 LINE"
);
},
{
closed = 1;
nodes = (
"121 489 LINE",
"24 484 LINE",
"24 406 LINE",
"367 406 LINE",
"367 489 LINE"
);
}
);
width = 394;
}
);
leftKerningGroup = t;
rightKerningGroup = t;
unicode = 0074;
},
{
glyphname = tbar;
lastChange = "2014-10-16 13:20:11 +0000";
layers = (
{
components = (
{
name = t;
}
);
layerId = "E21536AE-9819-4FE7-8A20-8865FE3C0515";
paths = (
{
closed = 1;
nodes = (
"47 340 LINE",
"47 320 LINE",
"302 320 LINE",
"302 340 LINE"
);
}
);
width = 347;
},
{
components = (
{
name = t;
}
);
layerId = "924B7471-43FB-4CAD-AF7E-45215B64D997";
paths = (
{
closed = 1;
nodes = (
"39 324 LINE",
"39 230 LINE",
"387 230 LINE",
"387 324 LINE"
);
}
);
width = 438;
},
{
components = (
{
name = t;
}
);
layerId = "77EC9CE6-E33A-4866-9665-0506F15B57B2";
paths = (
{
closed = 1;
nodes = (
"51 319 LINE",
"51 261 LINE",
"341 261 LINE",
"341 319 LINE"
);
}
);
width = 394;
}
);
leftKerningGroup = t;
rightKerningGroup = t;
unicode = 0167;
},
{
glyphname = u;
lastChange = "2014-10-16 13:20:11 +0000";
layers = (
{
anchors = (
{
name = ogonek;
position = "{465, 0}";
},
{
name = top;
position = "{280, 558}";
}
);
layerId = "E21536AE-9819-4FE7-8A20-8865FE3C0515";
paths = (
{
closed = 1;
nodes = (
"91 480 LINE",
"91 119 LINE",
"91 33 OFFCURVE",
"135 -12 OFFCURVE",
"220 -12 CURVE SMOOTH",
"292 -12 OFFCURVE",
"365 22 OFFCURVE",
"444 88 CURVE",
"444 111 LINE",
"354 45 OFFCURVE",
"295 11 OFFCURVE",
"225 11 CURVE SMOOTH",
"151 11 OFFCURVE",
"115 46 OFFCURVE",
"115 122 CURVE SMOOTH",
"115 480 LINE"
);
},
{
closed = 1;
nodes = (
"441 480 LINE",
"441 104 LINE",
"444 88 LINE",
"447 0 LINE",
"465 0 LINE",
"465 480 LINE"
);
}
);
width = 560;
},
{
anchors = (
{
name = ogonek;
position = "{572, 0}";
},
{
name = top;
position = "{309, 558}";
}
);
layerId = "924B7471-43FB-4CAD-AF7E-45215B64D997";
paths = (
{
closed = 1;
nodes = (
"40 500 LINE",
"40 126 LINE SMOOTH",
"40 34 OFFCURVE",
"90 -14 OFFCURVE",
"188 -14 CURVE SMOOTH",
"263 -14 OFFCURVE",
"327 16 OFFCURVE",
"395 79 CURVE",
"383 182 LINE",
"337 165 OFFCURVE",
"313 162 OFFCURVE",
"287 162 CURVE SMOOTH",
"261 162 OFFCURVE",
"250 171 OFFCURVE",
"250 193 CURVE SMOOTH",
"250 500 LINE"
);
},
{
closed = 1;
nodes = (
"361 500 LINE",
"361 114 LINE",
"381 102 LINE",
"407 0 LINE",
"572 0 LINE",
"572 500 LINE"
);
}
);
width = 615;
},
{
anchors = (
{
name = ogonek;
position = "{505, 0}";
},
{
name = top;
position = "{290, 558}";
}
);
layerId = "77EC9CE6-E33A-4866-9665-0506F15B57B2";
paths = (
{
closed = 1;
nodes = (
"69 489 LINE",
"69 122 LINE SMOOTH",
"69 33 OFFCURVE",
"115 -13 OFFCURVE",
"203 -13 CURVE SMOOTH",
"277 -13 OFFCURVE",
"346 16 OFFCURVE",
"421 74 CURVE",
"406 146 LINE",
"335 103 OFFCURVE",
"289 79 OFFCURVE",
"241 79 CURVE SMOOTH",
"192 79 OFFCURVE",
"176 97 OFFCURVE",
"177 154 CURVE SMOOTH",
"177 489 LINE"
);
},
{
closed = 1;
nodes = (
"395 489 LINE",
"395 108 LINE",
"405 94 LINE",
"416 0 LINE",
"502 0 LINE",
"502 489 LINE"
);
}
);
width = 574;
}
);
leftKerningGroup = u;
rightKerningGroup = q;
unicode = 0075;
},
{
glyphname = v;
lastChange = "2014-10-16 13:20:11 +0000";
layers = (
{
layerId = "E21536AE-9819-4FE7-8A20-8865FE3C0515";
paths = (
{
closed = 1;
nodes = (
"451 480 LINE",
"299 114 LINE SMOOTH",
"286 83 OFFCURVE",
"273 53 OFFCURVE",
"260 22 CURVE",
"247 22 LINE",
"234 52 OFFCURVE",
"222 83 OFFCURVE",
"209 113 CURVE SMOOTH",
"56 480 LINE",
"30 480 LINE",
"227 8 LINE SMOOTH",
"230 3 OFFCURVE",
"234 0 OFFCURVE",
"240 0 CURVE SMOOTH",
"267 0 LINE SMOOTH",
"273 0 OFFCURVE",
"277 3 OFFCURVE",
"280 8 CURVE SMOOTH",
"477 480 LINE"
);
}
);
width = 507;
},
{
layerId = "924B7471-43FB-4CAD-AF7E-45215B64D997";
paths = (
{
closed = 1;
nodes = (
"382 500 LINE",
"322 224 LINE SMOOTH",
"317 193 OFFCURVE",
"311 161 OFFCURVE",
"307 130 CURVE",
"294 130 LINE",
"290 161 OFFCURVE",
"286 193 OFFCURVE",
"280 224 CURVE SMOOTH",
"219 500 LINE",
"-3 500 LINE",
"145 49 LINE SMOOTH",
"154 19 OFFCURVE",
"179 0 OFFCURVE",
"211 0 CURVE SMOOTH",
"390 0 LINE SMOOTH",
"422 0 OFFCURVE",
"447 19 OFFCURVE",
"456 49 CURVE SMOOTH",
"604 500 LINE"
);
}
);
width = 601;
},
{
layerId = "77EC9CE6-E33A-4866-9665-0506F15B57B2";
paths = (
{
closed = 1;
nodes = (
"410 489 LINE",
"302 158 LINE SMOOTH",
"293 131 OFFCURVE",
"284 102 OFFCURVE",
"275 75 CURVE",
"262 75 LINE",
"254 102 OFFCURVE",
"245 131 OFFCURVE",
"236 158 CURVE SMOOTH",
"128 489 LINE",
"14 489 LINE",
"185 26 LINE SMOOTH",
"190 10 OFFCURVE",
"204 0 OFFCURVE",
"221 0 CURVE SMOOTH",
"316 0 LINE SMOOTH",
"334 0 OFFCURVE",
"347 10 OFFCURVE",
"353 26 CURVE SMOOTH",
"524 489 LINE"
);
}
);
width = 538;
}
);
leftKerningGroup = v;
rightKerningGroup = v;
unicode = 0076;
},
{
glyphname = w;
lastChange = "2014-10-16 13:20:11 +0000";
layers = (
{
anchors = (
{
name = top;
position = "{406, 558}";
}
);
guideLines = (
{
position = "{387, 86}";
},
{
position = "{406, 385}";
}
);
layerId = "E21536AE-9819-4FE7-8A20-8865FE3C0515";
paths = (
{
closed = 1;
nodes = (
"752 480 LINE",
"614 87 LINE",
"606 65 OFFCURVE",
"600 44 OFFCURVE",
"592 22 CURVE",
"578 22 LINE",
"571 44 OFFCURVE",
"564 65 OFFCURVE",
"557 87 CURVE",
"431 471 LINE SMOOTH",
"429 476 OFFCURVE",
"424 480 OFFCURVE",
"418 480 CURVE SMOOTH",
"394 480 LINE SMOOTH",
"388 480 OFFCURVE",
"383 476 OFFCURVE",
"381 471 CURVE SMOOTH",
"255 87 LINE SMOOTH",
"248 65 OFFCURVE",
"241 44 OFFCURVE",
"234 22 CURVE",
"220 22 LINE",
"212 43 OFFCURVE",
"206 65 OFFCURVE",
"198 86 CURVE SMOOTH",
"60 480 LINE",
"34 480 LINE",
"201 9 LINE SMOOTH",
"203 3 OFFCURVE",
"208 0 OFFCURVE",
"214 0 CURVE SMOOTH",
"240 0 LINE SMOOTH",
"246 0 OFFCURVE",
"251 4 OFFCURVE",
"253 9 CURVE SMOOTH",
"377 386 LINE",
"385 410 OFFCURVE",
"393 434 OFFCURVE",
"401 458 CURVE",
"411 458 LINE",
"419 434 OFFCURVE",
"426 410 OFFCURVE",
"434 386 CURVE",
"559 9 LINE SMOOTH",
"561 4 OFFCURVE",
"566 0 OFFCURVE",
"572 0 CURVE SMOOTH",
"598 0 LINE SMOOTH",
"604 0 OFFCURVE",
"609 3 OFFCURVE",
"611 9 CURVE SMOOTH",
"778 480 LINE"
);
}
);
width = 812;
},
{
anchors = (
{
name = top;
position = "{440, 547}";
}
);
layerId = "924B7471-43FB-4CAD-AF7E-45215B64D997";
paths = (
{
closed = 1;
nodes = (
"659 500 LINE",
"624 219 LINE SMOOTH",
"620 189 OFFCURVE",
"618 160 OFFCURVE",
"615 130 CURVE",
"603 130 LINE",
"601 160 OFFCURVE",
"596 189 OFFCURVE",
"593 219 CURVE SMOOTH",
"566 438 LINE SMOOTH",
"562 475 OFFCURVE",
"532 500 OFFCURVE",
"495 500 CURVE SMOOTH",
"380 500 LINE SMOOTH",
"343 500 OFFCURVE",
"313 475 OFFCURVE",
"309 439 CURVE SMOOTH",
"281 219 LINE SMOOTH",
"278 189 OFFCURVE",
"274 160 OFFCURVE",
"272 130 CURVE",
"260 130 LINE",
"258 160 OFFCURVE",
"255 189 OFFCURVE",
"252 219 CURVE SMOOTH",
"216 500 LINE",
"8 500 LINE",
"110 53 LINE SMOOTH",
"117 21 OFFCURVE",
"144 0 OFFCURVE",
"178 0 CURVE SMOOTH",
"323 0 LINE SMOOTH",
"360 0 OFFCURVE",
"391 25 OFFCURVE",
"395 62 CURVE SMOOTH",
"424 289 LINE SMOOTH",
"427 319 OFFCURVE",
"429 347 OFFCURVE",
"431 377 CURVE",
"444 377 LINE",
"446 347 OFFCURVE",
"447 319 OFFCURVE",
"450 289 CURVE SMOOTH",
"479 62 LINE SMOOTH",
"483 25 OFFCURVE",
"514 0 OFFCURVE",
"551 0 CURVE SMOOTH",
"698 0 LINE SMOOTH",
"732 0 OFFCURVE",
"759 21 OFFCURVE",
"766 53 CURVE SMOOTH",
"868 500 LINE"
);
}
);
width = 876;
},
{
anchors = (
{
name = top;
position = "{415, 553}";
}
);
layerId = "77EC9CE6-E33A-4866-9665-0506F15B57B2";
paths = (
{
closed = 1;
nodes = (
"696 489 LINE",
"608 143 LINE SMOOTH",
"601 117 OFFCURVE",
"598 93 OFFCURVE",
"594 67 CURVE",
"581 67 LINE",
"576 93 OFFCURVE",
"570 118 OFFCURVE",
"565 143 CURVE SMOOTH",
"502 455 LINE SMOOTH",
"498 476 OFFCURVE",
"483 489 OFFCURVE",
"463 489 CURVE SMOOTH",
"366 489 LINE SMOOTH",
"345 489 OFFCURVE",
"331 476 OFFCURVE",
"327 456 CURVE SMOOTH",
"263 143 LINE SMOOTH",
"258 118 OFFCURVE",
"252 92 OFFCURVE",
"247 67 CURVE",
"234 67 LINE",
"231 92 OFFCURVE",
"226 118 OFFCURVE",
"220 143 CURVE SMOOTH",
"132 489 LINE",
"21 489 LINE",
"155 30 LINE SMOOTH",
"159 11 OFFCURVE",
"175 0 OFFCURVE",
"195 0 CURVE SMOOTH",
"289 0 LINE SMOOTH",
"310 0 OFFCURVE",
"327 13 OFFCURVE",
"331 34 CURVE SMOOTH",
"393 347 LINE SMOOTH",
"398 373 OFFCURVE",
"403 399 OFFCURVE",
"408 426 CURVE",
"420 426 LINE",
"426 399 OFFCURVE",
"429 373 OFFCURVE",
"434 347 CURVE SMOOTH",
"497 34 LINE SMOOTH",
"501 13 OFFCURVE",
"518 0 OFFCURVE",
"538 0 CURVE SMOOTH",
"634 0 LINE SMOOTH",
"654 0 OFFCURVE",
"669 11 OFFCURVE",
"674 30 CURVE SMOOTH",
"807 489 LINE"
);
}
);
width = 828;
}
);
leftKerningGroup = w;
rightKerningGroup = w;
unicode = 0077;
},
{
glyphname = x;
lastChange = "2014-10-16 13:20:11 +0000";
layers = (
{
layerId = "E21536AE-9819-4FE7-8A20-8865FE3C0515";
paths = (
{
closed = 1;
nodes = (
"426 480 LINE",
"257 250 LINE",
"439 0 LINE",
"469 0 LINE",
"287 250 LINE",
"456 480 LINE"
);
},
{
closed = 1;
nodes = (
"49 480 LINE",
"218 250 LINE",
"36 0 LINE",
"66 0 LINE",
"248 250 LINE",
"79 480 LINE"
);
},
{
closed = 1;
nodes = (
"226 262 LINE",
"226 240 LINE",
"278 240 LINE",
"278 262 LINE"
);
}
);
width = 505;
},
{
layerId = "924B7471-43FB-4CAD-AF7E-45215B64D997";
paths = (
{
closed = 1;
nodes = (
"391 500 LINE",
"268 255 LINE",
"401 0 LINE",
"609 0 LINE",
"464 255 LINE",
"598 500 LINE"
);
},
{
closed = 1;
nodes = (
"8 500 LINE",
"142 255 LINE",
"-3 0 LINE",
"205 0 LINE",
"338 255 LINE",
"215 500 LINE"
);
},
{
closed = 1;
nodes = (
"201 316 LINE",
"201 198 LINE",
"407 198 LINE",
"407 316 LINE"
);
}
);
width = 606;
},
{
associatedMasterId = "924B7471-43FB-4CAD-AF7E-45215B64D997";
layerId = "1CB2D4F0-CB70-4BE3-8290-8FFC31107A6D";
name = "Bold Apr 29 13, 20:04";
paths = (
{
closed = 1;
nodes = (
"565 0 LINE",
"387 261 LINE",
"555 500 LINE",
"325 500 LINE",
"274 391 LINE",
"225 500 LINE",
"-5 500 LINE",
"164 258 LINE",
"-15 0 LINE",
"215 0 LINE",
"279 124 LINE",
"335 0 LINE"
);
}
);
width = 550;
},
{
layerId = "77EC9CE6-E33A-4866-9665-0506F15B57B2";
paths = (
{
closed = 1;
nodes = (
"392 489 LINE",
"253 252 LINE",
"403 0 LINE",
"519 0 LINE",
"363 252 LINE",
"507 489 LINE"
);
},
{
closed = 1;
nodes = (
"30 489 LINE",
"174 252 LINE",
"18 0 LINE",
"134 0 LINE",
"284 252 LINE",
"145 489 LINE"
);
},
{
closed = 1;
nodes = (
"207 295 LINE",
"207 212 LINE",
"331 212 LINE",
"331 295 LINE"
);
}
);
width = 537;
}
);
leftKerningGroup = x;
rightKerningGroup = x;
unicode = 0078;
},
{
glyphname = y;
lastChange = "2014-10-16 13:20:11 +0000";
layers = (
{
anchors = (
{
name = top;
position = "{256, 558}";
}
);
background = {
paths = (
{
closed = 1;
nodes = (
"439 480 LINE",
"287 114 LINE SMOOTH",
"274 83 OFFCURVE",
"261 53 OFFCURVE",
"248 22 CURVE",
"235 22 LINE",
"222 52 OFFCURVE",
"210 83 OFFCURVE",
"197 113 CURVE SMOOTH",
"44 480 LINE",
"18 480 LINE",
"215 8 LINE SMOOTH",
"218 3 OFFCURVE",
"222 0 OFFCURVE",
"228 0 CURVE SMOOTH",
"255 0 LINE SMOOTH",
"261 0 OFFCURVE",
"265 3 OFFCURVE",
"268 8 CURVE SMOOTH",
"465 480 LINE"
);
}
);
};
layerId = "E21536AE-9819-4FE7-8A20-8865FE3C0515";
paths = (
{
closed = 1;
nodes = (
"451 480 LINE",
"282 76 LINE SMOOTH",
"273 54 OFFCURVE",
"263 30 OFFCURVE",
"254 9 CURVE SMOOTH",
"235 -38 LINE SMOOTH",
"208 -108 OFFCURVE",
"175 -165 OFFCURVE",
"95 -196 CURVE",
"101 -210 LINE",
"187 -185 OFFCURVE",
"222 -126 OFFCURVE",
"256 -47 CURVE SMOOTH",
"477 480 LINE"
);
},
{
closed = 1;
nodes = (
"30 480 LINE",
"227 8 LINE SMOOTH",
"230 3 OFFCURVE",
"234 0 OFFCURVE",
"240 0 CURVE SMOOTH",
"256 0 LINE",
"266 22 LINE",
"247 22 LINE",
"240 39 OFFCURVE",
"232 57 OFFCURVE",
"225 74 CURVE SMOOTH",
"56 480 LINE"
);
}
);
width = 506;
},
{
anchors = (
{
name = top;
position = "{305, 547}";
}
);
layerId = "924B7471-43FB-4CAD-AF7E-45215B64D997";
paths = (
{
closed = 1;
nodes = (
"381 500 LINE",
"322 224 LINE SMOOTH",
"315 188 OFFCURVE",
"304 127 OFFCURVE",
"289 94 CURVE SMOOTH",
"252 14 LINE SMOOTH",
"226 -42 OFFCURVE",
"181 -67 OFFCURVE",
"98 -84 CURVE",
"112 -197 LINE",
"319 -241 OFFCURVE",
"411 -96 OFFCURVE",
"445 14 CURVE SMOOTH",
"604 500 LINE"
);
},
{
closed = 1;
nodes = (
"-3 500 LINE",
"145 49 LINE SMOOTH",
"154 19 OFFCURVE",
"179 0 OFFCURVE",
"211 0 CURVE SMOOTH",
"257 0 LINE",
"322 130 LINE",
"292 130 LINE",
"288 161 OFFCURVE",
"284 193 OFFCURVE",
"279 224 CURVE SMOOTH",
"220 500 LINE"
);
}
);
width = 602;
},
{
anchors = (
{
name = top;
position = "{271, 553}";
}
);
background = {
paths = (
{
closed = 1;
nodes = (
"403.211 488.947 LINE",
"296.395 163.211 LINE SMOOTH",
"287 136 OFFCURVE",
"278 107 OFFCURVE",
"269 80 CURVE",
"256 80 LINE",
"248 107 OFFCURVE",
"240 136 OFFCURVE",
"229.658 162.658 CURVE SMOOTH",
"121.842 488.947 LINE",
"7.711 488.947 LINE",
"178.316 26.342 LINE SMOOTH",
"184 10.158 OFFCURVE",
"197.395 0 OFFCURVE",
"215.026 0 CURVE SMOOTH",
"310.026 0 LINE SMOOTH",
"327.658 0 OFFCURVE",
"341.053 10.158 OFFCURVE",
"346.737 26.342 CURVE SMOOTH",
"517.342 488.947 LINE"
);
}
);
};
layerId = "77EC9CE6-E33A-4866-9665-0506F15B57B2";
paths = (
{
closed = 1;
nodes = (
"406 489 LINE",
"294 142 LINE SMOOTH",
"285 114 OFFCURVE",
"273 75 OFFCURVE",
"262 48 CURVE SMOOTH",
"236 -15 LINE SMOOTH",
"212 -72 OFFCURVE",
"172 -110 OFFCURVE",
"93 -133 CURVE",
"103 -204 LINE",
"237 -206 OFFCURVE",
"305 -108 OFFCURVE",
"337 -20 CURVE SMOOTH",
"522 489 LINE"
);
},
{
closed = 1;
nodes = (
"14 489 LINE",
"183 27 LINE SMOOTH",
"188 10 OFFCURVE",
"202 0 OFFCURVE",
"220 0 CURVE SMOOTH",
"249 0 LINE",
"284 81 LINE",
"260 81 LINE",
"256 102 OFFCURVE",
"250 122 OFFCURVE",
"243 142 CURVE SMOOTH",
"129 489 LINE"
);
}
);
width = 537;
}
);
leftKerningGroup = y;
rightKerningGroup = y;
unicode = 0079;
},
{
glyphname = z;
lastChange = "2014-10-16 13:20:11 +0000";
layers = (
{
anchors = (
{
name = top;
position = "{247, 558}";
}
);
layerId = "E21536AE-9819-4FE7-8A20-8865FE3C0515";
paths = (
{
closed = 1;
nodes = (
"53 22 LINE",
"83 21 LINE",
"443 458 LINE",
"413 459 LINE"
);
},
{
closed = 1;
nodes = (
"53 22 LINE",
"53 0 LINE",
"446 0 LINE",
"446 22 LINE"
);
},
{
closed = 1;
nodes = (
"56 480 LINE",
"56 458 LINE",
"443 458 LINE",
"443 480 LINE"
);
}
);
width = 499;
},
{
anchors = (
{
name = top;
position = "{276, 547}";
}
);
layerId = "924B7471-43FB-4CAD-AF7E-45215B64D997";
paths = (
{
closed = 1;
nodes = (
"29 135 LINE",
"273 134 LINE",
"506 365 LINE",
"262 366 LINE"
);
},
{
closed = 1;
nodes = (
"29 135 LINE",
"29 0 LINE",
"512 0 LINE",
"512 135 LINE"
);
},
{
closed = 1;
nodes = (
"35 500 LINE",
"35 365 LINE",
"506 365 LINE",
"506 500 LINE"
);
}
);
width = 541;
},
{
anchors = (
{
name = top;
position = "{258, 553}";
}
);
layerId = "77EC9CE6-E33A-4866-9665-0506F15B57B2";
paths = (
{
closed = 1;
nodes = (
"47 87 LINE",
"166 86 LINE",
"463 402 LINE",
"345 403 LINE"
);
},
{
closed = 1;
nodes = (
"47 87 LINE",
"47 0 LINE",
"467 0 LINE",
"467 87 LINE"
);
},
{
closed = 1;
nodes = (
"51 489 LINE",
"51 402 LINE",
"463 402 LINE",
"463 489 LINE"
);
}
);
width = 514;
}
);
leftKerningGroup = z;
rightKerningGroup = z;
unicode = 007A;
},
{
glyphname = c_t;
lastChange = "2016-10-28 16:07:44 +0000";
layers = (
{
layerId = "924B7471-43FB-4CAD-AF7E-45215B64D997";
paths = (
{
closed = 1;
nodes = (
"294 500 LINE SMOOTH",
"97 500 OFFCURVE",
"26 433 OFFCURVE",
"26 251 CURVE SMOOTH",
"26 58 OFFCURVE",
"96 -12 OFFCURVE",
"292 -12 CURVE SMOOTH",
"358 -12 OFFCURVE",
"430 -1 OFFCURVE",
"480 30 CURVE",
"461 161 LINE",
"410 154 OFFCURVE",
"358 154 OFFCURVE",
"330 154 CURVE SMOOTH",
"266 154 OFFCURVE",
"246 173 OFFCURVE",
"246 251 CURVE SMOOTH",
"246 349 OFFCURVE",
"266 374 OFFCURVE",
"330 374 CURVE SMOOTH",
"870 374 LINE",
"870 500 LINE"
);
},
{
closed = 1;
nodes = (
"538 631 LINE",
"539 126 LINE SMOOTH",
"539 38 OFFCURVE",
"601 -14 OFFCURVE",
"698 -14 CURVE SMOOTH",
"745 -14 OFFCURVE",
"825 -6 OFFCURVE",
"868 12 CURVE",
"845 146 LINE",
"792 146 LINE",
"761 146 OFFCURVE",
"749 156 OFFCURVE",
"749 182 CURVE SMOOTH",
"749 631 LINE"
);
}
);
width = 882;
},
{
layerId = "E21536AE-9819-4FE7-8A20-8865FE3C0515";
paths = (
{
closed = 1;
nodes = (
"288 480 LINE SMOOTH",
"127 480 OFFCURVE",
"69 413 OFFCURVE",
"69 240 CURVE SMOOTH",
"69 55 OFFCURVE",
"126 -12 OFFCURVE",
"279 -12 CURVE SMOOTH",
"321 -12 OFFCURVE",
"366 -5 OFFCURVE",
"404 5 CURVE",
"400 23 LINE",
"362 14 OFFCURVE",
"306 11 OFFCURVE",
"282 11 CURVE SMOOTH",
"144 11 OFFCURVE",
"94 63 OFFCURVE",
"94 240 CURVE SMOOTH",
"94 406 OFFCURVE",
"147 458 OFFCURVE",
"292 458 CURVE SMOOTH",
"759 458 LINE",
"759 480 LINE"
);
},
{
closed = 1;
nodes = (
"557 631 LINE",
"557 95 LINE SMOOTH",
"557 30 OFFCURVE",
"593 -6 OFFCURVE",
"667 -6 CURVE SMOOTH",
"684 -6 OFFCURVE",
"725 -4 OFFCURVE",
"752 0 CURVE",
"749 16 LINE",
"661 16 LINE SMOOTH",
"610 16 OFFCURVE",
"581 43 OFFCURVE",
"581 96 CURVE SMOOTH",
"581 631 LINE"
);
}
);
width = 783;
},
{
layerId = "77EC9CE6-E33A-4866-9665-0506F15B57B2";
paths = (
{
closed = 1;
nodes = (
"285 489 LINE SMOOTH",
"127 489 OFFCURVE",
"49 424 OFFCURVE",
"49 245 CURVE SMOOTH",
"49 56 OFFCURVE",
"112 -12 OFFCURVE",
"284 -12 CURVE SMOOTH",
"341 -12 OFFCURVE",
"401 -3 OFFCURVE",
"448 16 CURVE",
"438 88 LINE",
"390 80 OFFCURVE",
"331 78 OFFCURVE",
"303 78 CURVE SMOOTH",
"198 78 OFFCURVE",
"162 115 OFFCURVE",
"162 245 CURVE SMOOTH",
"162 371 OFFCURVE",
"198 406 OFFCURVE",
"303 406 CURVE SMOOTH",
"819 406 LINE",
"819 489 LINE"
);
},
{
closed = 1;
nodes = (
"565 631 LINE",
"565 133 LINE SMOOTH",
"565 41 OFFCURVE",
"610 -10 OFFCURVE",
"695 -10 CURVE SMOOTH",
"722 -10 OFFCURVE",
"781 -5 OFFCURVE",
"814 5 CURVE",
"802 88 LINE",
"733 88 LINE SMOOTH",
"687 88 OFFCURVE",
"672 103 OFFCURVE",
"672 148 CURVE SMOOTH",
"672 631 LINE"
);
}
);
width = 846;
}
);
leftKerningGroup = c;
leftMetricsKey = c;
rightKerningGroup = t;
rightMetricsKey = t;
},
{
glyphname = f_f;
lastChange = "2016-10-28 16:07:44 +0000";
layers = (
{
layerId = "E21536AE-9819-4FE7-8A20-8865FE3C0515";
paths = (
{
closed = 1;
nodes = (
"155 694 OFFCURVE",
"122 649 OFFCURVE",
"122 561 CURVE SMOOTH",
"122 0 LINE",
"146 0 LINE",
"146 561 LINE SMOOTH",
"146 643 OFFCURVE",
"175 672 OFFCURVE",
"255 672 CURVE SMOOTH",
"365 672 LINE",
"365 690 LINE",
"331 693 OFFCURVE",
"275 694 OFFCURVE",
"247 694 CURVE SMOOTH"
);
},
{
closed = 1;
nodes = (
"459 714 OFFCURVE",
"426 669 OFFCURVE",
"426 581 CURVE SMOOTH",
"426 0 LINE",
"450 0 LINE",
"450 581 LINE SMOOTH",
"450 663 OFFCURVE",
"479 692 OFFCURVE",
"559 692 CURVE SMOOTH",
"669 692 LINE",
"669 710 LINE",
"635 713 OFFCURVE",
"579 714 OFFCURVE",
"551 714 CURVE SMOOTH"
);
},
{
closed = 1;
nodes = (
"128 480 LINE",
"35 475 LINE",
"35 458 LINE",
"628 458 LINE",
"628 480 LINE"
);
}
);
width = 658;
},
{
layerId = "77EC9CE6-E33A-4866-9665-0506F15B57B2";
paths = (
{
closed = 1;
nodes = (
"163 708 OFFCURVE",
"114 653 OFFCURVE",
"114 562 CURVE SMOOTH",
"114 0 LINE",
"222 0 LINE",
"222 549 LINE SMOOTH",
"222 607 OFFCURVE",
"242 620 OFFCURVE",
"300 620 CURVE SMOOTH",
"377 620 LINE",
"386 700 LINE",
"352 706 OFFCURVE",
"291 708 OFFCURVE",
"262 708 CURVE SMOOTH"
);
},
{
closed = 1;
nodes = (
"493 718 OFFCURVE",
"454 663 OFFCURVE",
"454 572 CURVE SMOOTH",
"454 0 LINE",
"562 0 LINE",
"562 559 LINE SMOOTH",
"562 610 OFFCURVE",
"582 630 OFFCURVE",
"640 630 CURVE SMOOTH",
"737 630 LINE",
"746 710 LINE",
"706 716 OFFCURVE",
"635 718 OFFCURVE",
"602 718 CURVE SMOOTH"
);
},
{
closed = 1;
nodes = (
"118 489 LINE",
"26 484 LINE",
"26 406 LINE",
"709 406 LINE",
"709 489 LINE"
);
}
);
width = 730;
},
{
layerId = "924B7471-43FB-4CAD-AF7E-45215B64D997";
paths = (
{
closed = 1;
nodes = (
"139 714 OFFCURVE",
"95 645 OFFCURVE",
"92 551 CURVE SMOOTH",
"92 0 LINE",
"295 0 LINE",
"295 522 LINE SMOOTH",
"295 561 OFFCURVE",
"306 574 OFFCURVE",
"343 574 CURVE SMOOTH",
"416 574 LINE",
"436 700 LINE",
"392 710 OFFCURVE",
"309 714 OFFCURVE",
"273 714 CURVE SMOOTH"
);
},
{
closed = 1;
nodes = (
"517 724 OFFCURVE",
"470 655 OFFCURVE",
"470 561 CURVE SMOOTH",
"470 0 LINE",
"673 0 LINE",
"673 532 LINE SMOOTH",
"673 571 OFFCURVE",
"684 584 OFFCURVE",
"721 584 CURVE SMOOTH",
"814 584 LINE",
"834 710 LINE",
"784 720 OFFCURVE",
"691 724 OFFCURVE",
"651 724 CURVE SMOOTH"
);
},
{
closed = 1;
nodes = (
"93 500 LINE",
"8 495 LINE",
"8 374 LINE",
"797 374 LINE",
"797 500 LINE"
);
}
);
width = 802;
}
);
leftKerningGroup = f;
leftMetricsKey = f;
rightKerningGroup = f;
rightMetricsKey = f;
},
